<svg version="1.1" viewBox="0.0 0.0 692.0 394.0" fill="none" stroke="none" stroke-linecap="square" stroke-miterlimit="10" xmlns:xlink="http://www.w3.org/1999/xlink" xmlns="http://www.w3.org/2000/svg"><clipPath id="p.0"><path d="m0 0l692.0 0l0 394.0l-692.0 0l0 -394.0z" clip-rule="nonzero"/></clipPath><g clip-path="url(#p.0)"><path fill="#000000" fill-opacity="0.0" d="m0 0l692.0 0l0 394.0l-692.0 0z" fill-rule="evenodd"/><g filter="url(#shadowFilter-p.1)"><use xlink:href="#p.1" transform="matrix(1.0 0.0 0.0 1.0 0.0 2.0)"/></g><defs><filter id="shadowFilter-p.1" filterUnits="userSpaceOnUse"><feGaussianBlur in="SourceAlpha" stdDeviation="2.0" result="blur"/><feComponentTransfer in="blur" color-interpolation-filters="sRGB"><feFuncR type="linear" slope="0" intercept="0.0"/><feFuncG type="linear" slope="0" intercept="0.0"/><feFuncB type="linear" slope="0" intercept="0.0"/><feFuncA type="linear" slope="0.5" intercept="0"/></feComponentTransfer></filter></defs><g id="p.1"><path fill="#cfe2f3" d="m39.0 37.755905l0 0c0 -16.986017 13.76989 -30.755905 30.755905 -30.755905l0 0c8.156975 0 15.979858 3.240345 21.747711 9.008196c5.767853 5.767851 9.008194 13.590736 9.008194 21.74771l0 0c0 16.98602 -13.76989 30.755905 -30.755905 30.755905l0 0c-16.986015 0 -30.755905 -13.769886 -30.755905 -30.755905z" fill-rule="evenodd"/><path stroke="#ffffff" stroke-width="1.0" stroke-linejoin="round" stroke-linecap="butt" d="m39.0 37.755905l0 0c0 -16.986017 13.76989 -30.755905 30.755905 -30.755905l0 0c8.156975 0 15.979858 3.240345 21.747711 9.008196c5.767853 5.767851 9.008194 13.590736 9.008194 21.74771l0 0c0 16.98602 -13.76989 30.755905 -30.755905 30.755905l0 0c-16.986015 0 -30.755905 -13.769886 -30.755905 -30.755905z" fill-rule="evenodd"/><path fill="#000000" d="m69.75278 44.832153q-2.25 0 -3.4375 -1.71875q-1.171875 -1.71875 -1.171875 -5.0q0 -3.3125 1.171875 -5.015625q1.1875 -1.71875 3.4375 -1.71875q2.265625 0 3.4375 1.703125q1.171875 1.703125 1.171875 5.015625q0 3.296875 -1.171875 5.015625q-1.171875 1.71875 -3.4375 1.71875zm0 -1.296875q1.5625 0 2.3125 -1.3125q0.75 -1.328125 0.75 -4.125q0 -2.828125 -0.734375 -4.125q-0.734375 -1.3125 -2.328125 -1.3125q-1.5625 0 -2.3125 1.3125q-0.75 1.3125 -0.75 4.125q0 2.796875 0.75 4.125q0.75 1.3125 2.3125 1.3125z" fill-rule="nonzero"/></g><g filter="url(#shadowFilter-p.2)"><use xlink:href="#p.2" transform="matrix(1.0 0.0 0.0 1.0 0.0 2.0)"/></g><defs><filter id="shadowFilter-p.2" filterUnits="userSpaceOnUse"><feGaussianBlur in="SourceAlpha" stdDeviation="2.0" result="blur"/><feComponentTransfer in="blur" color-interpolation-filters="sRGB"><feFuncR type="linear" slope="0" intercept="0.0"/><feFuncG type="linear" slope="0" intercept="0.0"/><feFuncB type="linear" slope="0" intercept="0.0"/><feFuncA type="linear" slope="0.5" intercept="0"/></feComponentTransfer></filter></defs><g id="p.2"><path fill="#cfe2f3" d="m223.09113 37.755905l0 0c0 -16.986017 13.769897 -30.755905 30.755905 -30.755905l0 0c8.156967 0 15.979874 3.240345 21.747726 9.008196c5.7678223 5.767851 9.008179 13.590736 9.008179 21.74771l0 0c0 16.98602 -13.769897 30.755905 -30.755905 30.755905l0 0c-16.986008 0 -30.755905 -13.769886 -30.755905 -30.755905z" fill-rule="evenodd"/><path stroke="#ffffff" stroke-width="1.0" stroke-linejoin="round" stroke-linecap="butt" d="m223.09113 37.755905l0 0c0 -16.986017 13.769897 -30.755905 30.755905 -30.755905l0 0c8.156967 0 15.979874 3.240345 21.747726 9.008196c5.7678223 5.767851 9.008179 13.590736 9.008179 21.74771l0 0c0 16.98602 -13.769897 30.755905 -30.755905 30.755905l0 0c-16.986008 0 -30.755905 -13.769886 -30.755905 -30.755905z" fill-rule="evenodd"/><path fill="#000000" d="m257.42203 43.394653q0.34375 0 0.53125 0.171875q0.1875 0.15625 0.1875 0.453125q0 0.328125 -0.1875 0.5q-0.171875 0.15625 -0.53125 0.15625l-6.171875 0q-0.34375 0 -0.53125 -0.15625q-0.171875 -0.171875 -0.171875 -0.5q0 -0.296875 0.1875 -0.453125q0.1875 -0.171875 0.515625 -0.171875l2.3125 0l0 -10.0l-2.03125 1.3125q-0.140625 0.09375 -0.296875 0.09375q-0.265625 0 -0.46875 -0.234375q-0.1875 -0.25 -0.1875 -0.53125q0 -0.390625 0.296875 -0.546875l2.84375 -1.859375q0.3125 -0.203125 0.65625 -0.203125q0.3125 0 0.515625 0.21875q0.203125 0.203125 0.203125 0.5625l0 11.1875l2.328125 0z" fill-rule="nonzero"/></g><g filter="url(#shadowFilter-p.3)"><use xlink:href="#p.3" transform="matrix(1.0 0.0 0.0 1.0 0.0 2.0)"/></g><defs><filter id="shadowFilter-p.3" filterUnits="userSpaceOnUse"><feGaussianBlur in="SourceAlpha" stdDeviation="2.0" result="blur"/><feComponentTransfer in="blur" color-interpolation-filters="sRGB"><feFuncR type="linear" slope="0" intercept="0.0"/><feFuncG type="linear" slope="0" intercept="0.0"/><feFuncB type="linear" slope="0" intercept="0.0"/><feFuncA type="linear" slope="0.5" intercept="0"/></feComponentTransfer></filter></defs><g id="p.3"><path fill="#cfe2f3" d="m39.0 161.59842l0 0c0 -16.986008 13.76989 -30.755905 30.755905 -30.755905l0 0c8.156975 0 15.979858 3.2403564 21.747711 9.008209c5.767853 5.7678375 9.008194 13.590729 9.008194 21.747696l0 0c0 16.986023 -13.76989 30.755905 -30.755905 30.755905l0 0c-16.986015 0 -30.755905 -13.769882 -30.755905 -30.755905z" fill-rule="evenodd"/><path stroke="#ffffff" stroke-width="1.0" stroke-linejoin="round" stroke-linecap="butt" d="m39.0 161.59842l0 0c0 -16.986008 13.76989 -30.755905 30.755905 -30.755905l0 0c8.156975 0 15.979858 3.2403564 21.747711 9.008209c5.767853 5.7678375 9.008194 13.590729 9.008194 21.747696l0 0c0 16.986023 -13.76989 30.755905 -30.755905 30.755905l0 0c-16.986015 0 -30.755905 -13.769882 -30.755905 -30.755905z" fill-rule="evenodd"/><path fill="#000000" d="m74.09653 164.39342q0.34375 0 0.53125 0.1875q0.1875 0.171875 0.1875 0.453125q0 0.625 -0.71875 0.625l-1.390625 0l0 2.171875q0 0.375 -0.21875 0.578125q-0.21875 0.203125 -0.546875 0.203125q-0.34375 0 -0.546875 -0.203125q-0.203125 -0.203125 -0.203125 -0.578125l0 -2.171875l-5.515625 0q-0.34375 0 -0.53125 -0.1875q-0.1875 -0.1875 -0.1875 -0.453125q0 -0.265625 0.203125 -0.578125l6.109375 -8.828125q0.265625 -0.34375 0.671875 -0.34375q0.3125 0 0.53125 0.21875q0.234375 0.203125 0.234375 0.5625l0 8.34375l1.390625 0zm-7.40625 0l4.5 0l0 -6.46875l-4.5 6.46875z" fill-rule="nonzero"/></g><g filter="url(#shadowFilter-p.4)"><use xlink:href="#p.4" transform="matrix(1.0 0.0 0.0 1.0 0.0 2.0)"/></g><defs><filter id="shadowFilter-p.4" filterUnits="userSpaceOnUse"><feGaussianBlur in="SourceAlpha" stdDeviation="2.0" result="blur"/><feComponentTransfer in="blur" color-interpolation-filters="sRGB"><feFuncR type="linear" slope="0" intercept="0.0"/><feFuncG type="linear" slope="0" intercept="0.0"/><feFuncB type="linear" slope="0" intercept="0.0"/><feFuncA type="linear" slope="0.5" intercept="0"/></feComponentTransfer></filter></defs><g id="p.4"><path fill="#cfe2f3" d="m223.09113 161.59842l0 0c0 -16.986008 13.769897 -30.755905 30.755905 -30.755905l0 0c8.156967 0 15.979874 3.2403564 21.747726 9.008209c5.7678223 5.7678375 9.008179 13.590729 9.008179 21.747696l0 0c0 16.986023 -13.769897 30.755905 -30.755905 30.755905l0 0c-16.986008 0 -30.755905 -13.769882 -30.755905 -30.755905z" fill-rule="evenodd"/><path stroke="#ffffff" stroke-width="1.0" stroke-linejoin="round" stroke-linecap="butt" d="m223.09113 161.59842l0 0c0 -16.986008 13.769897 -30.755905 30.755905 -30.755905l0 0c8.156967 0 15.979874 3.2403564 21.747726 9.008209c5.7678223 5.7678375 9.008179 13.590729 9.008179 21.747696l0 0c0 16.986023 -13.769897 30.755905 -30.755905 30.755905l0 0c-16.986008 0 -30.755905 -13.769882 -30.755905 -30.755905z" fill-rule="evenodd"/><path fill="#000000" d="m254.3439 160.26842q1.25 0 2.1875 0.53125q0.953125 0.515625 1.46875 1.46875q0.515625 0.9375 0.515625 2.171875q0 1.21875 -0.5625 2.1875q-0.5625 0.953125 -1.5625 1.484375q-1.0 0.53125 -2.296875 0.53125q-1.15625 0 -2.265625 -0.40625q-1.09375 -0.40625 -1.859375 -1.125q-0.296875 -0.265625 -0.296875 -0.625q0 -0.28125 0.140625 -0.46875q0.15625 -0.1875 0.359375 -0.1875q0.265625 0 0.515625 0.203125q0.828125 0.671875 1.640625 1.0q0.828125 0.328125 1.71875 0.328125q1.390625 0 2.171875 -0.78125q0.78125 -0.78125 0.78125 -2.125q0 -1.3125 -0.78125 -2.109375q-0.78125 -0.8125 -2.109375 -0.8125q-1.703125 0 -2.765625 1.3125q-0.265625 0.28125 -0.625 0.28125q-0.265625 0 -0.453125 -0.15625q-0.171875 -0.15625 -0.171875 -0.4375l0 -6.4375q0 -0.328125 0.1875 -0.53125q0.203125 -0.203125 0.5625 -0.203125l6.5625 0q0.34375 0 0.53125 0.171875q0.203125 0.171875 0.203125 0.46875q0 0.296875 -0.203125 0.46875q-0.1875 0.15625 -0.53125 0.15625l-5.796875 0l0 4.6875q0.515625 -0.5 1.21875 -0.765625q0.703125 -0.28125 1.515625 -0.28125z" fill-rule="nonzero"/></g><g filter="url(#shadowFilter-p.5)"><use xlink:href="#p.5" transform="matrix(1.0 0.0 0.0 1.0 0.0 2.0)"/></g><defs><filter id="shadowFilter-p.5" filterUnits="userSpaceOnUse"><feGaussianBlur in="SourceAlpha" stdDeviation="2.0" result="blur"/><feComponentTransfer in="blur" color-interpolation-filters="sRGB"><feFuncR type="linear" slope="0" intercept="0.0"/><feFuncG type="linear" slope="0" intercept="0.0"/><feFuncB type="linear" slope="0" intercept="0.0"/><feFuncA type="linear" slope="0.5" intercept="0"/></feComponentTransfer></filter></defs><g id="p.5"><path fill="#000000" fill-opacity="0.0" d="m232.09932 59.503616l-140.59842 80.34645" fill-rule="evenodd"/><path stroke="#ffffff" stroke-width="1.0" stroke-linejoin="round" stroke-linecap="butt" d="m232.09932 59.503616l-140.59842 80.34645" fill-rule="evenodd"/></g><g filter="url(#shadowFilter-p.6)"><use xlink:href="#p.6" transform="matrix(1.0 0.0 0.0 1.0 0.0 2.0)"/></g><defs><filter id="shadowFilter-p.6" filterUnits="userSpaceOnUse"><feGaussianBlur in="SourceAlpha" stdDeviation="2.0" result="blur"/><feComponentTransfer in="blur" color-interpolation-filters="sRGB"><feFuncR type="linear" slope="0" intercept="0.0"/><feFuncG type="linear" slope="0" intercept="0.0"/><feFuncB type="linear" slope="0" intercept="0.0"/><feFuncA type="linear" slope="0.5" intercept="0"/></feComponentTransfer></filter></defs><g id="p.6"><path fill="#000000" fill-opacity="0.0" d="m100.51181 161.59842l122.58267 0" fill-rule="evenodd"/><path stroke="#ffffff" stroke-width="1.0" stroke-linejoin="round" stroke-linecap="butt" d="m100.51181 161.59842l122.58267 0" fill-rule="evenodd"/></g><g filter="url(#shadowFilter-p.7)"><use xlink:href="#p.7" transform="matrix(1.0 0.0 0.0 1.0 0.0 2.0)"/></g><defs><filter id="shadowFilter-p.7" filterUnits="userSpaceOnUse"><feGaussianBlur in="SourceAlpha" stdDeviation="2.0" result="blur"/><feComponentTransfer in="blur" color-interpolation-filters="sRGB"><feFuncR type="linear" slope="0" intercept="0.0"/><feFuncG type="linear" slope="0" intercept="0.0"/><feFuncB type="linear" slope="0" intercept="0.0"/><feFuncA type="linear" slope="0.5" intercept="0"/></feComponentTransfer></filter></defs><g id="p.7"><path fill="#cfe2f3" d="m400.7149 37.755905l0 0c0 -16.986017 13.769897 -30.755905 30.75592 -30.755905l0 0c8.156952 0 15.979858 3.240345 21.74768 9.008196c5.767853 5.767851 9.008209 13.590736 9.008209 21.74771l0 0c0 16.98602 -13.769897 30.755905 -30.75589 30.755905l0 0c-16.986023 0 -30.75592 -13.769886 -30.75592 -30.755905z" fill-rule="evenodd"/><path stroke="#ffffff" stroke-width="1.0" stroke-linejoin="round" stroke-linecap="butt" d="m400.7149 37.755905l0 0c0 -16.986017 13.769897 -30.755905 30.75592 -30.755905l0 0c8.156952 0 15.979858 3.240345 21.74768 9.008196c5.767853 5.767851 9.008209 13.590736 9.008209 21.74771l0 0c0 16.98602 -13.769897 30.755905 -30.75589 30.755905l0 0c-16.986023 0 -30.75592 -13.769886 -30.75592 -30.755905z" fill-rule="evenodd"/><path fill="#000000" d="m435.3583 43.394653q0.328125 0 0.515625 0.171875q0.1875 0.15625 0.1875 0.453125q0 0.65625 -0.703125 0.65625l-7.3125 0q-0.328125 0 -0.53125 -0.1875q-0.203125 -0.203125 -0.203125 -0.484375q0 -0.359375 0.265625 -0.609375l4.484375 -4.953125q0.9375 -1.046875 1.359375 -1.875q0.421875 -0.828125 0.421875 -1.671875q0 -1.078125 -0.625 -1.65625q-0.625 -0.578125 -1.765625 -0.578125q-0.890625 0 -1.71875 0.328125q-0.8125 0.328125 -1.640625 1.0q-0.28125 0.21875 -0.515625 0.21875q-0.203125 0 -0.359375 -0.1875q-0.15625 -0.203125 -0.15625 -0.484375q0 -0.390625 0.3125 -0.625q0.75 -0.71875 1.84375 -1.125q1.109375 -0.40625 2.265625 -0.40625q1.78125 0 2.828125 0.9375q1.0625 0.921875 1.0625 2.515625q0 1.125 -0.515625 2.171875q-0.515625 1.046875 -1.6875 2.34375l-3.734375 4.046875l5.921875 0z" fill-rule="nonzero"/></g><g filter="url(#shadowFilter-p.8)"><use xlink:href="#p.8" transform="matrix(1.0 0.0 0.0 1.0 0.0 2.0)"/></g><defs><filter id="shadowFilter-p.8" filterUnits="userSpaceOnUse"><feGaussianBlur in="SourceAlpha" stdDeviation="2.0" result="blur"/><feComponentTransfer in="blur" color-interpolation-filters="sRGB"><feFuncR type="linear" slope="0" intercept="0.0"/><feFuncG type="linear" slope="0" intercept="0.0"/><feFuncB type="linear" slope="0" intercept="0.0"/><feFuncA type="linear" slope="0.5" intercept="0"/></feComponentTransfer></filter></defs><g id="p.8"><path fill="#cfe2f3" d="m584.806 37.755905l0 0c0 -16.986017 13.769897 -30.755905 30.75592 -30.755905l0 0c8.156982 0 15.979858 3.240345 21.74768 9.008196c5.7678833 5.767851 9.00824 13.590736 9.00824 21.74771l0 0c0 16.98602 -13.769897 30.755905 -30.75592 30.755905l0 0c-16.986023 0 -30.75592 -13.769886 -30.75592 -30.755905z" fill-rule="evenodd"/><path stroke="#ffffff" stroke-width="1.0" stroke-linejoin="round" stroke-linecap="butt" d="m584.806 37.755905l0 0c0 -16.986017 13.769897 -30.755905 30.75592 -30.755905l0 0c8.156982 0 15.979858 3.240345 21.74768 9.008196c5.7678833 5.767851 9.00824 13.590736 9.00824 21.74771l0 0c0 16.98602 -13.769897 30.755905 -30.75592 30.755905l0 0c-16.986023 0 -30.75592 -13.769886 -30.75592 -30.755905z" fill-rule="evenodd"/><path fill="#000000" d="m617.30884 37.925903q1.203125 0.328125 1.828125 1.15625q0.625 0.8125 0.625 2.03125q0 1.71875 -1.15625 2.703125q-1.15625 0.984375 -3.15625 0.984375q-1.21875 0 -2.328125 -0.40625q-1.109375 -0.40625 -1.875 -1.125q-0.296875 -0.265625 -0.296875 -0.625q0 -0.28125 0.140625 -0.46875q0.15625 -0.1875 0.375 -0.1875q0.25 0 0.515625 0.203125q0.859375 0.6875 1.671875 1.015625q0.828125 0.3125 1.78125 0.3125q1.375 0 2.09375 -0.625q0.71875 -0.640625 0.71875 -1.84375q0 -2.40625 -3.015625 -2.40625l-1.0 0q-0.296875 0 -0.46875 -0.1875q-0.171875 -0.203125 -0.171875 -0.453125q0 -0.265625 0.171875 -0.453125q0.171875 -0.1875 0.46875 -0.1875l0.703125 0q1.453125 0 2.234375 -0.640625q0.78125 -0.640625 0.78125 -1.859375q0 -1.0625 -0.640625 -1.625q-0.625 -0.578125 -1.78125 -0.578125q-0.875 0 -1.703125 0.328125q-0.8125 0.328125 -1.640625 1.0q-0.265625 0.203125 -0.515625 0.203125q-0.203125 0 -0.359375 -0.1875q-0.15625 -0.1875 -0.15625 -0.46875q0 -0.359375 0.3125 -0.625q0.75 -0.71875 1.84375 -1.125q1.09375 -0.40625 2.25 -0.40625q1.796875 0 2.859375 0.921875q1.0625 0.90625 1.046875 2.453125q-0.015625 1.109375 -0.59375 1.953125q-0.5625 0.84375 -1.5625 1.21875z" fill-rule="nonzero"/></g><g filter="url(#shadowFilter-p.9)"><use xlink:href="#p.9" transform="matrix(1.0 0.0 0.0 1.0 0.0 2.0)"/></g><defs><filter id="shadowFilter-p.9" filterUnits="userSpaceOnUse"><feGaussianBlur in="SourceAlpha" stdDeviation="2.0" result="blur"/><feComponentTransfer in="blur" color-interpolation-filters="sRGB"><feFuncR type="linear" slope="0" intercept="0.0"/><feFuncG type="linear" slope="0" intercept="0.0"/><feFuncB type="linear" slope="0" intercept="0.0"/><feFuncA type="linear" slope="0.5" intercept="0"/></feComponentTransfer></filter></defs><g id="p.9"><path fill="#cfe2f3" d="m400.7149 161.59842l0 0c0 -16.986008 13.769897 -30.755905 30.75592 -30.755905l0 0c8.156952 0 15.979858 3.2403564 21.74768 9.008209c5.767853 5.7678375 9.008209 13.590729 9.008209 21.747696l0 0c0 16.986023 -13.769897 30.755905 -30.75589 30.755905l0 0c-16.986023 0 -30.75592 -13.769882 -30.75592 -30.755905z" fill-rule="evenodd"/><path stroke="#ffffff" stroke-width="1.0" stroke-linejoin="round" stroke-linecap="butt" d="m400.7149 161.59842l0 0c0 -16.986008 13.769897 -30.755905 30.75592 -30.755905l0 0c8.156952 0 15.979858 3.2403564 21.74768 9.008209c5.767853 5.7678375 9.008209 13.590729 9.008209 21.747696l0 0c0 16.986023 -13.769897 30.755905 -30.75589 30.755905l0 0c-16.986023 0 -30.75592 -13.769882 -30.75592 -30.755905z" fill-rule="evenodd"/><path fill="#000000" d="m432.0239 160.25279q1.1875 0 2.125 0.53125q0.9375 0.515625 1.453125 1.46875q0.53125 0.953125 0.53125 2.1875q0 1.203125 -0.546875 2.171875q-0.546875 0.96875 -1.515625 1.515625q-0.96875 0.546875 -2.1875 0.546875q-2.375 0 -3.671875 -1.65625q-1.296875 -1.671875 -1.296875 -4.75q0 -2.203125 0.59375 -3.78125q0.59375 -1.59375 1.734375 -2.421875q1.140625 -0.84375 2.703125 -0.84375q1.0625 0 2.109375 0.40625q1.0625 0.40625 1.8125 1.125q0.3125 0.296875 0.3125 0.625q0 0.28125 -0.15625 0.46875q-0.140625 0.1875 -0.34375 0.1875q-0.265625 0 -0.546875 -0.203125q-1.625 -1.328125 -3.15625 -1.328125q-1.65625 0 -2.59375 1.515625q-0.921875 1.5 -0.921875 4.234375l0 0.234375q0.421875 -1.046875 1.375 -1.640625q0.96875 -0.59375 2.1875 -0.59375zm-0.203125 7.125q1.265625 0 2.03125 -0.796875q0.765625 -0.8125 0.765625 -2.125q0 -1.328125 -0.78125 -2.125q-0.765625 -0.796875 -2.046875 -0.796875q-1.28125 0 -2.09375 0.8125q-0.8125 0.8125 -0.8125 2.109375q0 1.296875 0.8125 2.109375q0.8125 0.8125 2.125 0.8125z" fill-rule="nonzero"/></g><g filter="url(#shadowFilter-p.10)"><use xlink:href="#p.10" transform="matrix(1.0 0.0 0.0 1.0 0.0 2.0)"/></g><defs><filter id="shadowFilter-p.10" filterUnits="userSpaceOnUse"><feGaussianBlur in="SourceAlpha" stdDeviation="2.0" result="blur"/><feComponentTransfer in="blur" color-interpolation-filters="sRGB"><feFuncR type="linear" slope="0" intercept="0.0"/><feFuncG type="linear" slope="0" intercept="0.0"/><feFuncB type="linear" slope="0" intercept="0.0"/><feFuncA type="linear" slope="0.5" intercept="0"/></feComponentTransfer></filter></defs><g id="p.10"><path fill="#cfe2f3" d="m584.806 161.59842l0 0c0 -16.986008 13.769897 -30.755905 30.75592 -30.755905l0 0c8.156982 0 15.979858 3.2403564 21.74768 9.008209c5.7678833 5.7678375 9.00824 13.590729 9.00824 21.747696l0 0c0 16.986023 -13.769897 30.755905 -30.75592 30.755905l0 0c-16.986023 0 -30.75592 -13.769882 -30.75592 -30.755905z" fill-rule="evenodd"/><path stroke="#ffffff" stroke-width="1.0" stroke-linejoin="round" stroke-linecap="butt" d="m584.806 161.59842l0 0c0 -16.986008 13.769897 -30.755905 30.75592 -30.755905l0 0c8.156982 0 15.979858 3.2403564 21.74768 9.008209c5.7678833 5.7678375 9.00824 13.590729 9.00824 21.747696l0 0c0 16.986023 -13.769897 30.755905 -30.75592 30.755905l0 0c-16.986023 0 -30.75592 -13.769882 -30.75592 -30.755905z" fill-rule="evenodd"/><path fill="#000000" d="m619.3557 155.36217q0.328125 0 0.5 0.1875q0.1875 0.171875 0.1875 0.453125q0 0.265625 -0.171875 0.578125l-6.1875 11.65625q-0.234375 0.40625 -0.65625 0.40625q-0.296875 0 -0.53125 -0.203125q-0.234375 -0.203125 -0.234375 -0.5q0 -0.203125 0.125 -0.40625l5.828125 -10.875l-6.4375 0q-0.34375 0 -0.515625 -0.171875q-0.171875 -0.171875 -0.171875 -0.46875q0 -0.3125 0.171875 -0.484375q0.171875 -0.171875 0.515625 -0.171875l7.578125 0z" fill-rule="nonzero"/></g><g filter="url(#shadowFilter-p.11)"><use xlink:href="#p.11" transform="matrix(1.0 0.0 0.0 1.0 0.0 2.0)"/></g><defs><filter id="shadowFilter-p.11" filterUnits="userSpaceOnUse"><feGaussianBlur in="SourceAlpha" stdDeviation="2.0" result="blur"/><feComponentTransfer in="blur" color-interpolation-filters="sRGB"><feFuncR type="linear" slope="0" intercept="0.0"/><feFuncG type="linear" slope="0" intercept="0.0"/><feFuncB type="linear" slope="0" intercept="0.0"/><feFuncA type="linear" slope="0.5" intercept="0"/></feComponentTransfer></filter></defs><g id="p.11"><path fill="#000000" fill-opacity="0.0" d="m593.8142 59.503616l-140.59842 80.34645" fill-rule="evenodd"/><path stroke="#ffffff" stroke-width="1.0" stroke-linejoin="round" stroke-linecap="butt" d="m593.8142 59.503616l-140.59842 80.34645" fill-rule="evenodd"/></g><g filter="url(#shadowFilter-p.12)"><use xlink:href="#p.12" transform="matrix(1.0 0.0 0.0 1.0 0.0 2.0)"/></g><defs><filter id="shadowFilter-p.12" filterUnits="userSpaceOnUse"><feGaussianBlur in="SourceAlpha" stdDeviation="2.0" result="blur"/><feComponentTransfer in="blur" color-interpolation-filters="sRGB"><feFuncR type="linear" slope="0" intercept="0.0"/><feFuncG type="linear" slope="0" intercept="0.0"/><feFuncB type="linear" slope="0" intercept="0.0"/><feFuncA type="linear" slope="0.5" intercept="0"/></feComponentTransfer></filter></defs><g id="p.12"><path fill="#000000" fill-opacity="0.0" d="m431.47083 68.51181l0 62.330704" fill-rule="evenodd"/><path stroke="#ffffff" stroke-width="1.0" stroke-linejoin="round" stroke-linecap="butt" d="m431.47083 68.51181l0 62.330704" fill-rule="evenodd"/></g><g filter="url(#shadowFilter-p.13)"><use xlink:href="#p.13" transform="matrix(1.0 0.0 0.0 1.0 0.0 2.0)"/></g><defs><filter id="shadowFilter-p.13" filterUnits="userSpaceOnUse"><feGaussianBlur in="SourceAlpha" stdDeviation="2.0" result="blur"/><feComponentTransfer in="blur" color-interpolation-filters="sRGB"><feFuncR type="linear" slope="0" intercept="0.0"/><feFuncG type="linear" slope="0" intercept="0.0"/><feFuncB type="linear" slope="0" intercept="0.0"/><feFuncA type="linear" slope="0.5" intercept="0"/></feComponentTransfer></filter></defs><g id="p.13"><path fill="#000000" fill-opacity="0.0" d="m615.56195 68.51181l0 62.330704" fill-rule="evenodd"/><path stroke="#ffffff" stroke-width="1.0" stroke-linejoin="round" stroke-linecap="butt" d="m615.56195 68.51181l0 62.330704" fill-rule="evenodd"/></g><g filter="url(#shadowFilter-p.14)"><use xlink:href="#p.14" transform="matrix(1.0 0.0 0.0 1.0 0.0 2.0)"/></g><defs><filter id="shadowFilter-p.14" filterUnits="userSpaceOnUse"><feGaussianBlur in="SourceAlpha" stdDeviation="2.0" result="blur"/><feComponentTransfer in="blur" color-interpolation-filters="sRGB"><feFuncR type="linear" slope="0" intercept="0.0"/><feFuncG type="linear" slope="0" intercept="0.0"/><feFuncB type="linear" slope="0" intercept="0.0"/><feFuncA type="linear" slope="0.5" intercept="0"/></feComponentTransfer></filter></defs><g id="p.14"><path fill="#000000" fill-opacity="0.0" d="m462.2267 37.755905l122.58267 0" fill-rule="evenodd"/><path stroke="#ffffff" stroke-width="1.0" stroke-linejoin="round" stroke-linecap="butt" d="m462.2267 37.755905l122.58267 0" fill-rule="evenodd"/></g><g filter="url(#shadowFilter-p.15)"><use xlink:href="#p.15" transform="matrix(1.0 0.0 0.0 1.0 0.0 2.0)"/></g><defs><filter id="shadowFilter-p.15" filterUnits="userSpaceOnUse"><feGaussianBlur in="SourceAlpha" stdDeviation="2.0" result="blur"/><feComponentTransfer in="blur" color-interpolation-filters="sRGB"><feFuncR type="linear" slope="0" intercept="0.0"/><feFuncG type="linear" slope="0" intercept="0.0"/><feFuncB type="linear" slope="0" intercept="0.0"/><feFuncA type="linear" slope="0.5" intercept="0"/></feComponentTransfer></filter></defs><g id="p.15"><path fill="#000000" fill-opacity="0.0" d="m214.60536 241.80052l288.22046 0l0 58.23622l-288.22046 0z" fill-rule="evenodd"/><path fill="#ffffff" d="m229.49599 270.8924q0.296875 0 0.46875 0.15625q0.1875 0.15625 0.1875 0.4375q0 0.296875 -0.1875 0.4375q-0.171875 0.15625 -0.46875 0.15625l-1.28125 0q-0.921875 0 -1.40625 -0.5q-0.484375 -0.484375 -0.484375 -1.40625l0 -4.234375q0 -0.765625 -0.296875 -1.109375q-0.28125 -0.359375 -1.0 -0.40625q-0.328125 -0.015625 -0.5 -0.171875q-0.15625 -0.171875 -0.15625 -0.4375q0 -0.265625 0.15625 -0.421875q0.171875 -0.171875 0.5 -0.1875q0.71875 -0.046875 1.0 -0.390625q0.296875 -0.34375 0.296875 -1.109375l0 -4.234375q0 -0.90625 0.484375 -1.40625q0.484375 -0.5 1.40625 -0.5l1.28125 0q0.296875 0 0.46875 0.15625q0.1875 0.140625 0.1875 0.4375q0 0.28125 -0.1875 0.453125q-0.171875 0.15625 -0.46875 0.15625l-0.875 0q-0.796875 0 -0.796875 0.828125l0 4.265625q0 0.8125 -0.40625 1.328125q-0.390625 0.5 -0.953125 0.625q0.5625 0.125 0.953125 0.640625q0.40625 0.5 0.40625 1.3125l0 4.28125q0 0.84375 0.796875 0.84375l0.875 0zm11.064774 -2.015625q-2.25 0 -3.4375 -1.71875q-1.171875 -1.71875 -1.171875 -5.0q0 -3.3125 1.171875 -5.015625q1.1875 -1.71875 3.4375 -1.71875q2.265625 0 3.4375 1.703125q1.171875 1.703125 1.171875 5.015625q0 3.296875 -1.171875 5.015625q-1.171875 1.71875 -3.4375 1.71875zm0 -1.296875q1.5625 0 2.3125 -1.3125q0.75 -1.328125 0.75 -4.125q0 -2.828125 -0.734375 -4.125q-0.734375 -1.3125 -2.328125 -1.3125q-1.5625 0 -2.3125 1.3125q-0.75 1.3125 -0.75 4.125q0 2.796875 0.75 4.125q0.75 1.3125 2.3125 1.3125zm15.5383 -4.375q0.328125 0.015625 0.484375 0.1875q0.171875 0.15625 0.171875 0.421875q0 0.265625 -0.171875 0.4375q-0.15625 0.15625 -0.484375 0.171875q-0.71873474 0.046875 -0.99998474 0.390625q-0.28125 0.34375 -0.28125 1.125l-0.015625 4.234375q0 0.921875 -0.484375 1.40625q-0.484375 0.5 -1.40625 0.5l-1.28125 0q-0.296875 0 -0.484375 -0.15625q-0.171875 -0.140625 -0.171875 -0.4375q0 -0.28125 0.171875 -0.4375q0.1875 -0.15625 0.484375 -0.15625l0.859375 0q0.8125 0 0.8125 -0.84375l0 -4.28125q0 -0.8125 0.40625 -1.3125q0.40625 -0.515625 0.953125 -0.640625q-0.546875 -0.125 -0.953125 -0.625q-0.40625 -0.515625 -0.40625 -1.328125l0 -4.265625q0 -0.828125 -0.8125 -0.828125l-0.859375 0q-0.296875 0 -0.484375 -0.15625q-0.171875 -0.171875 -0.171875 -0.453125q0 -0.296875 0.171875 -0.4375q0.1875 -0.15625 0.484375 -0.15625l1.28125 0q0.921875 0 1.40625 0.5q0.484375 0.5 0.484375 1.40625l0 4.234375q0 0.765625 0.28125 1.109375q0.296875 0.34375 1.0156097 0.390625zm26.5672 7.6875q0.296875 0 0.46875 0.15625q0.1875 0.15625 0.1875 0.4375q0 0.296875 -0.1875 0.4375q-0.171875 0.15625 -0.46875 0.15625l-1.28125 0q-0.921875 0 -1.40625 -0.5q-0.484375 -0.484375 -0.484375 -1.40625l0 -4.234375q0 -0.765625 -0.296875 -1.109375q-0.28125 -0.359375 -1.0 -0.40625q-0.328125 -0.015625 -0.5 -0.171875q-0.15625 -0.171875 -0.15625 -0.4375q0 -0.265625 0.15625 -0.421875q0.171875 -0.171875 0.5 -0.1875q0.71875 -0.046875 1.0 -0.390625q0.296875 -0.34375 0.296875 -1.109375l0 -4.234375q0 -0.90625 0.484375 -1.40625q0.484375 -0.5 1.40625 -0.5l1.28125 0q0.296875 0 0.46875 0.15625q0.1875 0.140625 0.1875 0.4375q0 0.28125 -0.1875 0.453125q-0.171875 0.15625 -0.46875 0.15625l-0.875 0q-0.796875 0 -0.796875 0.828125l0 4.265625q0 0.8125 -0.40625 1.328125q-0.390625 0.5 -0.953125 0.625q0.5625 0.125 0.953125 0.640625q0.40625 0.5 0.40625 1.3125l0 4.28125q0 0.84375 0.796875 0.84375l0.875 0zm14.642914 -3.453125q0.34375 0 0.53125 0.171875q0.1875 0.15625 0.1875 0.453125q0 0.328125 -0.1875 0.5q-0.171875 0.15625 -0.53125 0.15625l-6.171875 0q-0.34375 0 -0.53125 -0.15625q-0.171875 -0.171875 -0.171875 -0.5q0 -0.296875 0.1875 -0.453125q0.1875 -0.171875 0.515625 -0.171875l2.3125 0l0 -10.0l-2.03125 1.3125q-0.140625 0.09375 -0.296875 0.09375q-0.265625 0 -0.46875 -0.234375q-0.1875 -0.25 -0.1875 -0.53125q0 -0.390625 0.296875 -0.546875l2.84375 -1.859375q0.3125 -0.203125 0.65625 -0.203125q0.3125 0 0.515625 0.21875q0.203125 0.203125 0.203125 0.5625l0 11.1875l2.328125 0zm21.585999 -2.84375q0.34375 0 0.53125 0.1875q0.1875 0.171875 0.1875 0.453125q0 0.625 -0.71875 0.625l-1.390625 0l0 2.171875q0 0.375 -0.21875 0.578125q-0.21875 0.203125 -0.546875 0.203125q-0.34375 0 -0.546875 -0.203125q-0.203125 -0.203125 -0.203125 -0.578125l0 -2.171875l-5.515625 0q-0.34375 0 -0.53125 -0.1875q-0.1875 -0.1875 -0.1875 -0.453125q0 -0.265625 0.203125 -0.578125l6.109375 -8.828125q0.265625 -0.34375 0.671875 -0.34375q0.3125 0 0.53125 0.21875q0.234375 0.203125 0.234375 0.5625l0 8.34375l1.390625 0zm-7.40625 0l4.5 0l0 -6.46875l-4.5 6.46875zm24.382874 -4.125q1.25 0 2.1875 0.53125q0.953125 0.515625 1.46875 1.46875q0.515625 0.9375 0.515625 2.171875q0 1.21875 -0.5625 2.1875q-0.5625 0.953125 -1.5625 1.484375q-1.0 0.53125 -2.296875 0.53125q-1.15625 0 -2.265625 -0.40625q-1.09375 -0.40625 -1.859375 -1.125q-0.296875 -0.265625 -0.296875 -0.625q0 -0.28125 0.140625 -0.46875q0.15625 -0.1875 0.359375 -0.1875q0.265625 0 0.515625 0.203125q0.828125 0.671875 1.640625 1.0q0.828125 0.328125 1.71875 0.328125q1.390625 0 2.171875 -0.78125q0.78125 -0.78125 0.78125 -2.125q0 -1.3125 -0.78125 -2.109375q-0.78125 -0.8125 -2.109375 -0.8125q-1.703125 0 -2.765625 1.3125q-0.265625 0.28125 -0.625 0.28125q-0.265625 0 -0.453125 -0.15625q-0.171875 -0.15625 -0.171875 -0.4375l0 -6.4375q0 -0.328125 0.1875 -0.53125q0.203125 -0.203125 0.5625 -0.203125l6.5625 0q0.34375 0 0.53125 0.171875q0.203125 0.171875 0.203125 0.46875q0 0.296875 -0.203125 0.46875q-0.1875 0.15625 -0.53125 0.15625l-5.796875 0l0 4.6875q0.515625 -0.5 1.21875 -0.765625q0.703125 -0.28125 1.515625 -0.28125zm15.0383 2.734375q0.328125 0.015625 0.484375 0.1875q0.171875 0.15625 0.171875 0.421875q0 0.265625 -0.171875 0.4375q-0.15625 0.15625 -0.484375 0.171875q-0.71875 0.046875 -1.0 0.390625q-0.28125 0.34375 -0.28125 1.125l-0.015625 4.234375q0 0.921875 -0.484375 1.40625q-0.484375 0.5 -1.40625 0.5l-1.28125 0q-0.296875 0 -0.484375 -0.15625q-0.171875 -0.140625 -0.171875 -0.4375q0 -0.28125 0.171875 -0.4375q0.1875 -0.15625 0.484375 -0.15625l0.859375 0q0.8125 0 0.8125 -0.84375l0 -4.28125q0 -0.8125 0.40625 -1.3125q0.40625 -0.515625 0.953125 -0.640625q-0.546875 -0.125 -0.953125 -0.625q-0.40625 -0.515625 -0.40625 -1.328125l0 -4.265625q0 -0.828125 -0.8125 -0.828125l-0.859375 0q-0.296875 0 -0.484375 -0.15625q-0.171875 -0.171875 -0.171875 -0.453125q0 -0.296875 0.171875 -0.4375q0.1875 -0.15625 0.484375 -0.15625l1.28125 0q0.921875 0 1.40625 0.5q0.484375 0.5 0.484375 1.40625l0 4.234375q0 0.765625 0.28125 1.109375q0.296875 0.34375 1.015625 0.390625zm26.5672 7.6875q0.296875 0 0.46875 0.15625q0.1875 0.15625 0.1875 0.4375q0 0.296875 -0.1875 0.4375q-0.171875 0.15625 -0.46875 0.15625l-1.28125 0q-0.921875 0 -1.40625 -0.5q-0.484375 -0.484375 -0.484375 -1.40625l0 -4.234375q0 -0.765625 -0.296875 -1.109375q-0.28125 -0.359375 -1.0 -0.40625q-0.328125 -0.015625 -0.5 -0.171875q-0.15625 -0.171875 -0.15625 -0.4375q0 -0.265625 0.15625 -0.421875q0.171875 -0.171875 0.5 -0.1875q0.71875 -0.046875 1.0 -0.390625q0.296875 -0.34375 0.296875 -1.109375l0 -4.234375q0 -0.90625 0.484375 -1.40625q0.484375 -0.5 1.40625 -0.5l1.28125 0q0.296875 0 0.46875 0.15625q0.1875 0.140625 0.1875 0.4375q0 0.28125 -0.1875 0.453125q-0.171875 0.15625 -0.46875 0.15625l-0.875 0q-0.796875 0 -0.796875 0.828125l0 4.265625q0 0.8125 -0.40625 1.328125q-0.390625 0.5 -0.953125 0.625q0.5625 0.125 0.953125 0.640625q0.40625 0.5 0.40625 1.3125l0 4.28125q0 0.84375 0.796875 0.84375l0.875 0zm14.955414 -3.453125q0.328125 0 0.515625 0.171875q0.1875 0.15625 0.1875 0.453125q0 0.65625 -0.703125 0.65625l-7.3125 0q-0.328125 0 -0.53125 -0.1875q-0.203125 -0.203125 -0.203125 -0.484375q0 -0.359375 0.265625 -0.609375l4.484375 -4.953125q0.9375 -1.046875 1.359375 -1.875q0.421875 -0.828125 0.421875 -1.671875q0 -1.078125 -0.625 -1.65625q-0.625 -0.578125 -1.765625 -0.578125q-0.890625 0 -1.71875 0.328125q-0.8125 0.328125 -1.640625 1.0q-0.28125 0.21875 -0.515625 0.21875q-0.203125 0 -0.359375 -0.1875q-0.15625 -0.203125 -0.15625 -0.484375q0 -0.390625 0.3125 -0.625q0.75 -0.71875 1.84375 -1.125q1.109375 -0.40625 2.265625 -0.40625q1.78125 0 2.828125 0.9375q1.0625 0.921875 1.0625 2.515625q0 1.125 -0.515625 2.171875q-0.515625 1.046875 -1.6875 2.34375l-3.734375 4.046875l5.921875 0zm18.679749 -5.46875q1.203125 0.328125 1.828125 1.15625q0.625 0.8125 0.625 2.03125q0 1.71875 -1.15625 2.703125q-1.15625 0.984375 -3.15625 0.984375q-1.21875 0 -2.328125 -0.40625q-1.109375 -0.40625 -1.875 -1.125q-0.296875 -0.265625 -0.296875 -0.625q0 -0.28125 0.140625 -0.46875q0.15625 -0.1875 0.375 -0.1875q0.25 0 0.515625 0.203125q0.859375 0.6875 1.671875 1.015625q0.828125 0.3125 1.78125 0.3125q1.375 0 2.09375 -0.625q0.71875 -0.640625 0.71875 -1.84375q0 -2.40625 -3.015625 -2.40625l-1.0 0q-0.296875 0 -0.46875 -0.1875q-0.171875 -0.203125 -0.171875 -0.453125q0 -0.265625 0.171875 -0.453125q0.171875 -0.1875 0.46875 -0.1875l0.703125 0q1.453125 0 2.234375 -0.640625q0.78125 -0.640625 0.78125 -1.859375q0 -1.0625 -0.640625 -1.625q-0.625 -0.578125 -1.78125 -0.578125q-0.875 0 -1.703125 0.328125q-0.8125 0.328125 -1.640625 1.0q-0.265625 0.203125 -0.515625 0.203125q-0.203125 0 -0.359375 -0.1875q-0.15625 -0.1875 -0.15625 -0.46875q0 -0.359375 0.3125 -0.625q0.75 -0.71875 1.84375 -1.125q1.09375 -0.40625 2.25 -0.40625q1.796875 0 2.859375 0.921875q1.0625 0.90625 1.046875 2.453125q-0.015625 1.109375 -0.59375 1.953125q-0.5625 0.84375 -1.5625 1.21875zm19.617249 -1.515625q1.1875 0 2.125 0.53125q0.9375 0.515625 1.453125 1.46875q0.53125 0.953125 0.53125 2.1875q0 1.203125 -0.546875 2.171875q-0.546875 0.96875 -1.515625 1.515625q-0.96875 0.546875 -2.1875 0.546875q-2.375 0 -3.671875 -1.65625q-1.296875 -1.671875 -1.296875 -4.75q0 -2.203125 0.59375 -3.78125q0.59375 -1.59375 1.734375 -2.421875q1.140625 -0.84375 2.703125 -0.84375q1.0625 0 2.109375 0.40625q1.0625 0.40625 1.8125 1.125q0.3125 0.296875 0.3125 0.625q0 0.28125 -0.15625 0.46875q-0.140625 0.1875 -0.34375 0.1875q-0.265625 0 -0.546875 -0.203125q-1.625 -1.328125 -3.15625 -1.328125q-1.65625 0 -2.59375 1.515625q-0.921875 1.5 -0.921875 4.234375l0 0.234375q0.421875 -1.046875 1.375 -1.640625q0.96875 -0.59375 2.1875 -0.59375zm-0.203125 7.125q1.265625 0 2.03125 -0.796875q0.765625 -0.8125 0.765625 -2.125q0 -1.328125 -0.78125 -2.125q-0.765625 -0.796875 -2.046875 -0.796875q-1.28125 0 -2.09375 0.8125q-0.8125 0.8125 -0.8125 2.109375q0 1.296875 0.8125 2.109375q0.8125 0.8125 2.125 0.8125zm24.254822 -12.015625q0.328125 0 0.5 0.1875q0.1875 0.171875 0.1875 0.453125q0 0.265625 -0.171875 0.578125l-6.1875 11.65625q-0.234375 0.40625 -0.65625 0.40625q-0.296875 0 -0.53125 -0.203125q-0.234375 -0.203125 -0.234375 -0.5q0 -0.203125 0.125 -0.40625l5.828125 -10.875l-6.4375 0q-0.34375 0 -0.515625 -0.171875q-0.171875 -0.171875 -0.171875 -0.46875q0 -0.3125 0.171875 -0.484375q0.171875 -0.171875 0.515625 -0.171875l7.578125 0zm11.741455 7.640625q0.328125 0.015625 0.484375 0.1875q0.171875 0.15625 0.171875 0.421875q0 0.265625 -0.171875 0.4375q-0.15625 0.15625 -0.484375 0.171875q-0.71875 0.046875 -1.0 0.390625q-0.28125 0.34375 -0.28125 1.125l-0.015625 4.234375q0 0.921875 -0.484375 1.40625q-0.484375 0.5 -1.40625 0.5l-1.28125 0q-0.296875 0 -0.484375 -0.15625q-0.171875 -0.140625 -0.171875 -0.4375q0 -0.28125 0.171875 -0.4375q0.1875 -0.15625 0.484375 -0.15625l0.859375 0q0.8125 0 0.8125 -0.84375l0 -4.28125q0 -0.8125 0.40625 -1.3125q0.40625 -0.515625 0.953125 -0.640625q-0.546875 -0.125 -0.953125 -0.625q-0.40625 -0.515625 -0.40625 -1.328125l0 -4.265625q0 -0.828125 -0.8125 -0.828125l-0.859375 0q-0.296875 0 -0.484375 -0.15625q-0.171875 -0.171875 -0.171875 -0.453125q0 -0.296875 0.171875 -0.4375q0.1875 -0.15625 0.484375 -0.15625l1.28125 0q0.921875 0 1.40625 0.5q0.484375 0.5 0.484375 1.40625l0 4.234375q0 0.765625 0.28125 1.109375q0.296875 0.34375 1.015625 0.390625z" fill-rule="nonzero"/></g><g filter="url(#shadowFilter-p.16)"><use xlink:href="#p.16" transform="matrix(1.0 0.0 0.0 1.0 0.0 2.0)"/></g><defs><filter id="shadowFilter-p.16" filterUnits="userSpaceOnUse"><feGaussianBlur in="SourceAlpha" stdDeviation="2.0" result="blur"/><feComponentTransfer in="blur" color-interpolation-filters="sRGB"><feFuncR type="linear" slope="0" intercept="0.0"/><feFuncG type="linear" slope="0" intercept="0.0"/><feFuncB type="linear" slope="0" intercept="0.0"/><feFuncA type="linear" slope="0.5" intercept="0"/></feComponentTransfer></filter></defs><g id="p.16"><path fill="#000000" fill-opacity="0.0" d="m329.25192 348.91602l0.881897 -63.24411" fill-rule="evenodd"/><path stroke="#ffffff" stroke-width="1.0" stroke-linejoin="round" stroke-linecap="butt" d="m329.25192 348.91602l0.7982483 -57.24466" fill-rule="evenodd"/><path fill="#ffffff" stroke="#ffffff" stroke-width="1.0" stroke-linecap="butt" d="m331.70172 291.69437l-1.5882874 -4.5606995l-1.7148438 4.5146484z" fill-rule="evenodd"/></g><g filter="url(#shadowFilter-p.17)"><use xlink:href="#p.17" transform="matrix(1.0 0.0 0.0 1.0 0.0 2.0)"/></g><defs><filter id="shadowFilter-p.17" filterUnits="userSpaceOnUse"><feGaussianBlur in="SourceAlpha" stdDeviation="2.0" result="blur"/><feComponentTransfer in="blur" color-interpolation-filters="sRGB"><feFuncR type="linear" slope="0" intercept="0.0"/><feFuncG type="linear" slope="0" intercept="0.0"/><feFuncB type="linear" slope="0" intercept="0.0"/><feFuncA type="linear" slope="0.5" intercept="0"/></feComponentTransfer></filter></defs><g id="p.17"><path fill="#000000" fill-opacity="0.0" d="m358.7154 349.48294l54.582703 -64.37796" fill-rule="evenodd"/><path stroke="#ffffff" stroke-width="1.0" stroke-linejoin="round" stroke-linecap="butt" d="m358.71542 349.48294l50.702515 -59.801483" fill-rule="evenodd"/><path fill="#ffffff" stroke="#ffffff" stroke-width="1.0" stroke-linecap="butt" d="m410.6778 290.74963l1.6748962 -4.5295715l-4.1946106 2.3932495z" fill-rule="evenodd"/></g><path fill="#000000" fill-opacity="0.0" d="m238.24297 349.48294l240.94487 0l0 58.236206l-240.94487 0z" fill-rule="evenodd"/><path fill="#f4cccc" d="m254.58672 369.65292q1.203125 0.328125 1.8281403 1.15625q0.625 0.8125 0.625 2.03125q0 1.71875 -1.1562653 2.703125q-1.15625 0.984375 -3.15625 0.984375q-1.21875 0 -2.328125 -0.40625q-1.109375 -0.40625 -1.875 -1.125q-0.296875 -0.265625 -0.296875 -0.625q0 -0.28125 0.140625 -0.46875q0.15625 -0.1875 0.375 -0.1875q0.25 0 0.515625 0.203125q0.859375 0.6875 1.671875 1.015625q0.828125 0.3125 1.78125 0.3125q1.375 0 2.09375 -0.625q0.71875 -0.640625 0.71875 -1.84375q0 -2.40625 -3.015625 -2.40625l-1.0 0q-0.296875 0 -0.46875 -0.1875q-0.171875 -0.203125 -0.171875 -0.453125q0 -0.265625 0.171875 -0.453125q0.171875 -0.1875 0.46875 -0.1875l0.703125 0q1.453125 0 2.234375 -0.640625q0.78125 -0.640625 0.78125 -1.859375q0 -1.0625 -0.640625 -1.625q-0.625 -0.578125 -1.78125 -0.578125q-0.875 0 -1.703125 0.328125q-0.8125 0.328125 -1.640625 1.0q-0.265625 0.203125 -0.515625 0.203125q-0.203125 0 -0.359375 -0.1875q-0.15625 -0.1875 -0.15625 -0.46875q0 -0.359375 0.3125 -0.625q0.75 -0.71875 1.84375 -1.125q1.09375 -0.40625 2.25 -0.40625q1.796875 0 2.859375 0.921875q1.0625153 0.90625 1.0468903 2.453125q-0.015625 1.109375 -0.59375 1.953125q-0.56251526 0.84375 -1.5625153 1.21875zm13.819565 6.875q-1.28125 0 -2.265625 -0.578125q-0.96875 -0.578125 -1.5 -1.640625q-0.53125 -1.0625 -0.53125 -2.453125q0 -1.40625 0.546875 -2.484375q0.546875 -1.078125 1.53125 -1.671875q1.0 -0.609375 2.28125 -0.609375q0.71875 0 1.40625 0.203125q0.703125 0.1875 1.234375 0.5625q0.328125 0.21875 0.46875 0.4375q0.140625 0.21875 0.140625 0.484375q0 0.25 -0.140625 0.421875q-0.140625 0.171875 -0.359375 0.171875q-0.140625 0 -0.296875 -0.078125q-0.140625 -0.078125 -0.25 -0.140625q-0.09375 -0.078125 -0.125 -0.09375q-0.484375 -0.328125 -0.921875 -0.515625q-0.4375 -0.1875 -1.078125 -0.1875q-1.359375 0 -2.125 0.9375q-0.75 0.921875 -0.75 2.5625q0 1.640625 0.75 2.53125q0.765625 0.890625 2.125 0.890625q0.640625 0 1.09375 -0.1875q0.453125 -0.1875 0.921875 -0.5q0.203125 -0.125 0.390625 -0.21875q0.1875 -0.09375 0.3125 -0.09375q0.21875 0 0.34375 0.171875q0.140625 0.15625 0.140625 0.421875q0 0.25 -0.125 0.453125q-0.125 0.1875 -0.484375 0.421875q-0.515625 0.359375 -1.265625 0.578125q-0.734375 0.203125 -1.46875 0.203125zm8.951965 0q-1.296875 0 -2.28125 -0.578125q-0.96875 -0.578125 -1.5 -1.640625q-0.53125 -1.078125 -0.53125 -2.5q0 -1.40625 0.53125 -2.484375q0.53125 -1.078125 1.5 -1.65625q0.984375 -0.578125 2.28125 -0.578125q1.28125 0 2.265625 0.578125q1.0 0.578125 1.53125 1.65625q0.53125 1.078125 0.53125 2.484375q0 1.421875 -0.53125 2.5q-0.53125 1.0625 -1.53125 1.640625q-0.984375 0.578125 -2.265625 0.578125zm0 -1.25q1.34375 0 2.0625 -0.875q0.71875 -0.890625 0.71875 -2.59375q0 -1.65625 -0.734375 -2.5625q-0.71875 -0.90625 -2.046875 -0.90625q-1.328125 0 -2.0625 0.90625q-0.71875 0.90625 -0.71875 2.5625q0 1.6875 0.71875 2.578125q0.71875 0.890625 2.0625 0.890625zm11.151093 -8.1875q3.265625 0 3.265625 3.609375l0 5.046875q0 0.359375 -0.203125 0.5625q-0.1875 0.1875 -0.546875 0.1875q-0.34375 0 -0.5625 -0.1875q-0.203125 -0.203125 -0.203125 -0.5625l0 -4.953125q0 -1.28125 -0.5 -1.859375q-0.484375 -0.578125 -1.5625 -0.578125q-1.25 0 -2.0 0.765625q-0.75 0.765625 -0.75 2.078125l0 4.546875q0 0.359375 -0.203125 0.5625q-0.1875 0.1875 -0.53125 0.1875q-0.359375 0 -0.5625 -0.1875q-0.203125 -0.203125 -0.203125 -0.5625l0 -7.875q0 -0.328125 0.203125 -0.53125q0.203125 -0.203125 0.5625 -0.203125q0.328125 0 0.515625 0.203125q0.203125 0.203125 0.203125 0.515625l0 0.953125q0.453125 -0.84375 1.25 -1.28125q0.796875 -0.4375 1.828125 -0.4375zm10.596771 0q3.265625 0 3.265625 3.609375l0 5.046875q0 0.359375 -0.203125 0.5625q-0.1875 0.1875 -0.546875 0.1875q-0.34375 0 -0.5625 -0.1875q-0.203125 -0.203125 -0.203125 -0.5625l0 -4.953125q0 -1.28125 -0.5 -1.859375q-0.484375 -0.578125 -1.5625 -0.578125q-1.25 0 -2.0 0.765625q-0.75 0.765625 -0.75 2.078125l0 4.546875q0 0.359375 -0.203125 0.5625q-0.1875 0.1875 -0.53125 0.1875q-0.359375 0 -0.5625 -0.1875q-0.203125 -0.203125 -0.203125 -0.5625l0 -7.875q0 -0.328125 0.203125 -0.53125q0.203125 -0.203125 0.5625 -0.203125q0.328125 0 0.515625 0.203125q0.203125 0.203125 0.203125 0.515625l0 0.953125q0.453125 -0.84375 1.25 -1.28125q0.796875 -0.4375 1.828125 -0.4375zm13.065491 7.203125q0.203125 0 0.34375 0.171875q0.15625 0.171875 0.15625 0.421875q0 0.46875 -0.65625 0.859375q-0.671875 0.390625 -1.421875 0.59375q-0.734375 0.1875 -1.453125 0.1875q-2.109375 0 -3.328125 -1.25q-1.21875 -1.25 -1.21875 -3.453125q0 -1.390625 0.53125 -2.453125q0.546875 -1.078125 1.53125 -1.671875q0.984375 -0.609375 2.234375 -0.609375q1.765625 0 2.8125 1.15625q1.046875 1.15625 1.046875 3.140625q0 0.375 -0.15625 0.546875q-0.140625 0.15625 -0.484375 0.15625l-6.0 0q0.15625 3.21875 3.03125 3.21875q0.734375 0 1.25 -0.203125q0.53125 -0.203125 1.125 -0.53125q0.484375 -0.28125 0.65625 -0.28125zm-3.265625 -6.03125q-1.203125 0 -1.921875 0.75q-0.71875 0.75 -0.84375 2.109375l5.28125 0q-0.03125 -1.375 -0.6875 -2.109375q-0.65625 -0.75 -1.828125 -0.75zm9.816223 8.265625q-1.28125 0 -2.265625 -0.578125q-0.96875 -0.578125 -1.5 -1.640625q-0.53125 -1.0625 -0.53125 -2.453125q0 -1.40625 0.546875 -2.484375q0.546875 -1.078125 1.53125 -1.671875q1.0 -0.609375 2.28125 -0.609375q0.71875 0 1.40625 0.203125q0.703125 0.1875 1.234375 0.5625q0.328125 0.21875 0.46875 0.4375q0.140625 0.21875 0.140625 0.484375q0 0.25 -0.140625 0.421875q-0.140625 0.171875 -0.359375 0.171875q-0.140625 0 -0.296875 -0.078125q-0.140625 -0.078125 -0.25 -0.140625q-0.09375 -0.078125 -0.125 -0.09375q-0.484375 -0.328125 -0.921875 -0.515625q-0.4375 -0.1875 -1.078125 -0.1875q-1.359375 0 -2.125 0.9375q-0.75 0.921875 -0.75 2.5625q0 1.640625 0.75 2.53125q0.765625 0.890625 2.125 0.890625q0.640625 0 1.09375 -0.1875q0.453125 -0.1875 0.921875 -0.5q0.203125 -0.125 0.390625 -0.21875q0.1875 -0.09375 0.3125 -0.09375q0.21875 0 0.34375 0.171875q0.140625 0.15625 0.140625 0.421875q0 0.25 -0.125 0.453125q-0.125 0.1875 -0.484375 0.421875q-0.515625 0.359375 -1.265625 0.578125q-0.734375 0.203125 -1.46875 0.203125zm9.392517 -1.21875q0.65625 0.046875 0.65625 0.59375q0 0.3125 -0.234375 0.46875q-0.234375 0.15625 -0.703125 0.125l-0.5 -0.03125q-1.484375 -0.125 -2.203125 -0.90625q-0.703125 -0.78125 -0.703125 -2.359375l0 -4.6875l-1.25 0q-0.328125 0 -0.5 -0.15625q-0.171875 -0.15625 -0.171875 -0.421875q0 -0.28125 0.171875 -0.4375q0.171875 -0.171875 0.5 -0.171875l1.25 0l0 -2.109375q0 -0.359375 0.203125 -0.546875q0.203125 -0.203125 0.5625 -0.203125q0.328125 0 0.53125 0.203125q0.21875 0.1875 0.21875 0.546875l0 2.109375l2.0625 0q0.296875 0 0.46875 0.171875q0.1875 0.15625 0.1875 0.4375q0 0.265625 -0.1875 0.421875q-0.171875 0.15625 -0.46875 0.15625l-2.0625 0l0 4.75q0 1.03125 0.40625 1.5q0.421875 0.453125 1.265625 0.5l0.5 0.046875zm9.186859 -1.015625q0.203125 0 0.34375 0.171875q0.15625 0.171875 0.15625 0.421875q0 0.46875 -0.65625 0.859375q-0.671875 0.390625 -1.421875 0.59375q-0.734375 0.1875 -1.453125 0.1875q-2.109375 0 -3.328125 -1.25q-1.21875 -1.25 -1.21875 -3.453125q0 -1.390625 0.53125 -2.453125q0.546875 -1.078125 1.53125 -1.671875q0.984375 -0.609375 2.234375 -0.609375q1.765625 0 2.8125 1.15625q1.046875 1.15625 1.046875 3.140625q0 0.375 -0.15625 0.546875q-0.140625 0.15625 -0.484375 0.15625l-6.0 0q0.15625 3.21875 3.03125 3.21875q0.734375 0 1.25 -0.203125q0.53125 -0.203125 1.125 -0.53125q0.484375 -0.28125 0.65625 -0.28125zm-3.265625 -6.03125q-1.203125 0 -1.921875 0.75q-0.71875 0.75 -0.84375 2.109375l5.28125 0q-0.03125 -1.375 -0.6875 -2.109375q-0.65625 -0.75 -1.828125 -0.75zm13.347473 -5.109375q0.359375 0 0.5625 0.21875q0.203125 0.203125 0.203125 0.515625l0 11.859375q0 0.34375 -0.203125 0.546875q-0.203125 0.203125 -0.5625 0.203125q-0.34375 0 -0.546875 -0.203125q-0.1875 -0.203125 -0.1875 -0.546875l0 -1.0q-0.421875 0.859375 -1.21875 1.328125q-0.78125 0.453125 -1.84375 0.453125q-1.203125 0 -2.125 -0.59375q-0.90625 -0.59375 -1.40625 -1.65625q-0.5 -1.078125 -0.5 -2.5q0 -1.40625 0.5 -2.46875q0.5 -1.0625 1.40625 -1.640625q0.921875 -0.578125 2.125 -0.578125q1.0625 0 1.84375 0.46875q0.796875 0.46875 1.21875 1.328125l0 -5.0q0 -0.34375 0.1875 -0.53125q0.203125 -0.203125 0.546875 -0.203125zm-3.5 12.125q1.328125 0 2.046875 -0.890625q0.71875 -0.90625 0.71875 -2.578125q0 -1.65625 -0.71875 -2.546875q-0.71875 -0.90625 -2.046875 -0.90625q-1.328125 0 -2.0625 0.90625q-0.734375 0.890625 -0.734375 2.515625q0 1.65625 0.734375 2.578125q0.734375 0.921875 2.0625 0.921875zm15.640015 1.25q-1.28125 0 -2.265625 -0.578125q-0.96875 -0.578125 -1.5 -1.640625q-0.53125 -1.0625 -0.53125 -2.453125q0 -1.40625 0.546875 -2.484375q0.546875 -1.078125 1.53125 -1.671875q1.0 -0.609375 2.28125 -0.609375q0.71875 0 1.40625 0.203125q0.703125 0.1875 1.234375 0.5625q0.328125 0.21875 0.46875 0.4375q0.140625 0.21875 0.140625 0.484375q0 0.25 -0.140625 0.421875q-0.140625 0.171875 -0.359375 0.171875q-0.140625 0 -0.296875 -0.078125q-0.140625 -0.078125 -0.25 -0.140625q-0.09375 -0.078125 -0.125 -0.09375q-0.484375 -0.328125 -0.921875 -0.515625q-0.4375 -0.1875 -1.078125 -0.1875q-1.359375 0 -2.125 0.9375q-0.75 0.921875 -0.75 2.5625q0 1.640625 0.75 2.53125q0.765625 0.890625 2.125 0.890625q0.640625 0 1.09375 -0.1875q0.453125 -0.1875 0.921875 -0.5q0.203125 -0.125 0.390625 -0.21875q0.1875 -0.09375 0.3125 -0.09375q0.21875 0 0.34375 0.171875q0.140625 0.15625 0.140625 0.421875q0 0.25 -0.125 0.453125q-0.125 0.1875 -0.484375 0.421875q-0.515625 0.359375 -1.265625 0.578125q-0.734375 0.203125 -1.46875 0.203125zm8.951965 0q-1.296875 0 -2.28125 -0.578125q-0.96875 -0.578125 -1.5 -1.640625q-0.53125 -1.078125 -0.53125 -2.5q0 -1.40625 0.53125 -2.484375q0.53125 -1.078125 1.5 -1.65625q0.984375 -0.578125 2.28125 -0.578125q1.28125 0 2.265625 0.578125q1.0 0.578125 1.53125 1.65625q0.53125 1.078125 0.53125 2.484375q0 1.421875 -0.53125 2.5q-0.53125 1.0625 -1.53125 1.640625q-0.984375 0.578125 -2.265625 0.578125zm0 -1.25q1.34375 0 2.0625 -0.875q0.71875 -0.890625 0.71875 -2.59375q0 -1.65625 -0.734375 -2.5625q-0.71875 -0.90625 -2.046875 -0.90625q-1.328125 0 -2.0625 0.90625q-0.71875 0.90625 -0.71875 2.5625q0 1.6875 0.71875 2.578125q0.71875 0.890625 2.0625 0.890625zm16.697968 -8.1875q3.015625 0 3.015625 3.609375l0 5.046875q0 0.359375 -0.203125 0.5625q-0.203125 0.1875 -0.546875 0.1875q-0.328125 0 -0.546875 -0.1875q-0.21875 -0.203125 -0.21875 -0.5625l0 -5.015625q0 -1.25 -0.453125 -1.8125q-0.4375 -0.5625 -1.390625 -0.5625q-1.140625 0 -1.796875 0.765625q-0.640625 0.765625 -0.640625 2.078125l0 4.546875q0 0.359375 -0.21875 0.5625q-0.21875 0.1875 -0.546875 0.1875q-0.34375 0 -0.546875 -0.1875q-0.203125 -0.203125 -0.203125 -0.5625l0 -5.015625q0 -1.25 -0.453125 -1.8125q-0.4375 -0.5625 -1.40625 -0.5625q-1.125 0 -1.796875 0.765625q-0.65625 0.765625 -0.65625 2.078125l0 4.546875q0 0.359375 -0.203125 0.5625q-0.203125 0.1875 -0.53125 0.1875q-0.34375 0 -0.5625 -0.1875q-0.203125 -0.203125 -0.203125 -0.5625l0 -7.875q0 -0.328125 0.203125 -0.53125q0.21875 -0.203125 0.5625 -0.203125q0.3125 0 0.515625 0.203125q0.203125 0.1875 0.203125 0.515625l0 0.890625q0.40625 -0.796875 1.125 -1.21875q0.734375 -0.4375 1.6875 -0.4375q2.125 0 2.78125 1.796875q0.390625 -0.828125 1.1875 -1.3125q0.8125 -0.484375 1.84375 -0.484375zm10.348236 0q1.1875 0 2.109375 0.609375q0.921875 0.59375 1.421875 1.671875q0.5 1.0625 0.5 2.484375q0 1.40625 -0.5 2.46875q-0.5 1.046875 -1.40625 1.625q-0.90625 0.578125 -2.125 0.578125q-1.0625 0 -1.859375 -0.453125q-0.78125 -0.46875 -1.203125 -1.328125l0 4.375q0 0.34375 -0.203125 0.53125q-0.1875 0.203125 -0.53125 0.203125q-0.359375 0 -0.5625 -0.203125q-0.203125 -0.203125 -0.203125 -0.53125l0 -11.25q0 -0.328125 0.203125 -0.53125q0.203125 -0.203125 0.5625 -0.203125q0.34375 0 0.53125 0.203125q0.203125 0.203125 0.203125 0.53125l0 1.015625q0.421875 -0.859375 1.203125 -1.328125q0.796875 -0.46875 1.859375 -0.46875zm-0.296875 8.1875q1.328125 0 2.046875 -0.890625q0.734375 -0.890625 0.734375 -2.53125q0 -1.640625 -0.734375 -2.5625q-0.71875 -0.9375 -2.046875 -0.9375q-1.328125 0 -2.046875 0.90625q-0.71875 0.890625 -0.71875 2.546875q0 1.671875 0.71875 2.578125q0.71875 0.890625 2.046875 0.890625zm10.357941 1.25q-1.296875 0 -2.28125 -0.578125q-0.96875 -0.578125 -1.5 -1.640625q-0.53125 -1.078125 -0.53125 -2.5q0 -1.40625 0.53125 -2.484375q0.53125 -1.078125 1.5 -1.65625q0.984375 -0.578125 2.28125 -0.578125q1.28125 0 2.265625 0.578125q1.0 0.578125 1.53125 1.65625q0.53125 1.078125 0.53125 2.484375q0 1.421875 -0.53125 2.5q-0.53125 1.0625 -1.53125 1.640625q-0.984375 0.578125 -2.265625 0.578125zm0 -1.25q1.34375 0 2.0625 -0.875q0.71875 -0.890625 0.71875 -2.59375q0 -1.65625 -0.734375 -2.5625q-0.71875 -0.90625 -2.046875 -0.90625q-1.328125 0 -2.0625 0.90625q-0.71875 0.90625 -0.71875 2.5625q0 1.6875 0.71875 2.578125q0.71875 0.890625 2.0625 0.890625zm11.151093 -8.1875q3.265625 0 3.265625 3.609375l0 5.046875q0 0.359375 -0.203125 0.5625q-0.1875 0.1875 -0.546875 0.1875q-0.34375 0 -0.5625 -0.1875q-0.203125 -0.203125 -0.203125 -0.5625l0 -4.953125q0 -1.28125 -0.5 -1.859375q-0.484375 -0.578125 -1.5625 -0.578125q-1.25 0 -2.0 0.765625q-0.75 0.765625 -0.75 2.078125l0 4.546875q0 0.359375 -0.203125 0.5625q-0.1875 0.1875 -0.53125 0.1875q-0.359375 0 -0.5625 -0.1875q-0.203125 -0.203125 -0.203125 -0.5625l0 -7.875q0 -0.328125 0.203125 -0.53125q0.203125 -0.203125 0.5625 -0.203125q0.328125 0 0.515625 0.203125q0.203125 0.203125 0.203125 0.515625l0 0.953125q0.453125 -0.84375 1.25 -1.28125q0.796875 -0.4375 1.828125 -0.4375zm13.065521 7.203125q0.203125 0 0.34375 0.171875q0.15625 0.171875 0.15625 0.421875q0 0.46875 -0.65625 0.859375q-0.671875 0.390625 -1.421875 0.59375q-0.734375 0.1875 -1.453125 0.1875q-2.109375 0 -3.328125 -1.25q-1.21875 -1.25 -1.21875 -3.453125q0 -1.390625 0.53125 -2.453125q0.546875 -1.078125 1.53125 -1.671875q0.984375 -0.609375 2.234375 -0.609375q1.765625 0 2.8125 1.15625q1.046875 1.15625 1.046875 3.140625q0 0.375 -0.15625 0.546875q-0.140625 0.15625 -0.484375 0.15625l-6.0 0q0.15625 3.21875 3.03125 3.21875q0.734375 0 1.25 -0.203125q0.53125 -0.203125 1.125 -0.53125q0.484375 -0.28125 0.65625 -0.28125zm-3.265625 -6.03125q-1.203125 0 -1.921875 0.75q-0.71875 0.75 -0.84375 2.109375l5.28125 0q-0.03125 -1.375 -0.6875 -2.109375q-0.65625 -0.75 -1.828125 -0.75zm10.628723 -1.171875q3.265625 0 3.265625 3.609375l0 5.046875q0 0.359375 -0.203125 0.5625q-0.1875 0.1875 -0.546875 0.1875q-0.34375 0 -0.5625 -0.1875q-0.203125 -0.203125 -0.203125 -0.5625l0 -4.953125q0 -1.28125 -0.5 -1.859375q-0.484375 -0.578125 -1.5625 -0.578125q-1.25 0 -2.0 0.765625q-0.75 0.765625 -0.75 2.078125l0 4.546875q0 0.359375 -0.203125 0.5625q-0.1875 0.1875 -0.53125 0.1875q-0.359375 0 -0.5625 -0.1875q-0.203125 -0.203125 -0.203125 -0.5625l0 -7.875q0 -0.328125 0.203125 -0.53125q0.203125 -0.203125 0.5625 -0.203125q0.328125 0 0.515625 0.203125q0.203125 0.203125 0.203125 0.515625l0 0.953125q0.453125 -0.84375 1.25 -1.28125q0.796875 -0.4375 1.828125 -0.4375zm10.221741 8.21875q0.65625 0.046875 0.65625 0.59375q0 0.3125 -0.234375 0.46875q-0.234375 0.15625 -0.703125 0.125l-0.5 -0.03125q-1.484375 -0.125 -2.203125 -0.90625q-0.703125 -0.78125 -0.703125 -2.359375l0 -4.6875l-1.25 0q-0.328125 0 -0.5 -0.15625q-0.171875 -0.15625 -0.171875 -0.421875q0 -0.28125 0.171875 -0.4375q0.171875 -0.171875 0.5 -0.171875l1.25 0l0 -2.109375q0 -0.359375 0.203125 -0.546875q0.203125 -0.203125 0.5625 -0.203125q0.328125 0 0.53125 0.203125q0.21875 0.1875 0.21875 0.546875l0 2.109375l2.0625 0q0.296875 0 0.46875 0.171875q0.1875 0.15625 0.1875 0.4375q0 0.265625 -0.1875 0.421875q-0.171875 0.15625 -0.46875 0.15625l-2.0625 0l0 4.75q0 1.03125 0.40625 1.5q0.421875 0.453125 1.265625 0.5l0.5 0.046875zm5.2025146 1.21875q-0.859375 0 -1.640625 -0.203125q-0.765625 -0.203125 -1.359375 -0.578125q-0.328125 -0.21875 -0.46875 -0.40625q-0.140625 -0.203125 -0.140625 -0.484375q0 -0.25 0.140625 -0.40625q0.140625 -0.15625 0.359375 -0.15625q0.21875 0 0.65625 0.28125q0.5625 0.328125 1.109375 0.53125q0.546875 0.203125 1.375 0.203125q1.0 0 1.5625 -0.359375q0.5625 -0.359375 0.5625 -1.03125q0 -0.40625 -0.21875 -0.65625q-0.203125 -0.25 -0.703125 -0.4375q-0.5 -0.203125 -1.46875 -0.421875q-1.640625 -0.34375 -2.359375 -0.9375q-0.703125 -0.609375 -0.703125 -1.625q0 -0.8125 0.4375 -1.421875q0.453125 -0.609375 1.25 -0.96875q0.796875 -0.359375 1.796875 -0.359375q0.734375 0 1.40625 0.203125q0.6875 0.1875 1.203125 0.546875q0.640625 0.453125 0.640625 0.9375q0 0.234375 -0.15625 0.40625q-0.140625 0.171875 -0.34375 0.171875q-0.234375 0 -0.671875 -0.328125q-0.53125 -0.328125 -1.0 -0.515625q-0.453125 -0.1875 -1.140625 -0.1875q-0.890625 0 -1.421875 0.390625q-0.53125 0.390625 -0.53125 1.046875q0 0.40625 0.1875 0.65625q0.203125 0.25 0.65625 0.453125q0.46875 0.203125 1.328125 0.375q1.265625 0.28125 1.96875 0.625q0.703125 0.328125 1.0 0.8125q0.296875 0.484375 0.296875 1.234375q0 1.171875 -1.0 1.890625q-0.984375 0.71875 -2.609375 0.71875z" fill-rule="nonzero"/><g filter="url(#shadowFilter-p.18)"><use xlink:href="#p.18" transform="matrix(1.0 0.0 0.0 1.0 0.0 2.0)"/></g><defs><filter id="shadowFilter-p.18" filterUnits="userSpaceOnUse"><feGaussianBlur in="SourceAlpha" stdDeviation="2.0" result="blur"/><feComponentTransfer in="blur" color-interpolation-filters="sRGB"><feFuncR type="linear" slope="0" intercept="0.0"/><feFuncG type="linear" slope="0" intercept="0.0"/><feFuncB type="linear" slope="0" intercept="0.0"/><feFuncA type="linear" slope="0.5" intercept="0"/></feComponentTransfer></filter></defs><g id="p.18"><path fill="#000000" fill-opacity="0.0" d="m299.4672 352.51968l-44.12599 -67.68503" fill-rule="evenodd"/><path stroke="#ffffff" stroke-width="1.0" stroke-linejoin="round" stroke-linecap="butt" d="m299.4672 352.51968l-40.849213 -62.658813" fill-rule="evenodd"/><path fill="#ffffff" stroke="#ffffff" stroke-width="1.0" stroke-linecap="butt" d="m260.00162 288.9588l-3.86203 -2.8995056l1.094696 4.7036133z" fill-rule="evenodd"/></g></g></svg>