<svg version="1.1" viewBox="0.0 0.0 689.9212598425197 254.35958005249344" fill="none" stroke="none" stroke-linecap="square" stroke-miterlimit="10" xmlns:xlink="http://www.w3.org/1999/xlink" xmlns="http://www.w3.org/2000/svg"><clipPath id="p.0"><path d="m0 0l689.92126 0l0 254.35957l-689.92126 0l0 -254.35957z" clip-rule="nonzero"/></clipPath><g clip-path="url(#p.0)"><path fill="#000000" fill-opacity="0.0" d="m0 0l689.92126 0l0 254.35957l-689.92126 0z" fill-rule="evenodd"/><g filter="url(#shadowFilter-p.1)"><use xlink:href="#p.1" transform="matrix(1.0 0.0 0.0 1.0 0.0 2.0)"/></g><defs><filter id="shadowFilter-p.1" filterUnits="userSpaceOnUse"><feGaussianBlur in="SourceAlpha" stdDeviation="2.0" result="blur"/><feComponentTransfer in="blur" color-interpolation-filters="sRGB"><feFuncR type="linear" slope="0" intercept="0.0"/><feFuncG type="linear" slope="0" intercept="0.0"/><feFuncB type="linear" slope="0" intercept="0.0"/><feFuncA type="linear" slope="0.5" intercept="0"/></feComponentTransfer></filter></defs><g id="p.1"><path fill="#cfe2f3" d="m14.771646 46.013012l0 0c0 -9.480164 7.685191 -17.165354 17.165356 -17.165354l0 0c4.552536 0 8.91861 1.8084869 12.137737 5.0276165c3.2191277 3.2191277 5.0276184 7.5852013 5.0276184 12.137737l0 0c0 9.480164 -7.685192 17.165356 -17.165356 17.165356l0 0c-9.480164 0 -17.165356 -7.685192 -17.165356 -17.165356z" fill-rule="evenodd"/><path stroke="#ffffff" stroke-width="1.0" stroke-linejoin="round" stroke-linecap="butt" d="m14.771646 46.013012l0 0c0 -9.480164 7.685191 -17.165354 17.165356 -17.165354l0 0c4.552536 0 8.91861 1.8084869 12.137737 5.0276165c3.2191277 3.2191277 5.0276184 7.5852013 5.0276184 12.137737l0 0c0 9.480164 -7.685192 17.165356 -17.165356 17.165356l0 0c-9.480164 0 -17.165356 -7.685192 -17.165356 -17.165356z" fill-rule="evenodd"/><path fill="#000000" d="m36.252388 50.07739q0.25 0 0.390625 0.140625q0.15625 0.125 0.15625 0.359375q0 0.515625 -0.546875 0.515625l-5.750002 0q-0.25 0 -0.421875 -0.15625q-0.15625 -0.15625 -0.15625 -0.375q0 -0.28125 0.203125 -0.484375l3.531252 -3.875q0.734375 -0.828125 1.0625 -1.46875q0.34375 -0.65625 0.34375 -1.328125q0 -0.84375 -0.5 -1.296875q-0.484375 -0.453125 -1.390625 -0.453125q-0.703125 0 -1.3437519 0.265625q-0.640625 0.25 -1.28125 0.78125q-0.21875 0.171875 -0.421875 0.171875q-0.15625 0 -0.28125 -0.15625q-0.109375 -0.15625 -0.109375 -0.375q0 -0.3125 0.234375 -0.5q0.59375 -0.5625 1.453125 -0.875q0.8750019 -0.328125 1.7812519 -0.328125q1.390625 0 2.21875 0.734375q0.828125 0.734375 0.828125 1.984375q0 0.890625 -0.40625 1.71875q-0.390625 0.8125 -1.3125 1.828125l-2.937502 3.171875l4.656252 0z" fill-rule="nonzero"/></g><g filter="url(#shadowFilter-p.2)"><use xlink:href="#p.2" transform="matrix(1.0 0.0 0.0 1.0 0.0 2.0)"/></g><defs><filter id="shadowFilter-p.2" filterUnits="userSpaceOnUse"><feGaussianBlur in="SourceAlpha" stdDeviation="2.0" result="blur"/><feComponentTransfer in="blur" color-interpolation-filters="sRGB"><feFuncR type="linear" slope="0" intercept="0.0"/><feFuncG type="linear" slope="0" intercept="0.0"/><feFuncB type="linear" slope="0" intercept="0.0"/><feFuncA type="linear" slope="0.5" intercept="0"/></feComponentTransfer></filter></defs><g id="p.2"><path fill="#cfe2f3" d="m14.771646 115.15396l0 0c0 -9.480164 7.685191 -17.16536 17.165356 -17.16536l0 0c4.552536 0 8.91861 1.8084869 12.137737 5.0276184c3.2191277 3.2191315 5.0276184 7.585205 5.0276184 12.137741l0 0c0 9.480164 -7.685192 17.165344 -17.165356 17.165344l0 0c-9.480164 0 -17.165356 -7.6851807 -17.165356 -17.165344z" fill-rule="evenodd"/><path stroke="#ffffff" stroke-width="1.0" stroke-linejoin="round" stroke-linecap="butt" d="m14.771646 115.15396l0 0c0 -9.480164 7.685191 -17.16536 17.165356 -17.16536l0 0c4.552536 0 8.91861 1.8084869 12.137737 5.0276184c3.2191277 3.2191315 5.0276184 7.585205 5.0276184 12.137741l0 0c0 9.480164 -7.685192 17.165344 -17.165356 17.165344l0 0c-9.480164 0 -17.165356 -7.6851807 -17.165356 -17.165344z" fill-rule="evenodd"/><path fill="#000000" d="m36.002388 119.21833q0.265625 0 0.40625 0.140625q0.15625 0.125 0.15625 0.359375q0 0.25 -0.140625 0.390625q-0.140625 0.125 -0.421875 0.125l-4.843752 0q-0.28125 0 -0.421875 -0.125q-0.140625 -0.140625 -0.140625 -0.390625q0 -0.234375 0.140625 -0.359375q0.15625 -0.140625 0.421875 -0.140625l1.8125019 0l0 -7.84375l-1.5937519 1.03125q-0.109375 0.078125 -0.234375 0.078125q-0.203125 0 -0.359375 -0.1875q-0.15625 -0.203125 -0.15625 -0.421875q0 -0.296875 0.234375 -0.4375l2.234377 -1.453125q0.25 -0.15625 0.515625 -0.15625q0.25 0 0.40625 0.171875q0.15625 0.15625 0.15625 0.4375l0 8.78125l1.828125 0z" fill-rule="nonzero"/></g><g filter="url(#shadowFilter-p.3)"><use xlink:href="#p.3" transform="matrix(1.0 0.0 0.0 1.0 0.0 2.0)"/></g><defs><filter id="shadowFilter-p.3" filterUnits="userSpaceOnUse"><feGaussianBlur in="SourceAlpha" stdDeviation="2.0" result="blur"/><feComponentTransfer in="blur" color-interpolation-filters="sRGB"><feFuncR type="linear" slope="0" intercept="0.0"/><feFuncG type="linear" slope="0" intercept="0.0"/><feFuncB type="linear" slope="0" intercept="0.0"/><feFuncA type="linear" slope="0.5" intercept="0"/></feComponentTransfer></filter></defs><g id="p.3"><path fill="#cfe2f3" d="m59.22849 114.92497l0 0c0 -9.480164 7.685192 -17.165352 17.165356 -17.165352l0 0c4.552536 0 8.91861 1.8084869 12.137733 5.027611c3.2191315 3.2191315 5.0276184 7.585205 5.0276184 12.137741l0 0c0 9.480164 -7.6851883 17.16536 -17.165352 17.16536l0 0c-9.480164 0 -17.165356 -7.685196 -17.165356 -17.16536z" fill-rule="evenodd"/><path stroke="#ffffff" stroke-width="1.0" stroke-linejoin="round" stroke-linecap="butt" d="m59.22849 114.92497l0 0c0 -9.480164 7.685192 -17.165352 17.165356 -17.165352l0 0c4.552536 0 8.91861 1.8084869 12.137733 5.027611c3.2191315 3.2191315 5.0276184 7.585205 5.0276184 12.137741l0 0c0 9.480164 -7.6851883 17.16536 -17.165352 17.16536l0 0c-9.480164 0 -17.165356 -7.685196 -17.165356 -17.16536z" fill-rule="evenodd"/><path fill="#000000" d="m79.03735 114.692474q0.9375 0.265625 1.421875 0.921875q0.484375 0.640625 0.484375 1.59375q0 1.34375 -0.90625 2.125q-0.90625 0.78125 -2.46875 0.78125q-0.953125 0 -1.828125 -0.328125q-0.875 -0.328125 -1.46875 -0.875q-0.234375 -0.21875 -0.234375 -0.5q0 -0.21875 0.109375 -0.359375q0.125 -0.15625 0.28125 -0.15625q0.203125 0 0.40625 0.15625q0.671875 0.546875 1.3125 0.796875q0.65625 0.25 1.40625 0.25q1.078125 0 1.640625 -0.5q0.5625 -0.5 0.5625 -1.4375q0 -1.890625 -2.359375 -1.890625l-0.78125 0q-0.234375 0 -0.375 -0.15625q-0.140625 -0.15625 -0.140625 -0.359375q0 -0.203125 0.140625 -0.34375q0.140625 -0.15625 0.375 -0.15625l0.546875 0q1.140625 0 1.75 -0.5q0.609375 -0.5 0.609375 -1.453125q0 -0.84375 -0.5 -1.28125q-0.484375 -0.453125 -1.390625 -0.453125q-0.703125 0 -1.34375 0.265625q-0.640625 0.25 -1.28125 0.78125q-0.21875 0.15625 -0.421875 0.15625q-0.15625 0 -0.28125 -0.140625q-0.109375 -0.15625 -0.109375 -0.375q0 -0.28125 0.234375 -0.5q0.59375 -0.5625 1.453125 -0.875q0.859375 -0.328125 1.765625 -0.328125q1.40625 0 2.234375 0.71875q0.84375 0.71875 0.828125 1.9375q0 0.875 -0.453125 1.546875q-0.453125 0.65625 -1.21875 0.9375z" fill-rule="nonzero"/></g><g filter="url(#shadowFilter-p.4)"><use xlink:href="#p.4" transform="matrix(1.0 0.0 0.0 1.0 0.0 2.0)"/></g><defs><filter id="shadowFilter-p.4" filterUnits="userSpaceOnUse"><feGaussianBlur in="SourceAlpha" stdDeviation="2.0" result="blur"/><feComponentTransfer in="blur" color-interpolation-filters="sRGB"><feFuncR type="linear" slope="0" intercept="0.0"/><feFuncG type="linear" slope="0" intercept="0.0"/><feFuncB type="linear" slope="0" intercept="0.0"/><feFuncA type="linear" slope="0.5" intercept="0"/></feComponentTransfer></filter></defs><g id="p.4"><path fill="#cfe2f3" d="m97.714806 46.25256l0 0c0 -9.480164 7.685196 -17.165354 17.16536 -17.165354l0 0c4.5525284 0 8.91861 1.8084869 12.137733 5.0276165c3.2191315 3.2191277 5.0276184 7.5852013 5.0276184 12.137737l0 0c0 9.480164 -7.6851883 17.165356 -17.165352 17.165356l0 0c-9.480164 0 -17.16536 -7.685192 -17.16536 -17.165356z" fill-rule="evenodd"/><path stroke="#ffffff" stroke-width="1.0" stroke-linejoin="round" stroke-linecap="butt" d="m97.714806 46.25256l0 0c0 -9.480164 7.685196 -17.165354 17.16536 -17.165354l0 0c4.5525284 0 8.91861 1.8084869 12.137733 5.0276165c3.2191315 3.2191277 5.0276184 7.5852013 5.0276184 12.137737l0 0c0 9.480164 -7.6851883 17.165356 -17.165352 17.165356l0 0c-9.480164 0 -17.16536 -7.685192 -17.16536 -17.165356z" fill-rule="evenodd"/><path fill="#000000" d="m119.554924 48.098186q0.265625 0 0.40625 0.140625q0.15625 0.140625 0.15625 0.359375q0 0.484375 -0.5625 0.484375l-1.09375 0l0 1.703125q0 0.296875 -0.171875 0.46875q-0.171875 0.15625 -0.4375 0.15625q-0.265625 0 -0.421875 -0.15625q-0.15625 -0.171875 -0.15625 -0.46875l0 -1.703125l-4.34375 0q-0.265625 0 -0.421875 -0.140625q-0.140625 -0.140625 -0.140625 -0.359375q0 -0.203125 0.171875 -0.453125l4.78125 -6.9375q0.21875 -0.265625 0.53125 -0.265625q0.25 0 0.421875 0.171875q0.1875 0.15625 0.1875 0.4375l0 6.5625l1.09375 0zm-5.8125 0l3.53125 0l0 -5.09375l-3.53125 5.09375z" fill-rule="nonzero"/></g><g filter="url(#shadowFilter-p.5)"><use xlink:href="#p.5" transform="matrix(1.0 0.0 0.0 1.0 0.0 2.0)"/></g><defs><filter id="shadowFilter-p.5" filterUnits="userSpaceOnUse"><feGaussianBlur in="SourceAlpha" stdDeviation="2.0" result="blur"/><feComponentTransfer in="blur" color-interpolation-filters="sRGB"><feFuncR type="linear" slope="0" intercept="0.0"/><feFuncG type="linear" slope="0" intercept="0.0"/><feFuncB type="linear" slope="0" intercept="0.0"/><feFuncA type="linear" slope="0.5" intercept="0"/></feComponentTransfer></filter></defs><g id="p.5"><path fill="#cfe2f3" d="m300.44193 47.73873l0 0c0 -9.480164 7.685211 -17.165356 17.165375 -17.165356l0 0c4.5525208 0 8.91861 1.8084869 12.137726 5.0276184c3.2191162 3.2191277 5.0276184 7.5852013 5.0276184 12.137737l0 0c0 9.480164 -7.6851807 17.165352 -17.165344 17.165352l0 0c-9.480164 0 -17.165375 -7.6851883 -17.165375 -17.165352z" fill-rule="evenodd"/><path stroke="#ffffff" stroke-width="1.0" stroke-linejoin="round" stroke-linecap="butt" d="m300.44193 47.73873l0 0c0 -9.480164 7.685211 -17.165356 17.165375 -17.165356l0 0c4.5525208 0 8.91861 1.8084869 12.137726 5.0276184c3.2191162 3.2191277 5.0276184 7.5852013 5.0276184 12.137737l0 0c0 9.480164 -7.6851807 17.165352 -17.165344 17.165352l0 0c-9.480164 0 -17.165375 -7.6851883 -17.165375 -17.165352z" fill-rule="evenodd"/><path fill="#000000" d="m321.84454 42.49061q0.265625 0 0.40625 0.140625q0.140625 0.140625 0.140625 0.359375q0 0.203125 -0.140625 0.453125l-4.859375 9.15625q-0.1875 0.328125 -0.515625 0.328125q-0.234375 0 -0.421875 -0.15625q-0.1875 -0.171875 -0.1875 -0.40625q0 -0.15625 0.109375 -0.328125l4.578125 -8.546875l-5.0625 0q-0.265625 0 -0.40625 -0.125q-0.140625 -0.125 -0.140625 -0.359375q0 -0.25 0.140625 -0.375q0.140625 -0.140625 0.40625 -0.140625l5.953125 0z" fill-rule="nonzero"/></g><g filter="url(#shadowFilter-p.6)"><use xlink:href="#p.6" transform="matrix(1.0 0.0 0.0 1.0 0.0 2.0)"/></g><defs><filter id="shadowFilter-p.6" filterUnits="userSpaceOnUse"><feGaussianBlur in="SourceAlpha" stdDeviation="2.0" result="blur"/><feComponentTransfer in="blur" color-interpolation-filters="sRGB"><feFuncR type="linear" slope="0" intercept="0.0"/><feFuncG type="linear" slope="0" intercept="0.0"/><feFuncB type="linear" slope="0" intercept="0.0"/><feFuncA type="linear" slope="0.5" intercept="0"/></feComponentTransfer></filter></defs><g id="p.6"><path fill="#cfe2f3" d="m97.71379 114.92358l0 0c0 -9.480164 7.685196 -17.16536 17.16536 -17.16536l0 0c4.5525284 0 8.91861 1.8084869 12.137733 5.0276184c3.2191238 3.2191315 5.027611 7.585205 5.027611 12.137741l0 0c0 9.480164 -7.6851807 17.165352 -17.165344 17.165352l0 0c-9.480164 0 -17.16536 -7.6851883 -17.16536 -17.165352z" fill-rule="evenodd"/><path stroke="#ffffff" stroke-width="1.0" stroke-linejoin="round" stroke-linecap="butt" d="m97.71379 114.92358l0 0c0 -9.480164 7.685196 -17.16536 17.16536 -17.16536l0 0c4.5525284 0 8.91861 1.8084869 12.137733 5.0276184c3.2191238 3.2191315 5.027611 7.585205 5.027611 12.137741l0 0c0 9.480164 -7.6851807 17.165352 -17.165344 17.165352l0 0c-9.480164 0 -17.16536 -7.6851883 -17.16536 -17.165352z" fill-rule="evenodd"/><path fill="#000000" d="m117.92891 114.69107q0.90625 0.28125 1.40625 0.96875q0.515625 0.671875 0.515625 1.609375q0 1.328125 -0.96875 2.09375q-0.96875 0.75 -2.75 0.75q-1.765625 0 -2.734375 -0.75q-0.96875 -0.765625 -0.96875 -2.09375q0 -0.953125 0.515625 -1.625q0.515625 -0.6875 1.421875 -0.953125q-0.78125 -0.28125 -1.234375 -0.90625q-0.453125 -0.640625 -0.453125 -1.484375q0 -1.265625 0.90625 -2.0q0.921875 -0.75 2.546875 -0.75q1.640625 0 2.546875 0.75q0.921875 0.734375 0.921875 2.0q0 0.84375 -0.453125 1.484375q-0.453125 0.640625 -1.21875 0.90625zm-4.0625 -2.3125q0 0.90625 0.578125 1.390625q0.578125 0.484375 1.6875 0.484375q1.125 0 1.703125 -0.484375q0.578125 -0.484375 0.578125 -1.390625q0 -0.859375 -0.578125 -1.34375q-0.578125 -0.484375 -1.703125 -0.484375q-1.109375 0 -1.6875 0.484375q-0.578125 0.484375 -0.578125 1.34375zm2.265625 6.734375q2.53125 0 2.53125 -1.921875q0 -1.921875 -2.53125 -1.921875q-2.515625 0 -2.515625 1.921875q0 1.921875 2.515625 1.921875z" fill-rule="nonzero"/></g><g filter="url(#shadowFilter-p.7)"><use xlink:href="#p.7" transform="matrix(1.0 0.0 0.0 1.0 0.0 2.0)"/></g><defs><filter id="shadowFilter-p.7" filterUnits="userSpaceOnUse"><feGaussianBlur in="SourceAlpha" stdDeviation="2.0" result="blur"/><feComponentTransfer in="blur" color-interpolation-filters="sRGB"><feFuncR type="linear" slope="0" intercept="0.0"/><feFuncG type="linear" slope="0" intercept="0.0"/><feFuncB type="linear" slope="0" intercept="0.0"/><feFuncA type="linear" slope="0.5" intercept="0"/></feComponentTransfer></filter></defs><g id="p.7"><path fill="#000000" fill-opacity="0.0" d="m114.880165 63.417915l0 34.33071" fill-rule="evenodd"/><path stroke="#ffffff" stroke-width="1.0" stroke-linejoin="round" stroke-linecap="butt" d="m114.880165 63.417915l0 34.33071" fill-rule="evenodd"/></g><g filter="url(#shadowFilter-p.8)"><use xlink:href="#p.8" transform="matrix(1.0 0.0 0.0 1.0 0.0 2.0)"/></g><defs><filter id="shadowFilter-p.8" filterUnits="userSpaceOnUse"><feGaussianBlur in="SourceAlpha" stdDeviation="2.0" result="blur"/><feComponentTransfer in="blur" color-interpolation-filters="sRGB"><feFuncR type="linear" slope="0" intercept="0.0"/><feFuncG type="linear" slope="0" intercept="0.0"/><feFuncB type="linear" slope="0" intercept="0.0"/><feFuncA type="linear" slope="0.5" intercept="0"/></feComponentTransfer></filter></defs><g id="p.8"><path fill="#000000" fill-opacity="0.0" d="m88.53158 102.78723l14.204727 -44.409447" fill-rule="evenodd"/><path stroke="#ffffff" stroke-width="1.0" stroke-linejoin="round" stroke-linecap="butt" d="m88.53158 102.78723l14.204727 -44.409447" fill-rule="evenodd"/></g><g filter="url(#shadowFilter-p.9)"><use xlink:href="#p.9" transform="matrix(1.0 0.0 0.0 1.0 0.0 2.0)"/></g><defs><filter id="shadowFilter-p.9" filterUnits="userSpaceOnUse"><feGaussianBlur in="SourceAlpha" stdDeviation="2.0" result="blur"/><feComponentTransfer in="blur" color-interpolation-filters="sRGB"><feFuncR type="linear" slope="0" intercept="0.0"/><feFuncG type="linear" slope="0" intercept="0.0"/><feFuncB type="linear" slope="0" intercept="0.0"/><feFuncA type="linear" slope="0.5" intercept="0"/></feComponentTransfer></filter></defs><g id="p.9"><path fill="#000000" fill-opacity="0.0" d="m31.937 63.178368l0 34.803146" fill-rule="evenodd"/><path stroke="#ffffff" stroke-width="1.0" stroke-linejoin="round" stroke-linecap="butt" d="m31.937 63.178368l0 34.803146" fill-rule="evenodd"/></g><g filter="url(#shadowFilter-p.10)"><use xlink:href="#p.10" transform="matrix(1.0 0.0 0.0 1.0 0.0 2.0)"/></g><defs><filter id="shadowFilter-p.10" filterUnits="userSpaceOnUse"><feGaussianBlur in="SourceAlpha" stdDeviation="2.0" result="blur"/><feComponentTransfer in="blur" color-interpolation-filters="sRGB"><feFuncR type="linear" slope="0" intercept="0.0"/><feFuncG type="linear" slope="0" intercept="0.0"/><feFuncB type="linear" slope="0" intercept="0.0"/><feFuncA type="linear" slope="0.5" intercept="0"/></feComponentTransfer></filter></defs><g id="p.10"><path fill="#000000" fill-opacity="0.0" d="m191.59055 157.29527l127.90552 0l0 44.53543l-127.90552 0z" fill-rule="evenodd"/><path fill="#ffffff" d="m208.88742 174.94965q0.359375 0 0.546875 0.203125q0.203125 0.203125 0.203125 0.53125l0 7.890625q0 0.328125 -0.203125 0.53125q-0.1875 0.203125 -0.546875 0.203125q-0.328125 0 -0.53125 -0.1875q-0.1875 -0.203125 -0.1875 -0.515625l0 -0.9375q-0.4375 0.8125 -1.21875 1.25q-0.765625 0.421875 -1.734375 0.421875q-1.625 0 -2.453125 -0.890625q-0.8125 -0.90625 -0.8125 -2.6875l0 -5.078125q0 -0.328125 0.203125 -0.53125q0.203125 -0.203125 0.5625 -0.203125q0.359375 0 0.546875 0.203125q0.203125 0.203125 0.203125 0.53125l0 5.046875q0 1.203125 0.484375 1.78125q0.484375 0.5625 1.53125 0.5625q1.1875 0 1.90625 -0.765625q0.734375 -0.78125 0.734375 -2.046875l0 -4.578125q0 -0.328125 0.203125 -0.53125q0.21875 -0.203125 0.5625 -0.203125zm8.138031 -0.046875q3.265625 0 3.265625 3.609375l0 5.046875q0 0.359375 -0.203125 0.5625q-0.1875 0.1875 -0.546875 0.1875q-0.34375 0 -0.5625 -0.1875q-0.203125 -0.203125 -0.203125 -0.5625l0 -4.953125q0 -1.28125 -0.5 -1.859375q-0.484375 -0.578125 -1.5625 -0.578125q-1.25 0 -2.0 0.765625q-0.75 0.765625 -0.75 2.078125l0 4.546875q0 0.359375 -0.203125 0.5625q-0.1875 0.1875 -0.53125 0.1875q-0.359375 0 -0.5625 -0.1875q-0.203125 -0.203125 -0.203125 -0.5625l0 -7.875q0 -0.328125 0.203125 -0.53125q0.203125 -0.203125 0.5625 -0.203125q0.328125 0 0.515625 0.203125q0.203125 0.203125 0.203125 0.515625l0 0.953125q0.453125 -0.84375 1.25 -1.28125q0.796875 -0.4375 1.828125 -0.4375zm6.799881 9.40625q-0.34375 0 -0.5625 -0.1875q-0.203125 -0.203125 -0.203125 -0.5625l0 -7.875q0 -0.34375 0.203125 -0.53125q0.21875 -0.203125 0.5625 -0.203125q0.328125 0 0.53125 0.203125q0.203125 0.1875 0.203125 0.53125l0 7.875q0 0.375 -0.203125 0.5625q-0.203125 0.1875 -0.53125 0.1875zm0 -11.328125q-0.453125 0 -0.734375 -0.25q-0.28125 -0.265625 -0.28125 -0.703125q0 -0.40625 0.28125 -0.65625q0.28125 -0.265625 0.734375 -0.265625q0.453125 0 0.71875 0.265625q0.28125 0.25 0.28125 0.65625q0 0.4375 -0.28125 0.703125q-0.265625 0.25 -0.71875 0.25zm7.328247 11.359375q-1.296875 0 -2.28125 -0.578125q-0.96875 -0.578125 -1.5 -1.640625q-0.53125 -1.078125 -0.53125 -2.5q0 -1.40625 0.53125 -2.484375q0.53125 -1.078125 1.5 -1.65625q0.984375 -0.578125 2.28125 -0.578125q1.28125 0 2.265625 0.578125q1.0 0.578125 1.53125 1.65625q0.53125 1.078125 0.53125 2.484375q0 1.421875 -0.53125 2.5q-0.53125 1.0625 -1.53125 1.640625q-0.984375 0.578125 -2.265625 0.578125zm0 -1.25q1.34375 0 2.0625 -0.875q0.71875 -0.890625 0.71875 -2.59375q0 -1.65625 -0.734375 -2.5625q-0.71875 -0.90625 -2.046875 -0.90625q-1.328125 0 -2.0625 0.90625q-0.71875 0.90625 -0.71875 2.5625q0 1.6875 0.71875 2.578125q0.71875 0.890625 2.0625 0.890625zm11.151093 -8.1875q3.265625 0 3.265625 3.609375l0 5.046875q0 0.359375 -0.203125 0.5625q-0.1875 0.1875 -0.546875 0.1875q-0.34375 0 -0.5625 -0.1875q-0.203125 -0.203125 -0.203125 -0.5625l0 -4.953125q0 -1.28125 -0.5 -1.859375q-0.484375 -0.578125 -1.5625 -0.578125q-1.25 0 -2.0 0.765625q-0.75 0.765625 -0.75 2.078125l0 4.546875q0 0.359375 -0.203125 0.5625q-0.1875 0.1875 -0.53125 0.1875q-0.359375 0 -0.5625 -0.1875q-0.203125 -0.203125 -0.203125 -0.5625l0 -7.875q0 -0.328125 0.203125 -0.53125q0.203125 -0.203125 0.5625 -0.203125q0.328125 0 0.515625 0.203125q0.203125 0.203125 0.203125 0.515625l0 0.953125q0.453125 -0.84375 1.25 -1.28125q0.796875 -0.4375 1.828125 -0.4375zm13.347565 12.375q-1.984375 -3.796875 -1.984375 -7.96875q0 -4.171875 1.984375 -7.96875q0.234375 -0.421875 0.64064026 -0.421875q0.234375 0 0.390625 0.15625q0.15625 0.140625 0.15625 0.359375q0 0.125 -0.0625 0.28125q-1.5625153 3.6875 -1.5625153 7.59375q0 3.90625 1.5625153 7.59375q0.0625 0.171875 0.0625 0.28125q0 0.234375 -0.15625 0.375q-0.15625 0.140625 -0.390625 0.140625q-0.40626526 0 -0.64064026 -0.421875zm11.342453 -16.21875q0.328125 0 0.5 0.1875q0.1875 0.171875 0.1875 0.453125q0 0.265625 -0.171875 0.578125l-6.1875 11.65625q-0.234375 0.40625 -0.65625 0.40625q-0.296875 0 -0.53125 -0.203125q-0.234375 -0.203125 -0.234375 -0.5q0 -0.203125 0.125 -0.40625l5.828125 -10.875l-6.4375 0q-0.34375 0 -0.515625 -0.171875q-0.171875 -0.171875 -0.171875 -0.46875q0 -0.3125 0.171875 -0.484375q0.171875 -0.171875 0.515625 -0.171875l7.578125 0zm3.912506 11.140625q0.46875 0 0.75 0.375q0.296875 0.359375 0.296875 1.078125q0 1.484375 -0.953125 2.484375q-0.1875 0.203125 -0.4375 0.203125q-0.1875 0 -0.34375 -0.140625q-0.140625 -0.140625 -0.140625 -0.328125q0 -0.203125 0.15625 -0.34375q0.484375 -0.515625 0.609375 -1.25q-0.40625 -0.046875 -0.6875 -0.3125q-0.265625 -0.265625 -0.265625 -0.703125q0 -0.46875 0.28125 -0.765625q0.296875 -0.296875 0.734375 -0.296875zm11.647278 0.734375q0.328125 0 0.515625 0.171875q0.1875 0.15625 0.1875 0.453125q0 0.65625 -0.703125 0.65625l-7.3125 0q-0.328125 0 -0.53125 -0.1875q-0.203125 -0.203125 -0.203125 -0.484375q0 -0.359375 0.265625 -0.609375l4.484375 -4.953125q0.9375 -1.046875 1.359375 -1.875q0.421875 -0.828125 0.421875 -1.671875q0 -1.078125 -0.625 -1.65625q-0.625 -0.578125 -1.765625 -0.578125q-0.890625 0 -1.71875 0.328125q-0.8125 0.328125 -1.640625 1.0q-0.28125 0.21875 -0.515625 0.21875q-0.203125 0 -0.359375 -0.1875q-0.15625 -0.203125 -0.15625 -0.484375q0 -0.390625 0.3125 -0.625q0.75 -0.71875 1.84375 -1.125q1.109375 -0.40625 2.265625 -0.40625q1.78125 0 2.828125 0.9375q1.0625 0.921875 1.0625 2.515625q0 1.125 -0.515625 2.171875q-0.515625 1.046875 -1.6875 2.34375l-3.734375 4.046875l5.921875 0zm3.693756 4.34375q-0.25 0.421875 -0.671875 0.421875q-0.234375 0 -0.390625 -0.140625q-0.15625 -0.140625 -0.15625 -0.359375q0 -0.078125 0.078125 -0.296875q1.546875 -3.71875 1.546875 -7.59375q0 -3.875 -1.546875 -7.59375q-0.078125 -0.21875 -0.078125 -0.296875q0 -0.21875 0.15625 -0.359375q0.15625 -0.140625 0.390625 -0.140625q0.421875 0 0.671875 0.421875q1.953125 3.8125 1.953125 7.96875q0 4.15625 -1.953125 7.96875z" fill-rule="nonzero"/></g><g filter="url(#shadowFilter-p.11)"><use xlink:href="#p.11" transform="matrix(1.0 0.0 0.0 1.0 0.0 2.0)"/></g><defs><filter id="shadowFilter-p.11" filterUnits="userSpaceOnUse"><feGaussianBlur in="SourceAlpha" stdDeviation="2.0" result="blur"/><feComponentTransfer in="blur" color-interpolation-filters="sRGB"><feFuncR type="linear" slope="0" intercept="0.0"/><feFuncG type="linear" slope="0" intercept="0.0"/><feFuncB type="linear" slope="0" intercept="0.0"/><feFuncA type="linear" slope="0.5" intercept="0"/></feComponentTransfer></filter></defs><g id="p.11"><path fill="#000000" fill-opacity="0.0" d="m191.59055 200.22179l127.90552 0l0 44.53543l-127.90552 0z" fill-rule="evenodd"/><path fill="#ffffff" d="m208.88742 217.87616q0.359375 0 0.546875 0.203125q0.203125 0.203125 0.203125 0.53125l0 7.890625q0 0.328125 -0.203125 0.53125q-0.1875 0.203125 -0.546875 0.203125q-0.328125 0 -0.53125 -0.1875q-0.1875 -0.203125 -0.1875 -0.515625l0 -0.9375q-0.4375 0.8125 -1.21875 1.25q-0.765625 0.421875 -1.734375 0.421875q-1.625 0 -2.453125 -0.890625q-0.8125 -0.90625 -0.8125 -2.6875l0 -5.078125q0 -0.328125 0.203125 -0.53125q0.203125 -0.203125 0.5625 -0.203125q0.359375 0 0.546875 0.203125q0.203125 0.203125 0.203125 0.53125l0 5.046875q0 1.203125 0.484375 1.78125q0.484375 0.5625 1.53125 0.5625q1.1875 0 1.90625 -0.765625q0.734375 -0.78125 0.734375 -2.046875l0 -4.578125q0 -0.328125 0.203125 -0.53125q0.21875 -0.203125 0.5625 -0.203125zm8.138031 -0.046875q3.265625 0 3.265625 3.609375l0 5.046875q0 0.359375 -0.203125 0.5625q-0.1875 0.1875 -0.546875 0.1875q-0.34375 0 -0.5625 -0.1875q-0.203125 -0.203125 -0.203125 -0.5625l0 -4.953125q0 -1.28125 -0.5 -1.859375q-0.484375 -0.578125 -1.5625 -0.578125q-1.25 0 -2.0 0.765625q-0.75 0.765625 -0.75 2.078125l0 4.546875q0 0.359375 -0.203125 0.5625q-0.1875 0.1875 -0.53125 0.1875q-0.359375 0 -0.5625 -0.1875q-0.203125 -0.203125 -0.203125 -0.5625l0 -7.875q0 -0.328125 0.203125 -0.53125q0.203125 -0.203125 0.5625 -0.203125q0.328125 0 0.515625 0.203125q0.203125 0.203125 0.203125 0.515625l0 0.953125q0.453125 -0.84375 1.25 -1.28125q0.796875 -0.4375 1.828125 -0.4375zm6.799881 9.40625q-0.34375 0 -0.5625 -0.1875q-0.203125 -0.203125 -0.203125 -0.5625l0 -7.875q0 -0.34375 0.203125 -0.53125q0.21875 -0.203125 0.5625 -0.203125q0.328125 0 0.53125 0.203125q0.203125 0.1875 0.203125 0.53125l0 7.875q0 0.375 -0.203125 0.5625q-0.203125 0.1875 -0.53125 0.1875zm0 -11.328125q-0.453125 0 -0.734375 -0.25q-0.28125 -0.265625 -0.28125 -0.703125q0 -0.40625 0.28125 -0.65625q0.28125 -0.265625 0.734375 -0.265625q0.453125 0 0.71875 0.265625q0.28125 0.25 0.28125 0.65625q0 0.4375 -0.28125 0.703125q-0.265625 0.25 -0.71875 0.25zm7.328247 11.359375q-1.296875 0 -2.28125 -0.578125q-0.96875 -0.578125 -1.5 -1.640625q-0.53125 -1.078125 -0.53125 -2.5q0 -1.40625 0.53125 -2.484375q0.53125 -1.078125 1.5 -1.65625q0.984375 -0.578125 2.28125 -0.578125q1.28125 0 2.265625 0.578125q1.0 0.578125 1.53125 1.65625q0.53125 1.078125 0.53125 2.484375q0 1.421875 -0.53125 2.5q-0.53125 1.0625 -1.53125 1.640625q-0.984375 0.578125 -2.265625 0.578125zm0 -1.25q1.34375 0 2.0625 -0.875q0.71875 -0.890625 0.71875 -2.59375q0 -1.65625 -0.734375 -2.5625q-0.71875 -0.90625 -2.046875 -0.90625q-1.328125 0 -2.0625 0.90625q-0.71875 0.90625 -0.71875 2.5625q0 1.6875 0.71875 2.578125q0.71875 0.890625 2.0625 0.890625zm11.151093 -8.1875q3.265625 0 3.265625 3.609375l0 5.046875q0 0.359375 -0.203125 0.5625q-0.1875 0.1875 -0.546875 0.1875q-0.34375 0 -0.5625 -0.1875q-0.203125 -0.203125 -0.203125 -0.5625l0 -4.953125q0 -1.28125 -0.5 -1.859375q-0.484375 -0.578125 -1.5625 -0.578125q-1.25 0 -2.0 0.765625q-0.75 0.765625 -0.75 2.078125l0 4.546875q0 0.359375 -0.203125 0.5625q-0.1875 0.1875 -0.53125 0.1875q-0.359375 0 -0.5625 -0.1875q-0.203125 -0.203125 -0.203125 -0.5625l0 -7.875q0 -0.328125 0.203125 -0.53125q0.203125 -0.203125 0.5625 -0.203125q0.328125 0 0.515625 0.203125q0.203125 0.203125 0.203125 0.515625l0 0.953125q0.453125 -0.84375 1.25 -1.28125q0.796875 -0.4375 1.828125 -0.4375zm13.347565 12.375q-1.984375 -3.796875 -1.984375 -7.96875q0 -4.171875 1.984375 -7.96875q0.234375 -0.421875 0.64064026 -0.421875q0.234375 0 0.390625 0.15625q0.15625 0.140625 0.15625 0.359375q0 0.125 -0.0625 0.28125q-1.5625153 3.6875 -1.5625153 7.59375q0 3.90625 1.5625153 7.59375q0.0625 0.171875 0.0625 0.28125q0 0.234375 -0.15625 0.375q-0.15625 0.140625 -0.390625 0.140625q-0.40626526 0 -0.64064026 -0.421875zm11.889328 -7.1875q0.34375 0 0.53125 0.1875q0.1875 0.171875 0.1875 0.453125q0 0.625 -0.71875 0.625l-1.390625 0l0 2.171875q0 0.375 -0.21875 0.578125q-0.21875 0.203125 -0.546875 0.203125q-0.34375 0 -0.546875 -0.203125q-0.203125 -0.203125 -0.203125 -0.578125l0 -2.171875l-5.515625 0q-0.34375 0 -0.53125 -0.1875q-0.1875 -0.1875 -0.1875 -0.453125q0 -0.265625 0.203125 -0.578125l6.109375 -8.828125q0.265625 -0.34375 0.671875 -0.34375q0.3125 0 0.53125 0.21875q0.234375 0.203125 0.234375 0.5625l0 8.34375l1.390625 0zm-7.40625 0l4.5 0l0 -6.46875l-4.5 6.46875zm10.771881 2.109375q0.46875 0 0.75 0.375q0.296875 0.359375 0.296875 1.078125q0 1.484375 -0.953125 2.484375q-0.1875 0.203125 -0.4375 0.203125q-0.1875 0 -0.34375 -0.140625q-0.140625 -0.140625 -0.140625 -0.328125q0 -0.203125 0.15625 -0.34375q0.484375 -0.515625 0.609375 -1.25q-0.40625 -0.046875 -0.6875 -0.3125q-0.265625 -0.265625 -0.265625 -0.703125q0 -0.46875 0.28125 -0.765625q0.296875 -0.296875 0.734375 -0.296875zm11.334778 0.734375q0.34375 0 0.53125 0.171875q0.1875 0.15625 0.1875 0.453125q0 0.328125 -0.1875 0.5q-0.171875 0.15625 -0.53125 0.15625l-6.171875 0q-0.34375 0 -0.53125 -0.15625q-0.171875 -0.171875 -0.171875 -0.5q0 -0.296875 0.1875 -0.453125q0.1875 -0.171875 0.515625 -0.171875l2.3125 0l0 -10.0l-2.03125 1.3125q-0.140625 0.09375 -0.296875 0.09375q-0.265625 0 -0.46875 -0.234375q-0.1875 -0.25 -0.1875 -0.53125q0 -0.390625 0.296875 -0.546875l2.84375 -1.859375q0.3125 -0.203125 0.65625 -0.203125q0.3125 0 0.515625 0.21875q0.203125 0.203125 0.203125 0.5625l0 11.1875l2.328125 0zm4.006256 4.34375q-0.25 0.421875 -0.671875 0.421875q-0.234375 0 -0.390625 -0.140625q-0.15625 -0.140625 -0.15625 -0.359375q0 -0.078125 0.078125 -0.296875q1.546875 -3.71875 1.546875 -7.59375q0 -3.875 -1.546875 -7.59375q-0.078125 -0.21875 -0.078125 -0.296875q0 -0.21875 0.15625 -0.359375q0.15625 -0.140625 0.390625 -0.140625q0.421875 0 0.671875 0.421875q1.953125 3.8125 1.953125 7.96875q0 4.15625 -1.953125 7.96875z" fill-rule="nonzero"/></g><g filter="url(#shadowFilter-p.12)"><use xlink:href="#p.12" transform="matrix(1.0 0.0 0.0 1.0 0.0 2.0)"/></g><defs><filter id="shadowFilter-p.12" filterUnits="userSpaceOnUse"><feGaussianBlur in="SourceAlpha" stdDeviation="2.0" result="blur"/><feComponentTransfer in="blur" color-interpolation-filters="sRGB"><feFuncR type="linear" slope="0" intercept="0.0"/><feFuncG type="linear" slope="0" intercept="0.0"/><feFuncB type="linear" slope="0" intercept="0.0"/><feFuncA type="linear" slope="0.5" intercept="0"/></feComponentTransfer></filter></defs><g id="p.12"><path fill="#cfe2f3" d="m136.19933 114.92358l0 0c0 -9.480164 7.6851807 -17.16536 17.165344 -17.16536l0 0c4.552536 0 8.91861 1.8084869 12.137741 5.0276184c3.2191315 3.2191315 5.0276184 7.585205 5.0276184 12.137741l0 0c0 9.480164 -7.685196 17.165352 -17.16536 17.165352l0 0c-9.480164 0 -17.165344 -7.6851883 -17.165344 -17.165352z" fill-rule="evenodd"/><path stroke="#ffffff" stroke-width="1.0" stroke-linejoin="round" stroke-linecap="butt" d="m136.19933 114.92358l0 0c0 -9.480164 7.6851807 -17.16536 17.165344 -17.16536l0 0c4.552536 0 8.91861 1.8084869 12.137741 5.0276184c3.2191315 3.2191315 5.0276184 7.585205 5.0276184 12.137741l0 0c0 9.480164 -7.685196 17.165352 -17.16536 17.165352l0 0c-9.480164 0 -17.165344 -7.6851883 -17.165344 -17.165352z" fill-rule="evenodd"/><path fill="#000000" d="m154.30507 109.550446q1.875 0 2.890625 1.3125q1.015625 1.296875 1.015625 3.71875q0 1.734375 -0.46875 2.984375q-0.46875 1.234375 -1.359375 1.90625q-0.890625 0.65625 -2.125 0.65625q-0.84375 0 -1.671875 -0.328125q-0.828125 -0.328125 -1.40625 -0.875q-0.25 -0.234375 -0.25 -0.5q0 -0.21875 0.109375 -0.359375q0.125 -0.15625 0.28125 -0.15625q0.203125 0 0.4375 0.15625q1.265625 1.046875 2.46875 1.046875q1.3125 0 2.03125 -1.1875q0.734375 -1.1875 0.734375 -3.328125l0 -0.1875q-0.328125 0.8125 -1.09375 1.28125q-0.75 0.46875 -1.703125 0.46875q-0.9375 0 -1.671875 -0.40625q-0.734375 -0.40625 -1.140625 -1.15625q-0.40625 -0.75 -0.40625 -1.71875q0 -0.953125 0.421875 -1.703125q0.421875 -0.765625 1.1875 -1.1875q0.765625 -0.4375 1.71875 -0.4375zm0.0625 5.609375q1.015625 0 1.65625 -0.640625q0.640625 -0.640625 0.640625 -1.65625q0 -1.015625 -0.640625 -1.65625q-0.640625 -0.640625 -1.65625 -0.640625q-1.0 0 -1.609375 0.640625q-0.59375 0.625 -0.59375 1.65625q0 1.046875 0.609375 1.671875q0.609375 0.625 1.59375 0.625z" fill-rule="nonzero"/></g><g filter="url(#shadowFilter-p.13)"><use xlink:href="#p.13" transform="matrix(1.0 0.0 0.0 1.0 0.0 2.0)"/></g><defs><filter id="shadowFilter-p.13" filterUnits="userSpaceOnUse"><feGaussianBlur in="SourceAlpha" stdDeviation="2.0" result="blur"/><feComponentTransfer in="blur" color-interpolation-filters="sRGB"><feFuncR type="linear" slope="0" intercept="0.0"/><feFuncG type="linear" slope="0" intercept="0.0"/><feFuncB type="linear" slope="0" intercept="0.0"/><feFuncA type="linear" slope="0.5" intercept="0"/></feComponentTransfer></filter></defs><g id="p.13"><path fill="#000000" fill-opacity="0.0" d="m141.22694 102.785835l-14.204727 -44.40945" fill-rule="evenodd"/><path stroke="#ffffff" stroke-width="1.0" stroke-linejoin="round" stroke-linecap="butt" d="m141.22694 102.785835l-14.204727 -44.40945" fill-rule="evenodd"/></g><g filter="url(#shadowFilter-p.14)"><use xlink:href="#p.14" transform="matrix(1.0 0.0 0.0 1.0 0.0 2.0)"/></g><defs><filter id="shadowFilter-p.14" filterUnits="userSpaceOnUse"><feGaussianBlur in="SourceAlpha" stdDeviation="2.0" result="blur"/><feComponentTransfer in="blur" color-interpolation-filters="sRGB"><feFuncR type="linear" slope="0" intercept="0.0"/><feFuncG type="linear" slope="0" intercept="0.0"/><feFuncB type="linear" slope="0" intercept="0.0"/><feFuncA type="linear" slope="0.5" intercept="0"/></feComponentTransfer></filter></defs><g id="p.14"><path fill="#cfe2f3" d="m189.72443 116.41004l0 0c0 -9.480164 7.6851807 -17.16536 17.165344 -17.16536l0 0c4.552536 0 8.91861 1.8084869 12.137741 5.0276184c3.2191315 3.2191315 5.0276184 7.585205 5.0276184 12.137741l0 0c0 9.480164 -7.685196 17.165352 -17.16536 17.165352l0 0c-9.480164 0 -17.165344 -7.6851883 -17.165344 -17.165352z" fill-rule="evenodd"/><path stroke="#ffffff" stroke-width="1.0" stroke-linejoin="round" stroke-linecap="butt" d="m189.72443 116.41004l0 0c0 -9.480164 7.6851807 -17.16536 17.165344 -17.16536l0 0c4.552536 0 8.91861 1.8084869 12.137741 5.0276184c3.2191315 3.2191315 5.0276184 7.585205 5.0276184 12.137741l0 0c0 9.480164 -7.685196 17.165352 -17.16536 17.165352l0 0c-9.480164 0 -17.165344 -7.6851883 -17.165344 -17.165352z" fill-rule="evenodd"/><path fill="#000000" d="m208.14267 121.615036q-1.765625 0 -2.6875 -1.34375q-0.921875 -1.359375 -0.921875 -3.9375q0 -2.59375 0.921875 -3.9375q0.921875 -1.359375 2.6875 -1.359375q1.78125 0 2.703125 1.34375q0.921875 1.34375 0.921875 3.9375q0 2.59375 -0.921875 3.953125q-0.921875 1.34375 -2.703125 1.34375zm0 -1.015625q1.234375 0 1.8125 -1.03125q0.59375 -1.046875 0.59375 -3.25q0 -2.21875 -0.578125 -3.234375q-0.578125 -1.03125 -1.828125 -1.03125q-1.21875 0 -1.8125 1.03125q-0.578125 1.03125 -0.578125 3.234375q0 2.203125 0.578125 3.25q0.59375 1.03125 1.8125 1.03125z" fill-rule="nonzero"/></g><g filter="url(#shadowFilter-p.15)"><use xlink:href="#p.15" transform="matrix(1.0 0.0 0.0 1.0 0.0 2.0)"/></g><defs><filter id="shadowFilter-p.15" filterUnits="userSpaceOnUse"><feGaussianBlur in="SourceAlpha" stdDeviation="2.0" result="blur"/><feComponentTransfer in="blur" color-interpolation-filters="sRGB"><feFuncR type="linear" slope="0" intercept="0.0"/><feFuncG type="linear" slope="0" intercept="0.0"/><feFuncB type="linear" slope="0" intercept="0.0"/><feFuncA type="linear" slope="0.5" intercept="0"/></feComponentTransfer></filter></defs><g id="p.15"><path fill="#cfe2f3" d="m217.64201 47.739834l0 0c0 -9.480164 7.685196 -17.165354 17.16536 -17.165354l0 0c4.552536 0 8.91861 1.8084888 12.137741 5.0276165c3.2191162 3.2191277 5.027603 7.585205 5.027603 12.137737l0 0c0 9.480164 -7.6851807 17.165356 -17.165344 17.165356l0 0c-9.480164 0 -17.16536 -7.685192 -17.16536 -17.165356z" fill-rule="evenodd"/><path stroke="#ffffff" stroke-width="1.0" stroke-linejoin="round" stroke-linecap="butt" d="m217.64201 47.739834l0 0c0 -9.480164 7.685196 -17.165354 17.16536 -17.165354l0 0c4.552536 0 8.91861 1.8084888 12.137741 5.0276165c3.2191162 3.2191277 5.027603 7.585205 5.027603 12.137737l0 0c0 9.480164 -7.6851807 17.165356 -17.165344 17.165356l0 0c-9.480164 0 -17.16536 -7.685192 -17.16536 -17.165356z" fill-rule="evenodd"/><path fill="#000000" d="m236.49776 46.319836q0.9375 0 1.65625 0.421875q0.734375 0.40625 1.140625 1.15625q0.421875 0.75 0.421875 1.71875q0 0.953125 -0.421875 1.71875q-0.421875 0.75 -1.1875 1.1875q-0.765625 0.421875 -1.71875 0.421875q-1.875 0 -2.890625 -1.296875q-1.015625 -1.3125 -1.015625 -3.734375q0 -1.734375 0.46875 -2.96875q0.46875 -1.25 1.359375 -1.90625q0.890625 -0.671875 2.125 -0.671875q0.828125 0 1.65625 0.328125q0.828125 0.3125 1.421875 0.875q0.25 0.234375 0.25 0.5q0 0.21875 -0.125 0.375q-0.109375 0.140625 -0.28125 0.140625q-0.203125 0 -0.421875 -0.15625q-1.265625 -1.046875 -2.46875 -1.046875q-1.3125 0 -2.046875 1.1875q-0.734375 1.1875 -0.734375 3.328125l0 0.1875q0.34375 -0.828125 1.09375 -1.296875q0.765625 -0.46875 1.71875 -0.46875zm-0.171875 5.609375q1.0 0 1.59375 -0.625q0.609375 -0.640625 0.609375 -1.671875q0 -1.046875 -0.609375 -1.671875q-0.609375 -0.625 -1.609375 -0.625q-1.0 0 -1.640625 0.640625q-0.640625 0.640625 -0.640625 1.65625q0 1.015625 0.640625 1.65625q0.640625 0.640625 1.65625 0.640625z" fill-rule="nonzero"/></g><g filter="url(#shadowFilter-p.16)"><use xlink:href="#p.16" transform="matrix(1.0 0.0 0.0 1.0 0.0 2.0)"/></g><defs><filter id="shadowFilter-p.16" filterUnits="userSpaceOnUse"><feGaussianBlur in="SourceAlpha" stdDeviation="2.0" result="blur"/><feComponentTransfer in="blur" color-interpolation-filters="sRGB"><feFuncR type="linear" slope="0" intercept="0.0"/><feFuncG type="linear" slope="0" intercept="0.0"/><feFuncB type="linear" slope="0" intercept="0.0"/><feFuncA type="linear" slope="0.5" intercept="0"/></feComponentTransfer></filter></defs><g id="p.16"><path fill="#000000" fill-opacity="0.0" d="m206.88977 99.24468l15.779526 -39.370075" fill-rule="evenodd"/><path stroke="#ffffff" stroke-width="1.0" stroke-linejoin="round" stroke-linecap="butt" d="m206.88977 99.24468l15.779526 -39.370075" fill-rule="evenodd"/></g><g filter="url(#shadowFilter-p.17)"><use xlink:href="#p.17" transform="matrix(1.0 0.0 0.0 1.0 0.0 2.0)"/></g><defs><filter id="shadowFilter-p.17" filterUnits="userSpaceOnUse"><feGaussianBlur in="SourceAlpha" stdDeviation="2.0" result="blur"/><feComponentTransfer in="blur" color-interpolation-filters="sRGB"><feFuncR type="linear" slope="0" intercept="0.0"/><feFuncG type="linear" slope="0" intercept="0.0"/><feFuncB type="linear" slope="0" intercept="0.0"/><feFuncA type="linear" slope="0.5" intercept="0"/></feComponentTransfer></filter></defs><g id="p.17"><path fill="#cfe2f3" d="m246.95343 115.154335l0 0c0 -9.480164 7.6851807 -17.165352 17.165344 -17.165352l0 0c4.5525513 0 8.91861 1.8084869 12.137756 5.0276184c3.2191162 3.2191238 5.027588 7.585205 5.027588 12.137733l0 0c0 9.480164 -7.6851807 17.165352 -17.165344 17.165352l0 0c-9.480164 0 -17.165344 -7.6851883 -17.165344 -17.165352z" fill-rule="evenodd"/><path stroke="#ffffff" stroke-width="1.0" stroke-linejoin="round" stroke-linecap="butt" d="m246.95343 115.154335l0 0c0 -9.480164 7.6851807 -17.165352 17.165344 -17.165352l0 0c4.5525513 0 8.91861 1.8084869 12.137756 5.0276184c3.2191162 3.2191238 5.027588 7.585205 5.027588 12.137733l0 0c0 9.480164 -7.6851807 17.165352 -17.165344 17.165352l0 0c-9.480164 0 -17.165344 -7.6851883 -17.165344 -17.165352z" fill-rule="evenodd"/><path fill="#000000" d="m265.77792 113.74996q0.984375 0 1.71875 0.421875q0.734375 0.40625 1.140625 1.15625q0.40625 0.734375 0.40625 1.703125q0 0.953125 -0.4375 1.71875q-0.4375 0.75 -1.234375 1.171875q-0.78125 0.421875 -1.796875 0.421875q-0.921875 0 -1.78125 -0.328125q-0.859375 -0.328125 -1.46875 -0.875q-0.234375 -0.21875 -0.234375 -0.5q0 -0.21875 0.109375 -0.359375q0.125 -0.15625 0.296875 -0.15625q0.203125 0 0.40625 0.15625q0.640625 0.53125 1.28125 0.796875q0.65625 0.25 1.359375 0.25q1.078125 0 1.6875 -0.609375q0.625 -0.625 0.625 -1.671875q0 -1.03125 -0.625 -1.65625q-0.609375 -0.640625 -1.640625 -0.640625q-1.34375 0 -2.171875 1.03125q-0.203125 0.21875 -0.5 0.21875q-0.203125 0 -0.34375 -0.125q-0.140625 -0.125 -0.140625 -0.34375l0 -5.0625q0 -0.25 0.15625 -0.40625q0.15625 -0.15625 0.421875 -0.15625l5.171875 0q0.25 0 0.40625 0.140625q0.15625 0.125 0.15625 0.359375q0 0.234375 -0.15625 0.359375q-0.15625 0.125 -0.40625 0.125l-4.5625 0l0 3.6875q0.40625 -0.390625 0.953125 -0.609375q0.546875 -0.21875 1.203125 -0.21875z" fill-rule="nonzero"/></g><g filter="url(#shadowFilter-p.18)"><use xlink:href="#p.18" transform="matrix(1.0 0.0 0.0 1.0 0.0 2.0)"/></g><defs><filter id="shadowFilter-p.18" filterUnits="userSpaceOnUse"><feGaussianBlur in="SourceAlpha" stdDeviation="2.0" result="blur"/><feComponentTransfer in="blur" color-interpolation-filters="sRGB"><feFuncR type="linear" slope="0" intercept="0.0"/><feFuncG type="linear" slope="0" intercept="0.0"/><feFuncB type="linear" slope="0" intercept="0.0"/><feFuncA type="linear" slope="0.5" intercept="0"/></feComponentTransfer></filter></defs><g id="p.18"><path fill="#000000" fill-opacity="0.0" d="m264.11877 97.98898l-17.165344 -38.110237" fill-rule="evenodd"/><path stroke="#ffffff" stroke-width="1.0" stroke-linejoin="round" stroke-linecap="butt" d="m264.11877 97.98898l-17.165344 -38.110237" fill-rule="evenodd"/></g><g filter="url(#shadowFilter-p.19)"><use xlink:href="#p.19" transform="matrix(1.0 0.0 0.0 1.0 0.0 2.0)"/></g><defs><filter id="shadowFilter-p.19" filterUnits="userSpaceOnUse"><feGaussianBlur in="SourceAlpha" stdDeviation="2.0" result="blur"/><feComponentTransfer in="blur" color-interpolation-filters="sRGB"><feFuncR type="linear" slope="0" intercept="0.0"/><feFuncG type="linear" slope="0" intercept="0.0"/><feFuncB type="linear" slope="0" intercept="0.0"/><feFuncA type="linear" slope="0.5" intercept="0"/></feComponentTransfer></filter></defs><g id="p.19"><path fill="#cfe2f3" d="m495.28476 157.82141l0 0c0 -9.480164 7.685211 -17.16536 17.165375 -17.16536l0 0c4.5525513 0 8.918579 1.8084869 12.137756 5.0276184c3.2191162 3.2191315 5.027588 7.585205 5.027588 12.137741l0 0c0 9.480164 -7.6851807 17.16536 -17.165344 17.16536l0 0c-9.480164 0 -17.165375 -7.685196 -17.165375 -17.16536z" fill-rule="evenodd"/><path stroke="#ffffff" stroke-width="1.0" stroke-linejoin="round" stroke-linecap="butt" d="m495.28476 157.82141l0 0c0 -9.480164 7.685211 -17.16536 17.165375 -17.16536l0 0c4.5525513 0 8.918579 1.8084869 12.137756 5.0276184c3.2191162 3.2191315 5.027588 7.585205 5.027588 12.137741l0 0c0 9.480164 -7.6851807 17.16536 -17.165344 17.16536l0 0c-9.480164 0 -17.165375 -7.685196 -17.165375 -17.16536z" fill-rule="evenodd"/><path fill="#000000" d="m516.7655 161.88579q0.25 0 0.390625 0.140625q0.15625 0.125 0.15625 0.359375q0 0.515625 -0.546875 0.515625l-5.75 0q-0.25 0 -0.421875 -0.15625q-0.15625 -0.15625 -0.15625 -0.375q0 -0.28125 0.203125 -0.484375l3.53125 -3.875q0.734375 -0.828125 1.0625 -1.46875q0.34375 -0.65625 0.34375 -1.328125q0 -0.84375 -0.5 -1.296875q-0.484375 -0.453125 -1.390625 -0.453125q-0.703125 0 -1.34375 0.265625q-0.640625 0.25 -1.28125 0.78125q-0.21875 0.171875 -0.421875 0.171875q-0.15625 0 -0.28125 -0.15625q-0.109375 -0.15625 -0.109375 -0.375q0 -0.3125 0.234375 -0.5q0.59375 -0.5625 1.453125 -0.875q0.875 -0.328125 1.78125 -0.328125q1.390625 0 2.21875 0.734375q0.828125 0.734375 0.828125 1.984375q0 0.890625 -0.40625 1.71875q-0.390625 0.8125 -1.3125 1.828125l-2.9375 3.171875l4.65625 0z" fill-rule="nonzero"/></g><g filter="url(#shadowFilter-p.20)"><use xlink:href="#p.20" transform="matrix(1.0 0.0 0.0 1.0 0.0 2.0)"/></g><defs><filter id="shadowFilter-p.20" filterUnits="userSpaceOnUse"><feGaussianBlur in="SourceAlpha" stdDeviation="2.0" result="blur"/><feComponentTransfer in="blur" color-interpolation-filters="sRGB"><feFuncR type="linear" slope="0" intercept="0.0"/><feFuncG type="linear" slope="0" intercept="0.0"/><feFuncB type="linear" slope="0" intercept="0.0"/><feFuncA type="linear" slope="0.5" intercept="0"/></feComponentTransfer></filter></defs><g id="p.20"><path fill="#cfe2f3" d="m473.01837 226.72351l0 0c0 -9.480164 7.6851807 -17.16536 17.165344 -17.16536l0 0c4.5525513 0 8.91861 1.8084869 12.137756 5.0276184c3.2191162 3.2191315 5.027588 7.585205 5.027588 12.137741l0 0c0 9.480164 -7.6851807 17.16536 -17.165344 17.16536l0 0c-9.480164 0 -17.165344 -7.685196 -17.165344 -17.16536z" fill-rule="evenodd"/><path stroke="#ffffff" stroke-width="1.0" stroke-linejoin="round" stroke-linecap="butt" d="m473.01837 226.72351l0 0c0 -9.480164 7.6851807 -17.16536 17.165344 -17.16536l0 0c4.5525513 0 8.91861 1.8084869 12.137756 5.0276184c3.2191162 3.2191315 5.027588 7.585205 5.027588 12.137741l0 0c0 9.480164 -7.6851807 17.16536 -17.165344 17.16536l0 0c-9.480164 0 -17.165344 -7.685196 -17.165344 -17.16536z" fill-rule="evenodd"/><path fill="#000000" d="m494.2491 230.78789q0.265625 0 0.40625 0.140625q0.15625 0.125 0.15625 0.359375q0 0.25 -0.140625 0.390625q-0.140625 0.125 -0.421875 0.125l-4.84375 0q-0.28125 0 -0.421875 -0.125q-0.140625 -0.140625 -0.140625 -0.390625q0 -0.234375 0.140625 -0.359375q0.15625 -0.140625 0.421875 -0.140625l1.8125 0l0 -7.84375l-1.59375 1.03125q-0.109375 0.078125 -0.234375 0.078125q-0.203125 0 -0.359375 -0.1875q-0.15625 -0.203125 -0.15625 -0.421875q0 -0.296875 0.234375 -0.4375l2.234375 -1.453125q0.25 -0.15625 0.515625 -0.15625q0.25 0 0.40625 0.171875q0.15625 0.15625 0.15625 0.4375l0 8.78125l1.828125 0z" fill-rule="nonzero"/></g><g filter="url(#shadowFilter-p.21)"><use xlink:href="#p.21" transform="matrix(1.0 0.0 0.0 1.0 0.0 2.0)"/></g><defs><filter id="shadowFilter-p.21" filterUnits="userSpaceOnUse"><feGaussianBlur in="SourceAlpha" stdDeviation="2.0" result="blur"/><feComponentTransfer in="blur" color-interpolation-filters="sRGB"><feFuncR type="linear" slope="0" intercept="0.0"/><feFuncG type="linear" slope="0" intercept="0.0"/><feFuncB type="linear" slope="0" intercept="0.0"/><feFuncA type="linear" slope="0.5" intercept="0"/></feComponentTransfer></filter></defs><g id="p.21"><path fill="#cfe2f3" d="m416.69043 156.32655l0 0c0 -9.480164 7.6851807 -17.16536 17.165344 -17.16536l0 0c4.5525513 0 8.91861 1.8084869 12.137756 5.0276184c3.2191162 3.2191315 5.0276184 7.585205 5.0276184 12.137741l0 0c0 9.480164 -7.685211 17.165344 -17.165375 17.165344l0 0c-9.480164 0 -17.165344 -7.6851807 -17.165344 -17.165344z" fill-rule="evenodd"/><path stroke="#ffffff" stroke-width="1.0" stroke-linejoin="round" stroke-linecap="butt" d="m416.69043 156.32655l0 0c0 -9.480164 7.6851807 -17.16536 17.165344 -17.16536l0 0c4.5525513 0 8.91861 1.8084869 12.137756 5.0276184c3.2191162 3.2191315 5.0276184 7.585205 5.0276184 12.137741l0 0c0 9.480164 -7.685211 17.165344 -17.165375 17.165344l0 0c-9.480164 0 -17.165344 -7.6851807 -17.165344 -17.165344z" fill-rule="evenodd"/><path fill="#000000" d="m436.4993 156.09406q0.9375 0.265625 1.421875 0.921875q0.484375 0.640625 0.484375 1.59375q0 1.34375 -0.90625 2.125q-0.90625 0.78125 -2.46875 0.78125q-0.953125 0 -1.828125 -0.328125q-0.875 -0.328125 -1.46875 -0.875q-0.234375 -0.21875 -0.234375 -0.5q0 -0.21875 0.109375 -0.359375q0.125 -0.15625 0.28125 -0.15625q0.203125 0 0.40625 0.15625q0.671875 0.546875 1.3125 0.796875q0.65625 0.25 1.40625 0.25q1.078125 0 1.640625 -0.5q0.5625 -0.5 0.5625 -1.4375q0 -1.890625 -2.359375 -1.890625l-0.78125 0q-0.234375 0 -0.375 -0.15625q-0.140625 -0.15625 -0.140625 -0.359375q0 -0.203125 0.140625 -0.34375q0.140625 -0.15625 0.375 -0.15625l0.546875 0q1.140625 0 1.75 -0.5q0.609375 -0.5 0.609375 -1.453125q0 -0.84375 -0.5 -1.28125q-0.484375 -0.453125 -1.390625 -0.453125q-0.703125 0 -1.34375 0.265625q-0.640625 0.25 -1.28125 0.78125q-0.21875 0.15625 -0.421875 0.15625q-0.15625 0 -0.28125 -0.140625q-0.109375 -0.15625 -0.109375 -0.375q0 -0.28125 0.234375 -0.5q0.59375 -0.5625 1.453125 -0.875q0.859375 -0.328125 1.765625 -0.328125q1.40625 0 2.234375 0.71875q0.84375 0.71875 0.828125 1.9375q0 0.875 -0.453125 1.546875q-0.453125 0.65625 -1.21875 0.9375z" fill-rule="nonzero"/></g><g filter="url(#shadowFilter-p.22)"><use xlink:href="#p.22" transform="matrix(1.0 0.0 0.0 1.0 0.0 2.0)"/></g><defs><filter id="shadowFilter-p.22" filterUnits="userSpaceOnUse"><feGaussianBlur in="SourceAlpha" stdDeviation="2.0" result="blur"/><feComponentTransfer in="blur" color-interpolation-filters="sRGB"><feFuncR type="linear" slope="0" intercept="0.0"/><feFuncG type="linear" slope="0" intercept="0.0"/><feFuncB type="linear" slope="0" intercept="0.0"/><feFuncA type="linear" slope="0.5" intercept="0"/></feComponentTransfer></filter></defs><g id="p.22"><path fill="#cfe2f3" d="m468.0009 88.91923l0 0c0 -9.480164 7.685211 -17.165352 17.165375 -17.165352l0 0c4.5525208 0 8.91861 1.8084869 12.137726 5.027611c3.2191467 3.2191315 5.0276184 7.585205 5.0276184 12.137741l0 0c0 9.480164 -7.6851807 17.165352 -17.165344 17.165352l0 0c-9.480164 0 -17.165375 -7.6851883 -17.165375 -17.165352z" fill-rule="evenodd"/><path stroke="#ffffff" stroke-width="1.0" stroke-linejoin="round" stroke-linecap="butt" d="m468.0009 88.91923l0 0c0 -9.480164 7.685211 -17.165352 17.165375 -17.165352l0 0c4.5525208 0 8.91861 1.8084869 12.137726 5.027611c3.2191467 3.2191315 5.0276184 7.585205 5.0276184 12.137741l0 0c0 9.480164 -7.6851807 17.165352 -17.165344 17.165352l0 0c-9.480164 0 -17.165375 -7.6851883 -17.165375 -17.165352z" fill-rule="evenodd"/><path fill="#000000" d="m489.841 90.764854q0.265625 0 0.40625 0.140625q0.15625 0.140625 0.15625 0.359375q0 0.484375 -0.5625 0.484375l-1.09375 0l0 1.703125q0 0.296875 -0.171875 0.46875q-0.171875 0.15625 -0.4375 0.15625q-0.265625 0 -0.421875 -0.15625q-0.15625 -0.171875 -0.15625 -0.46875l0 -1.703125l-4.34375 0q-0.265625 0 -0.421875 -0.140625q-0.140625 -0.140625 -0.140625 -0.359375q0 -0.203125 0.171875 -0.453125l4.78125 -6.9375q0.21875 -0.265625 0.53125 -0.265625q0.25 0 0.421875 0.171875q0.1875 0.15625 0.1875 0.4375l0 6.5625l1.09375 0zm-5.8125 0l3.53125 0l0 -5.09375l-3.53125 5.09375z" fill-rule="nonzero"/></g><g filter="url(#shadowFilter-p.23)"><use xlink:href="#p.23" transform="matrix(1.0 0.0 0.0 1.0 0.0 2.0)"/></g><defs><filter id="shadowFilter-p.23" filterUnits="userSpaceOnUse"><feGaussianBlur in="SourceAlpha" stdDeviation="2.0" result="blur"/><feComponentTransfer in="blur" color-interpolation-filters="sRGB"><feFuncR type="linear" slope="0" intercept="0.0"/><feFuncG type="linear" slope="0" intercept="0.0"/><feFuncB type="linear" slope="0" intercept="0.0"/><feFuncA type="linear" slope="0.5" intercept="0"/></feComponentTransfer></filter></defs><g id="p.23"><path fill="#cfe2f3" d="m517.5417 226.7256l0 0c0 -9.480164 7.6851807 -17.165344 17.165344 -17.165344l0 0c4.5525513 0 8.918579 1.8084869 12.137756 5.0276184c3.2191162 3.2191162 5.027588 7.58519 5.027588 12.137726l0 0c0 9.480164 -7.6851807 17.16536 -17.165344 17.16536l0 0c-9.480164 0 -17.165344 -7.685196 -17.165344 -17.16536z" fill-rule="evenodd"/><path stroke="#ffffff" stroke-width="1.0" stroke-linejoin="round" stroke-linecap="butt" d="m517.5417 226.7256l0 0c0 -9.480164 7.6851807 -17.165344 17.165344 -17.165344l0 0c4.5525513 0 8.918579 1.8084869 12.137756 5.0276184c3.2191162 3.2191162 5.027588 7.58519 5.027588 12.137726l0 0c0 9.480164 -7.6851807 17.16536 -17.165344 17.16536l0 0c-9.480164 0 -17.165344 -7.685196 -17.165344 -17.16536z" fill-rule="evenodd"/><path fill="#000000" d="m538.9443 221.47748q0.265625 0 0.40625 0.140625q0.140625 0.140625 0.140625 0.359375q0 0.203125 -0.140625 0.453125l-4.859375 9.15625q-0.1875 0.328125 -0.515625 0.328125q-0.234375 0 -0.421875 -0.15625q-0.1875 -0.171875 -0.1875 -0.40625q0 -0.15625 0.109375 -0.328125l4.578125 -8.546875l-5.0625 0q-0.265625 0 -0.40625 -0.125q-0.140625 -0.125 -0.140625 -0.359375q0 -0.25 0.140625 -0.375q0.140625 -0.140625 0.40625 -0.140625l5.953125 0z" fill-rule="nonzero"/></g><g filter="url(#shadowFilter-p.24)"><use xlink:href="#p.24" transform="matrix(1.0 0.0 0.0 1.0 0.0 2.0)"/></g><defs><filter id="shadowFilter-p.24" filterUnits="userSpaceOnUse"><feGaussianBlur in="SourceAlpha" stdDeviation="2.0" result="blur"/><feComponentTransfer in="blur" color-interpolation-filters="sRGB"><feFuncR type="linear" slope="0" intercept="0.0"/><feFuncG type="linear" slope="0" intercept="0.0"/><feFuncB type="linear" slope="0" intercept="0.0"/><feFuncA type="linear" slope="0.5" intercept="0"/></feComponentTransfer></filter></defs><g id="p.24"><path fill="#cfe2f3" d="m455.11536 157.58237l0 0c0 -9.480164 7.685211 -17.16536 17.165375 -17.16536l0 0c4.5525208 0 8.91861 1.8084869 12.137726 5.0276184c3.2191467 3.2191315 5.0276184 7.585205 5.0276184 12.137741l0 0c0 9.480164 -7.6851807 17.16536 -17.165344 17.16536l0 0c-9.480164 0 -17.165375 -7.685196 -17.165375 -17.16536z" fill-rule="evenodd"/><path stroke="#ffffff" stroke-width="1.0" stroke-linejoin="round" stroke-linecap="butt" d="m455.11536 157.58237l0 0c0 -9.480164 7.685211 -17.16536 17.165375 -17.16536l0 0c4.5525208 0 8.91861 1.8084869 12.137726 5.0276184c3.2191467 3.2191315 5.0276184 7.585205 5.0276184 12.137741l0 0c0 9.480164 -7.6851807 17.16536 -17.165344 17.16536l0 0c-9.480164 0 -17.165375 -7.685196 -17.165375 -17.16536z" fill-rule="evenodd"/><path fill="#000000" d="m475.33047 157.34987q0.90625 0.28125 1.40625 0.96875q0.515625 0.671875 0.515625 1.609375q0 1.328125 -0.96875 2.09375q-0.96875 0.75 -2.75 0.75q-1.765625 0 -2.734375 -0.75q-0.96875 -0.765625 -0.96875 -2.09375q0 -0.953125 0.515625 -1.625q0.515625 -0.6875 1.421875 -0.953125q-0.78125 -0.28125 -1.234375 -0.90625q-0.453125 -0.640625 -0.453125 -1.484375q0 -1.265625 0.90625 -2.0q0.921875 -0.75 2.546875 -0.75q1.640625 0 2.546875 0.75q0.921875 0.734375 0.921875 2.0q0 0.84375 -0.453125 1.484375q-0.453125 0.640625 -1.21875 0.90625zm-4.0625 -2.3125q0 0.90625 0.578125 1.390625q0.578125 0.484375 1.6875 0.484375q1.125 0 1.703125 -0.484375q0.578125 -0.484375 0.578125 -1.390625q0 -0.859375 -0.578125 -1.34375q-0.578125 -0.484375 -1.703125 -0.484375q-1.109375 0 -1.6875 0.484375q-0.578125 0.484375 -0.578125 1.34375zm2.265625 6.734375q2.53125 0 2.53125 -1.921875q0 -1.921875 -2.53125 -1.921875q-2.515625 0 -2.515625 1.921875q0 1.921875 2.515625 1.921875z" fill-rule="nonzero"/></g><g filter="url(#shadowFilter-p.25)"><use xlink:href="#p.25" transform="matrix(1.0 0.0 0.0 1.0 0.0 2.0)"/></g><defs><filter id="shadowFilter-p.25" filterUnits="userSpaceOnUse"><feGaussianBlur in="SourceAlpha" stdDeviation="2.0" result="blur"/><feComponentTransfer in="blur" color-interpolation-filters="sRGB"><feFuncR type="linear" slope="0" intercept="0.0"/><feFuncG type="linear" slope="0" intercept="0.0"/><feFuncB type="linear" slope="0" intercept="0.0"/><feFuncA type="linear" slope="0.5" intercept="0"/></feComponentTransfer></filter></defs><g id="p.25"><path fill="#000000" fill-opacity="0.0" d="m485.16626 106.08458l-12.881897 34.330704" fill-rule="evenodd"/><path stroke="#ffffff" stroke-width="1.0" stroke-linejoin="round" stroke-linecap="butt" d="m485.16626 106.08458l-12.881897 34.330704" fill-rule="evenodd"/></g><g filter="url(#shadowFilter-p.26)"><use xlink:href="#p.26" transform="matrix(1.0 0.0 0.0 1.0 0.0 2.0)"/></g><defs><filter id="shadowFilter-p.26" filterUnits="userSpaceOnUse"><feGaussianBlur in="SourceAlpha" stdDeviation="2.0" result="blur"/><feComponentTransfer in="blur" color-interpolation-filters="sRGB"><feFuncR type="linear" slope="0" intercept="0.0"/><feFuncG type="linear" slope="0" intercept="0.0"/><feFuncB type="linear" slope="0" intercept="0.0"/><feFuncA type="linear" slope="0.5" intercept="0"/></feComponentTransfer></filter></defs><g id="p.26"><path fill="#000000" fill-opacity="0.0" d="m445.99353 144.18881l27.02362 -43.11811" fill-rule="evenodd"/><path stroke="#ffffff" stroke-width="1.0" stroke-linejoin="round" stroke-linecap="butt" d="m445.99353 144.18881l27.02362 -43.11811" fill-rule="evenodd"/></g><g filter="url(#shadowFilter-p.27)"><use xlink:href="#p.27" transform="matrix(1.0 0.0 0.0 1.0 0.0 2.0)"/></g><defs><filter id="shadowFilter-p.27" filterUnits="userSpaceOnUse"><feGaussianBlur in="SourceAlpha" stdDeviation="2.0" result="blur"/><feComponentTransfer in="blur" color-interpolation-filters="sRGB"><feFuncR type="linear" slope="0" intercept="0.0"/><feFuncG type="linear" slope="0" intercept="0.0"/><feFuncB type="linear" slope="0" intercept="0.0"/><feFuncA type="linear" slope="0.5" intercept="0"/></feComponentTransfer></filter></defs><g id="p.27"><path fill="#000000" fill-opacity="0.0" d="m500.31238 169.95915l-10.141724 39.590546" fill-rule="evenodd"/><path stroke="#ffffff" stroke-width="1.0" stroke-linejoin="round" stroke-linecap="butt" d="m500.31238 169.95915l-10.141724 39.590546" fill-rule="evenodd"/></g><g filter="url(#shadowFilter-p.28)"><use xlink:href="#p.28" transform="matrix(1.0 0.0 0.0 1.0 0.0 2.0)"/></g><defs><filter id="shadowFilter-p.28" filterUnits="userSpaceOnUse"><feGaussianBlur in="SourceAlpha" stdDeviation="2.0" result="blur"/><feComponentTransfer in="blur" color-interpolation-filters="sRGB"><feFuncR type="linear" slope="0" intercept="0.0"/><feFuncG type="linear" slope="0" intercept="0.0"/><feFuncB type="linear" slope="0" intercept="0.0"/><feFuncA type="linear" slope="0.5" intercept="0"/></feComponentTransfer></filter></defs><g id="p.28"><path fill="#cfe2f3" d="m535.4539 155.09943l0 0c0 -9.480164 7.6851807 -17.16536 17.165344 -17.16536l0 0c4.5525513 0 8.91864 1.8084869 12.137756 5.0276184c3.2191162 3.2191315 5.027588 7.585205 5.027588 12.137741l0 0c0 9.480164 -7.6851807 17.16536 -17.165344 17.16536l0 0c-9.480164 0 -17.165344 -7.685196 -17.165344 -17.16536z" fill-rule="evenodd"/><path stroke="#ffffff" stroke-width="1.0" stroke-linejoin="round" stroke-linecap="butt" d="m535.4539 155.09943l0 0c0 -9.480164 7.6851807 -17.16536 17.165344 -17.16536l0 0c4.5525513 0 8.91864 1.8084869 12.137756 5.0276184c3.2191162 3.2191315 5.027588 7.585205 5.027588 12.137741l0 0c0 9.480164 -7.6851807 17.16536 -17.165344 17.16536l0 0c-9.480164 0 -17.165344 -7.685196 -17.165344 -17.16536z" fill-rule="evenodd"/><path fill="#000000" d="m553.55963 149.7263q1.875 0 2.890625 1.3125q1.015625 1.296875 1.015625 3.71875q0 1.734375 -0.46875 2.984375q-0.46875 1.234375 -1.359375 1.90625q-0.890625 0.65625 -2.125 0.65625q-0.84375 0 -1.671875 -0.328125q-0.828125 -0.328125 -1.40625 -0.875q-0.25 -0.234375 -0.25 -0.5q0 -0.21875 0.109375 -0.359375q0.125 -0.15625 0.28125 -0.15625q0.203125 0 0.4375 0.15625q1.265625 1.046875 2.46875 1.046875q1.3125 0 2.03125 -1.1875q0.734375 -1.1875 0.734375 -3.328125l0 -0.1875q-0.328125 0.8125 -1.09375 1.28125q-0.75 0.46875 -1.703125 0.46875q-0.9375 0 -1.671875 -0.40625q-0.734375 -0.40625 -1.140625 -1.15625q-0.40625 -0.75 -0.40625 -1.71875q0 -0.953125 0.421875 -1.703125q0.421875 -0.765625 1.1875 -1.1875q0.765625 -0.4375 1.71875 -0.4375zm0.0625 5.609375q1.015625 0 1.65625 -0.640625q0.640625 -0.640625 0.640625 -1.65625q0 -1.015625 -0.640625 -1.65625q-0.640625 -0.640625 -1.65625 -0.640625q-1.0 0 -1.609375 0.640625q-0.59375 0.625 -0.59375 1.65625q0 1.046875 0.609375 1.671875q0.609375 0.625 1.59375 0.625z" fill-rule="nonzero"/></g><g filter="url(#shadowFilter-p.29)"><use xlink:href="#p.29" transform="matrix(1.0 0.0 0.0 1.0 0.0 2.0)"/></g><defs><filter id="shadowFilter-p.29" filterUnits="userSpaceOnUse"><feGaussianBlur in="SourceAlpha" stdDeviation="2.0" result="blur"/><feComponentTransfer in="blur" color-interpolation-filters="sRGB"><feFuncR type="linear" slope="0" intercept="0.0"/><feFuncG type="linear" slope="0" intercept="0.0"/><feFuncB type="linear" slope="0" intercept="0.0"/><feFuncA type="linear" slope="0.5" intercept="0"/></feComponentTransfer></filter></defs><g id="p.29"><path fill="#000000" fill-opacity="0.0" d="m540.4815 142.96169l-38.992096 -46.803146" fill-rule="evenodd"/><path stroke="#ffffff" stroke-width="1.0" stroke-linejoin="round" stroke-linecap="butt" d="m540.4815 142.96169l-38.992096 -46.803146" fill-rule="evenodd"/></g><g filter="url(#shadowFilter-p.30)"><use xlink:href="#p.30" transform="matrix(1.0 0.0 0.0 1.0 0.0 2.0)"/></g><defs><filter id="shadowFilter-p.30" filterUnits="userSpaceOnUse"><feGaussianBlur in="SourceAlpha" stdDeviation="2.0" result="blur"/><feComponentTransfer in="blur" color-interpolation-filters="sRGB"><feFuncR type="linear" slope="0" intercept="0.0"/><feFuncG type="linear" slope="0" intercept="0.0"/><feFuncB type="linear" slope="0" intercept="0.0"/><feFuncA type="linear" slope="0.5" intercept="0"/></feComponentTransfer></filter></defs><g id="p.30"><path fill="#cfe2f3" d="m592.68243 157.58195l0 0c0 -9.480164 7.6851807 -17.16536 17.165344 -17.16536l0 0c4.5525513 0 8.91864 1.8084869 12.137756 5.0276184c3.2191162 3.2191315 5.027588 7.585205 5.027588 12.137741l0 0c0 9.480164 -7.6851807 17.16536 -17.165344 17.16536l0 0c-9.480164 0 -17.165344 -7.685196 -17.165344 -17.16536z" fill-rule="evenodd"/><path stroke="#ffffff" stroke-width="1.0" stroke-linejoin="round" stroke-linecap="butt" d="m592.68243 157.58195l0 0c0 -9.480164 7.6851807 -17.16536 17.165344 -17.16536l0 0c4.5525513 0 8.91864 1.8084869 12.137756 5.0276184c3.2191162 3.2191315 5.027588 7.585205 5.027588 12.137741l0 0c0 9.480164 -7.6851807 17.16536 -17.165344 17.16536l0 0c-9.480164 0 -17.165344 -7.685196 -17.165344 -17.16536z" fill-rule="evenodd"/><path fill="#000000" d="m611.10065 162.78696q-1.765625 0 -2.6875 -1.34375q-0.921875 -1.359375 -0.921875 -3.9375q0 -2.59375 0.921875 -3.9375q0.921875 -1.359375 2.6875 -1.359375q1.78125 0 2.703125 1.34375q0.921875 1.34375 0.921875 3.9375q0 2.59375 -0.921875 3.953125q-0.921875 1.34375 -2.703125 1.34375zm0 -1.015625q1.234375 0 1.8125 -1.03125q0.59375 -1.046875 0.59375 -3.25q0 -2.21875 -0.578125 -3.234375q-0.578125 -1.03125 -1.828125 -1.03125q-1.21875 0 -1.8125 1.03125q-0.578125 1.03125 -0.578125 3.234375q0 2.203125 0.578125 3.25q0.59375 1.03125 1.8125 1.03125z" fill-rule="nonzero"/></g><g filter="url(#shadowFilter-p.31)"><use xlink:href="#p.31" transform="matrix(1.0 0.0 0.0 1.0 0.0 2.0)"/></g><defs><filter id="shadowFilter-p.31" filterUnits="userSpaceOnUse"><feGaussianBlur in="SourceAlpha" stdDeviation="2.0" result="blur"/><feComponentTransfer in="blur" color-interpolation-filters="sRGB"><feFuncR type="linear" slope="0" intercept="0.0"/><feFuncG type="linear" slope="0" intercept="0.0"/><feFuncB type="linear" slope="0" intercept="0.0"/><feFuncA type="linear" slope="0.5" intercept="0"/></feComponentTransfer></filter></defs><g id="p.31"><path fill="#cfe2f3" d="m620.60004 88.91175l0 0c0 -9.480164 7.6851807 -17.165352 17.165344 -17.165352l0 0c4.5525513 0 8.918579 1.8084869 12.137756 5.027611c3.2191162 3.2191315 5.027588 7.585205 5.027588 12.137741l0 0c0 9.480164 -7.6851807 17.165352 -17.165344 17.165352l0 0c-9.480164 0 -17.165344 -7.6851883 -17.165344 -17.165352z" fill-rule="evenodd"/><path stroke="#ffffff" stroke-width="1.0" stroke-linejoin="round" stroke-linecap="butt" d="m620.60004 88.91175l0 0c0 -9.480164 7.6851807 -17.165352 17.165344 -17.165352l0 0c4.5525513 0 8.918579 1.8084869 12.137756 5.027611c3.2191162 3.2191315 5.027588 7.585205 5.027588 12.137741l0 0c0 9.480164 -7.6851807 17.165352 -17.165344 17.165352l0 0c-9.480164 0 -17.165344 -7.6851883 -17.165344 -17.165352z" fill-rule="evenodd"/><path fill="#000000" d="m639.45575 87.49175q0.9375 0 1.65625 0.421875q0.734375 0.40625 1.140625 1.15625q0.421875 0.75 0.421875 1.71875q0 0.953125 -0.421875 1.71875q-0.421875 0.75 -1.1875 1.1875q-0.765625 0.421875 -1.71875 0.421875q-1.875 0 -2.890625 -1.296875q-1.015625 -1.3125 -1.015625 -3.734375q0 -1.734375 0.46875 -2.96875q0.46875 -1.25 1.359375 -1.90625q0.890625 -0.671875 2.125 -0.671875q0.828125 0 1.65625 0.328125q0.828125 0.3125 1.421875 0.875q0.25 0.234375 0.25 0.5q0 0.21875 -0.125 0.375q-0.109375 0.140625 -0.28125 0.140625q-0.203125 0 -0.421875 -0.15625q-1.265625 -1.046875 -2.46875 -1.046875q-1.3125 0 -2.046875 1.1875q-0.734375 1.1875 -0.734375 3.328125l0 0.1875q0.34375 -0.828125 1.09375 -1.296875q0.765625 -0.46875 1.71875 -0.46875zm-0.171875 5.609375q1.0 0 1.59375 -0.625q0.609375 -0.640625 0.609375 -1.671875q0 -1.046875 -0.609375 -1.671875q-0.609375 -0.625 -1.609375 -0.625q-1.0 0 -1.640625 0.640625q-0.640625 0.640625 -0.640625 1.65625q0 1.015625 0.640625 1.65625q0.640625 0.640625 1.65625 0.640625z" fill-rule="nonzero"/></g><g filter="url(#shadowFilter-p.32)"><use xlink:href="#p.32" transform="matrix(1.0 0.0 0.0 1.0 0.0 2.0)"/></g><defs><filter id="shadowFilter-p.32" filterUnits="userSpaceOnUse"><feGaussianBlur in="SourceAlpha" stdDeviation="2.0" result="blur"/><feComponentTransfer in="blur" color-interpolation-filters="sRGB"><feFuncR type="linear" slope="0" intercept="0.0"/><feFuncG type="linear" slope="0" intercept="0.0"/><feFuncB type="linear" slope="0" intercept="0.0"/><feFuncA type="linear" slope="0.5" intercept="0"/></feComponentTransfer></filter></defs><g id="p.32"><path fill="#000000" fill-opacity="0.0" d="m609.8478 140.4166l15.779541 -39.37007" fill-rule="evenodd"/><path stroke="#ffffff" stroke-width="1.0" stroke-linejoin="round" stroke-linecap="butt" d="m609.8478 140.4166l15.779541 -39.37007" fill-rule="evenodd"/></g><g filter="url(#shadowFilter-p.33)"><use xlink:href="#p.33" transform="matrix(1.0 0.0 0.0 1.0 0.0 2.0)"/></g><defs><filter id="shadowFilter-p.33" filterUnits="userSpaceOnUse"><feGaussianBlur in="SourceAlpha" stdDeviation="2.0" result="blur"/><feComponentTransfer in="blur" color-interpolation-filters="sRGB"><feFuncR type="linear" slope="0" intercept="0.0"/><feFuncG type="linear" slope="0" intercept="0.0"/><feFuncB type="linear" slope="0" intercept="0.0"/><feFuncA type="linear" slope="0.5" intercept="0"/></feComponentTransfer></filter></defs><g id="p.33"><path fill="#cfe2f3" d="m649.91144 156.32625l0 0c0 -9.480164 7.6851807 -17.165344 17.165344 -17.165344l0 0c4.5525513 0 8.91864 1.8084869 12.137756 5.0276184c3.2191162 3.2191162 5.027588 7.58519 5.027588 12.137726l0 0c0 9.480164 -7.6851807 17.16536 -17.165344 17.16536l0 0c-9.480164 0 -17.165344 -7.685196 -17.165344 -17.16536z" fill-rule="evenodd"/><path stroke="#ffffff" stroke-width="1.0" stroke-linejoin="round" stroke-linecap="butt" d="m649.91144 156.32625l0 0c0 -9.480164 7.6851807 -17.165344 17.165344 -17.165344l0 0c4.5525513 0 8.91864 1.8084869 12.137756 5.0276184c3.2191162 3.2191162 5.027588 7.58519 5.027588 12.137726l0 0c0 9.480164 -7.6851807 17.16536 -17.165344 17.16536l0 0c-9.480164 0 -17.165344 -7.685196 -17.165344 -17.16536z" fill-rule="evenodd"/><path fill="#000000" d="m668.7359 154.92188q0.984375 0 1.71875 0.421875q0.734375 0.40625 1.140625 1.15625q0.40625 0.734375 0.40625 1.703125q0 0.953125 -0.4375 1.71875q-0.4375 0.75 -1.234375 1.171875q-0.78125 0.421875 -1.796875 0.421875q-0.921875 0 -1.78125 -0.328125q-0.859375 -0.328125 -1.46875 -0.875q-0.234375 -0.21875 -0.234375 -0.5q0 -0.21875 0.109375 -0.359375q0.125 -0.15625 0.296875 -0.15625q0.203125 0 0.40625 0.15625q0.640625 0.53125 1.28125 0.796875q0.65625 0.25 1.359375 0.25q1.078125 0 1.6875 -0.609375q0.625 -0.625 0.625 -1.671875q0 -1.03125 -0.625 -1.65625q-0.609375 -0.640625 -1.640625 -0.640625q-1.34375 0 -2.171875 1.03125q-0.203125 0.21875 -0.5 0.21875q-0.203125 0 -0.34375 -0.125q-0.140625 -0.125 -0.140625 -0.34375l0 -5.0625q0 -0.25 0.15625 -0.40625q0.15625 -0.15625 0.421875 -0.15625l5.171875 0q0.25 0 0.40625 0.140625q0.15625 0.125 0.15625 0.359375q0 0.234375 -0.15625 0.359375q-0.15625 0.125 -0.40625 0.125l-4.5625 0l0 3.6875q0.40625 -0.390625 0.953125 -0.609375q0.546875 -0.21875 1.203125 -0.21875z" fill-rule="nonzero"/></g><g filter="url(#shadowFilter-p.34)"><use xlink:href="#p.34" transform="matrix(1.0 0.0 0.0 1.0 0.0 2.0)"/></g><defs><filter id="shadowFilter-p.34" filterUnits="userSpaceOnUse"><feGaussianBlur in="SourceAlpha" stdDeviation="2.0" result="blur"/><feComponentTransfer in="blur" color-interpolation-filters="sRGB"><feFuncR type="linear" slope="0" intercept="0.0"/><feFuncG type="linear" slope="0" intercept="0.0"/><feFuncB type="linear" slope="0" intercept="0.0"/><feFuncA type="linear" slope="0.5" intercept="0"/></feComponentTransfer></filter></defs><g id="p.34"><path fill="#000000" fill-opacity="0.0" d="m667.0768 139.1609l-17.165344 -38.110237" fill-rule="evenodd"/><path stroke="#ffffff" stroke-width="1.0" stroke-linejoin="round" stroke-linecap="butt" d="m667.0768 139.1609l-17.165344 -38.110237" fill-rule="evenodd"/></g><g filter="url(#shadowFilter-p.35)"><use xlink:href="#p.35" transform="matrix(1.0 0.0 0.0 1.0 0.0 2.0)"/></g><defs><filter id="shadowFilter-p.35" filterUnits="userSpaceOnUse"><feGaussianBlur in="SourceAlpha" stdDeviation="2.0" result="blur"/><feComponentTransfer in="blur" color-interpolation-filters="sRGB"><feFuncR type="linear" slope="0" intercept="0.0"/><feFuncG type="linear" slope="0" intercept="0.0"/><feFuncB type="linear" slope="0" intercept="0.0"/><feFuncA type="linear" slope="0.5" intercept="0"/></feComponentTransfer></filter></defs><g id="p.35"><path fill="#000000" fill-opacity="0.0" d="m524.5879 169.95915l10.1102295 39.590546" fill-rule="evenodd"/><path stroke="#ffffff" stroke-width="1.0" stroke-linejoin="round" stroke-linecap="butt" d="m524.5879 169.95915l10.1102295 39.590546" fill-rule="evenodd"/></g><g filter="url(#shadowFilter-p.36)"><use xlink:href="#p.36" transform="matrix(1.0 0.0 0.0 1.0 0.0 2.0)"/></g><defs><filter id="shadowFilter-p.36" filterUnits="userSpaceOnUse"><feGaussianBlur in="SourceAlpha" stdDeviation="2.0" result="blur"/><feComponentTransfer in="blur" color-interpolation-filters="sRGB"><feFuncR type="linear" slope="0" intercept="0.0"/><feFuncG type="linear" slope="0" intercept="0.0"/><feFuncB type="linear" slope="0" intercept="0.0"/><feFuncA type="linear" slope="0.5" intercept="0"/></feComponentTransfer></filter></defs><g id="p.36"><path fill="#000000" fill-opacity="0.0" d="m512.45013 140.65605l-15.149628 -39.590546" fill-rule="evenodd"/><path stroke="#ffffff" stroke-width="1.0" stroke-linejoin="round" stroke-linecap="butt" d="m512.45013 140.65605l-15.149628 -39.590546" fill-rule="evenodd"/></g><path fill="#000000" fill-opacity="0.0" d="m324.02362 193.4357l68.59842 -35.74803" fill-rule="evenodd"/><path stroke="#ff0000" stroke-width="1.0" stroke-linejoin="round" stroke-linecap="butt" d="m324.02362 193.4357l63.277557 -32.97522" fill-rule="evenodd"/><path fill="#ff0000" stroke="#ff0000" stroke-width="1.0" stroke-linecap="butt" d="m388.0645 161.92525l3.2611084 -3.5619812l-4.7877502 0.63243103z" fill-rule="evenodd"/><path fill="#000000" fill-opacity="0.0" d="m294.7139 183.45145l29.322845 9.984253" fill-rule="evenodd"/><path stroke="#ff0000" stroke-width="1.0" stroke-linejoin="round" stroke-linecap="butt" d="m294.7139 183.45145l29.322845 9.984253" fill-rule="evenodd"/><path fill="#000000" fill-opacity="0.0" d="m291.81628 222.10236l32.850372 -28.976364" fill-rule="evenodd"/><path stroke="#ff0000" stroke-width="1.0" stroke-linejoin="round" stroke-linecap="butt" d="m291.81628 222.10236l32.850372 -28.976364" fill-rule="evenodd"/><path fill="#000000" fill-opacity="0.0" d="m305.64832 173.70642l86.55118 -50.3937l16.37796 28.125984l-86.55118 50.393707z" fill-rule="evenodd"/><path fill="#f4cccc" d="m325.37296 180.5035q0.5165405 -0.35498047 0.7917175 0.11759949q0.11795044 0.20254517 0.06719971 0.39482117q-0.037261963 0.18441772 -0.31295776 0.36302185l-0.3545227 0.26065063q-0.8034973 0.57632446 -0.9154358 1.3466339q-0.09844971 0.76246643 0.3103943 1.4645996l1.7926941 3.0785828q0.14938354 0.25656128 0.09298706 0.47019958q-0.06427002 0.20014954 -0.29382324 0.33380127q-0.22955322 0.13365173 -0.45669556 0.08509827q-0.22717285 -0.048538208 -0.36868286 -0.2915802l-3.113617 -5.3470154q-0.13366699 -0.22955322 -0.06375122 -0.45106506q0.08340454 -0.22935486 0.29943848 -0.35514832q0.20254517 -0.11793518 0.41619873 -0.061523438q0.21365356 0.056396484 0.33947754 0.27244568l0.41671753 0.7156372q-0.05230713 -0.71084595 0.26867676 -1.2774353q0.31311035 -0.5800934 0.9163208 -1.0036163l0.16766357 -0.1157074zm8.903229 1.3251648q0.13500977 -0.07861328 0.30029297 -0.012130737q0.17092896 0.045135498 0.27316284 0.22065735q0.18081665 0.31056213 -0.10751343 0.8400574q-0.2883606 0.5295105 -0.72283936 0.96328735q-0.42099 0.42591858 -0.907074 0.70895386q-1.4313354 0.83335876 -2.763855 0.47013855q-1.3190308 -0.3710785 -2.1917725 -1.8698578q-0.5503845 -0.9451904 -0.6103821 -1.8865967q-0.04650879 -0.9492798 0.37924194 -1.7395935q0.42578125 -0.7903137 1.2764587 -1.285614q1.2017822 -0.6997223 2.3599548 -0.32539368q1.1716919 0.36647034 1.9579468 1.7167206q0.14154053 0.24305725 0.104278564 0.42747498q-0.03161621 0.16305542 -0.26116943 0.29670715l-4.077881 2.3743134q1.3952637 2.1166534 3.3396912 0.9845276q0.49960327 -0.2908783 0.7720642 -0.6303253q0.27243042 -0.33943176 0.54385376 -0.8048401q0.22750854 -0.3855896 0.33554077 -0.44848633zm-4.596863 -2.8019104q-0.81018066 0.47172546 -0.9975281 1.2678528q-0.19519043 0.7826233 0.25283813 1.7693329l3.5782776 -2.0834198q-0.5639038 -0.9373169 -1.300415 -1.177475q-0.73651123 -0.24014282 -1.5331726 0.2237091zm9.459625 2.0137024q-0.58062744 0.33807373 -1.185852 0.5096588q-0.61312866 0.15809631 -1.1676025 0.1374054q-0.31604004 -0.014877319 -0.48916626 -0.09487915q-0.17315674 -0.07998657 -0.28323364 -0.2690277q-0.09436035 -0.16201782 -0.06274414 -0.32507324q0.03161621 -0.16305542 0.19366455 -0.2574005q0.14852905 -0.08648682 0.5421753 -0.06254578q0.52523804 0.0015411377 0.9684448 -0.07569885q0.45672607 -0.085113525 1.0103455 -0.40745544q0.68865967 -0.40097046 0.9252014 -0.864151q0.23654175 -0.46318054 -0.030761719 -0.92225647q-0.15725708 -0.2700653 -0.40802002 -0.3591156q-0.23724365 -0.09690857 -0.64556885 -0.021881104q-0.41619873 0.061523438 -1.1643372 0.29823303q-1.2622681 0.40950012 -1.9842529 0.28744507q-0.7084961 -0.12989807 -1.1094971 -0.8185272q-0.32235718 -0.5536041 -0.26116943 -1.1316528q0.066833496 -0.599411 0.46542358 -1.1569366q0.3985901 -0.55752563 1.0872192 -0.95848083q0.4861145 -0.28303528 1.0238342 -0.41531372q0.551239 -0.14013672 1.0359802 -0.11500549q0.61294556 0.05897522 0.80163574 0.38302612q0.10223389 0.17553711 0.05709839 0.3464508q-0.03161621 0.16305542 -0.18014526 0.24954224q-0.14852905 0.08648682 -0.57141113 0.043411255q-0.49038696 -0.003768921 -0.8717041 0.055526733q-0.38919067 0.045806885 -0.8618164 0.32096863q-0.5941162 0.345932 -0.80145264 0.8282471q-0.21517944 0.4688263 0.044281006 0.91441345q0.16513062 0.28355408 0.40237427 0.38046265q0.22937012 0.0834198 0.6185608 0.037612915q0.38919067 -0.045791626 1.0405884 -0.26234436q0.9742737 -0.31411743 1.5805359 -0.35975647q0.6062622 -0.04562378 1.0053711 0.17401123q0.39126587 0.20613098 0.68218994 0.70573425q0.4638672 0.7966461 0.07965088 1.6893463q-0.37860107 0.87132263 -1.4858398 1.5160065zm4.9666443 -11.443878q0.24307251 -0.14151001 0.45672607 -0.085113525q0.21365356 0.056411743 0.34732056 0.2859497l3.12146 5.3605347q0.12579346 0.21603394 0.07727051 0.44319153q-0.056427002 0.2136383 -0.299469 0.35514832q-0.21603394 0.12579346 -0.4296875 0.06939697q-0.21368408 -0.056411743 -0.33947754 -0.27244568l-0.36953735 -0.6346283q0.025299072 0.7265625 -0.32833862 1.330246q-0.3536377 0.6036682 -1.00177 0.9810486q-1.1072388 0.64468384 -2.0281982 0.3672638q-0.9152832 -0.2987671 -1.6229248 -1.5140076l-2.0049744 -3.4431458q-0.13366699 -0.22955322 -0.07727051 -0.44319153q0.06991577 -0.22151184 0.31295776 -0.36302185q0.24304199 -0.14152527 0.4432068 -0.07725525q0.21365356 0.056411743 0.34732056 0.2859497l1.9971008 3.429657q0.47964478 0.8236542 1.0317078 1.026535q0.55773926 0.18153381 1.273407 -0.2351532q0.81018066 -0.47172546 0.989624 -1.2813568q0.19296265 -0.8174896 -0.3102417 -1.6816559l-1.8084106 -3.1055908q-0.13366699 -0.22953796 -0.07723999 -0.44319153q0.069885254 -0.22151184 0.29943848 -0.35516357zm6.649933 4.6440735q-0.22955322 0.13365173 -0.45672607 0.085113525q-0.22714233 -0.048538208 -0.36868286 -0.29159546l-4.6782837 -8.034027q-0.14151001 -0.24304199 -0.07159424 -0.46455383q0.069885254 -0.22151184 0.29943848 -0.35516357q0.21606445 -0.12579346 0.42971802 -0.069381714q0.22714233 0.048538208 0.36868286 0.29159546l4.678253 8.034027q0.14154053 0.24304199 0.071624756 0.46455383q-0.056396484 0.2136383 -0.27243042 0.33943176zm4.890625 -3.9323578q0.4613037 -0.23243713 0.6814575 0.14562988q0.12582397 0.2160492 0.026672363 0.41841125q-0.085632324 0.19450378 -0.42541504 0.3561859l-0.353302 0.1695404q-1.059906 0.5086365 -1.8526611 0.26506042q-0.7871094 -0.2649231 -1.4082336 -1.3316345l-1.8555908 -3.1865997l-0.8506775 0.4953003q-0.21606445 0.12579346 -0.40048218 0.088531494q-0.18444824 -0.037261963 -0.2866516 -0.21279907q-0.110076904 -0.18904114 -0.051452637 -0.3678131q0.05078125 -0.19229126 0.2668152 -0.31806946l0.8506775 -0.49531555l-0.83343506 -1.4312744q-0.14151001 -0.24304199 -0.07727051 -0.44317627q0.056427002 -0.21365356 0.299469 -0.35516357q0.22955322 -0.13365173 0.4432068 -0.07725525q0.21929932 0.03504944 0.36080933 0.27809143l0.8334656 1.4312744l1.4042969 -0.8176422q0.20254517 -0.11793518 0.39483643 -0.06716919q0.18441772 0.037261963 0.29449463 0.2263031q0.10223389 0.17552185 0.04360962 0.35430908q-0.058654785 0.17877197 -0.26116943 0.29670715l-1.4043274 0.8176422l1.8791809 3.2271118q0.408844 0.7021332 0.8732605 0.8475952q0.464386 0.14546204 1.0551147 -0.14424133l0.353302 -0.1695404zm4.02417 -1.2220612q-0.58062744 0.33807373 -1.185852 0.5096588q-0.61309814 0.15809631 -1.1676025 0.1374054q-0.31600952 -0.014877319 -0.48916626 -0.09486389q-0.17315674 -0.08000183 -0.28323364 -0.2690277q-0.09436035 -0.16203308 -0.06271362 -0.3250885q0.03161621 -0.16305542 0.19363403 -0.2574005q0.14852905 -0.08648682 0.5421753 -0.06254578q0.52526855 0.0015411377 0.96847534 -0.07569885q0.45669556 -0.085113525 1.010315 -0.40745544q0.68865967 -0.4009552 0.9252014 -0.864151q0.23657227 -0.46318054 -0.030761719 -0.92225647q-0.15725708 -0.2700653 -0.40802002 -0.3591156q-0.23724365 -0.09690857 -0.64556885 -0.021881104q-0.41619873 0.061523438 -1.1643372 0.29823303q-1.2622681 0.40950012 -1.9842529 0.28744507q-0.7084961 -0.12989807 -1.1094666 -0.8185272q-0.3223877 -0.5536041 -0.26119995 -1.1316528q0.066833496 -0.599411 0.46542358 -1.1569366q0.3985901 -0.55752563 1.0872498 -0.95848083q0.48608398 -0.28303528 1.0238342 -0.41531372q0.5512085 -0.14013672 1.0359497 -0.11500549q0.61294556 0.05897522 0.80163574 0.38302612q0.10223389 0.17553711 0.05709839 0.3464508q-0.03161621 0.16305542 -0.18014526 0.24954224q-0.14852905 0.08648682 -0.57141113 0.043411255q-0.49035645 -0.003768921 -0.8717041 0.055526733q-0.38919067 0.045806885 -0.8617859 0.32096863q-0.5941467 0.345932 -0.80148315 0.8282471q-0.21517944 0.4688263 0.044281006 0.91441345q0.16513062 0.28355408 0.40237427 0.38046265q0.22937012 0.0834198 0.6185608 0.037612915q0.38919067 -0.045791626 1.0405884 -0.26234436q0.9742737 -0.31411743 1.5805359 -0.35975647q0.6062622 -0.04562378 1.0053711 0.17401123q0.39126587 0.20613098 0.68218994 0.70573425q0.4638977 0.7966461 0.07965088 1.6893463q-0.37857056 0.87132263 -1.4858398 1.5160065zm7.778839 -4.5653076q-0.22955322 0.13365173 -0.45672607 0.085113525q-0.22714233 -0.048553467 -0.36868286 -0.29159546l-3.113617 -5.3470154q-0.13363647 -0.22955322 -0.06375122 -0.4510498q0.06991577 -0.22151184 0.299469 -0.35516357q0.22955322 -0.13365173 0.4432068 -0.07725525q0.21365356 0.056411743 0.34732056 0.2859497l3.1135864 5.3470306q0.14941406 0.25654602 0.09298706 0.47018433q-0.0642395 0.20014954 -0.29379272 0.33380127zm-4.48172 -7.696472q-0.2970581 0.17297363 -0.5883179 0.10749817q-0.29125977 -0.065460205 -0.4642334 -0.3625183q-0.15725708 -0.27005005 -0.07043457 -0.5556488q0.08682251 -0.28559875 0.38391113 -0.4585724q0.31054688 -0.18081665 0.60180664 -0.115356445q0.29125977 0.065460205 0.44851685 0.33551025q0.17297363 0.2970581 0.08615112 0.5826721q-0.08682251 0.28559875 -0.3973999 0.4664154zm6.2802124 -1.9027863q2.214508 -1.2893677 3.6376343 1.154602l1.9971008 3.429657q0.14154053 0.24304199 0.08514404 0.4566803q-0.042907715 0.20579529 -0.28598022 0.3473053q-0.24304199 0.14151001 -0.47018433 0.0929718q-0.21368408 -0.056411743 -0.3551941 -0.29945374l-1.9577942 -3.3621368q-0.50320435 -0.86416626 -1.0688171 -1.0591888q-0.552063 -0.20289612 -1.2947388 0.2295227q-0.8506775 0.4953003 -1.0571594 1.3206482q-0.20083618 0.80400085 0.3102417 1.6816711l1.8005371 3.0920868q0.14154053 0.24304199 0.08514404 0.45669556q-0.042907715 0.20578003 -0.2859497 0.34729004q-0.24307251 0.14152527 -0.47021484 0.0929718q-0.21365356 -0.056396484 -0.3551941 -0.29945374l-3.113617 -5.3470154q-0.13363647 -0.22953796 -0.07723999 -0.44319153q0.069885254 -0.22151184 0.31295776 -0.36302185q0.22955322 -0.13365173 0.4296875 -0.069381714q0.21365356 0.056396484 0.33947754 0.27244568l0.3774109 0.64811707q-0.019683838 -0.7479248 0.34747314 -1.3594666q0.38064575 -0.6194 1.0692749 -1.0203552zm8.320648 3.7074585q-0.31054688 0.18083191 -0.62316895 0.10972595q-0.3204956 -0.084609985 -0.5091858 -0.40867615q-0.18084717 -0.31056213 -0.09625244 -0.6310272q0.08459473 -0.3204651 0.39517212 -0.501297q0.28356934 -0.1651001 0.60406494 -0.08049011q0.3204651 0.084609985 0.50131226 0.39517212q0.18869019 0.32406616 0.10409546 0.64453125q-0.09246826 0.30696106 -0.3760376 0.47206116zm2.9004822 -1.6887665q-0.3105774 0.18081665 -0.62319946 0.10971069q-0.3204651 -0.084609985 -0.5091858 -0.40867615q-0.18081665 -0.31054688 -0.096221924 -0.6310272q0.08459473 -0.3204651 0.39517212 -0.50128174q0.28356934 -0.1651001 0.6040344 -0.08050537q0.3204956 0.084609985 0.5013428 0.39517212q0.18869019 0.32406616 0.10409546 0.64453125q-0.09246826 0.30696106 -0.3760376 0.47207642zm2.9004822 -1.6887817q-0.3105774 0.18083191 -0.62319946 0.10972595q-0.3204956 -0.084609985 -0.5091858 -0.40867615q-0.18084717 -0.31056213 -0.09625244 -0.6310272q0.084625244 -0.3204651 0.39520264 -0.501297q0.28353882 -0.1651001 0.6040344 -0.08049011q0.3204956 0.084609985 0.50131226 0.39517212q0.1887207 0.3240509 0.10409546 0.64453125q-0.09246826 0.30696106 -0.37600708 0.47206116z" fill-rule="nonzero"/></g></svg>