<svg version="1.1" viewBox="0.0 0.0 605.3753280839895 313.3517060367454" fill="none" stroke="none" stroke-linecap="square" stroke-miterlimit="10" xmlns:xlink="http://www.w3.org/1999/xlink" xmlns="http://www.w3.org/2000/svg"><clipPath id="p.0"><path d="m0 0l605.3753 0l0 313.3517l-605.3753 0l0 -313.3517z" clip-rule="nonzero"/></clipPath><g clip-path="url(#p.0)"><path fill="#000000" fill-opacity="0.0" d="m0 0l605.3753 0l0 313.3517l-605.3753 0z" fill-rule="evenodd"/><g filter="url(#shadowFilter-p.1)"><use xlink:href="#p.1" transform="matrix(1.0 0.0 0.0 1.0 0.0 2.0)"/></g><defs><filter id="shadowFilter-p.1" filterUnits="userSpaceOnUse"><feGaussianBlur in="SourceAlpha" stdDeviation="2.0" result="blur"/><feComponentTransfer in="blur" color-interpolation-filters="sRGB"><feFuncR type="linear" slope="0" intercept="0.0"/><feFuncG type="linear" slope="0" intercept="0.0"/><feFuncB type="linear" slope="0" intercept="0.0"/><feFuncA type="linear" slope="0.5" intercept="0"/></feComponentTransfer></filter></defs><g id="p.1"><path fill="#cfe2f3" d="m81.32808 174.43164l0 0c0 -9.480164 7.6851883 -17.165344 17.165352 -17.165344l0 0c4.552536 0 8.91861 1.8084869 12.137741 5.0276184c3.2191238 3.2191162 5.027611 7.58519 5.027611 12.137726l0 0c0 9.480164 -7.6851883 17.16536 -17.165352 17.16536l0 0c-9.480164 0 -17.165352 -7.685196 -17.165352 -17.16536z" fill-rule="evenodd"/><path stroke="#ffffff" stroke-width="1.0" stroke-linejoin="round" stroke-linecap="butt" d="m81.32808 174.43164l0 0c0 -9.480164 7.6851883 -17.165344 17.165352 -17.165344l0 0c4.552536 0 8.91861 1.8084869 12.137741 5.0276184c3.2191238 3.2191162 5.027611 7.58519 5.027611 12.137726l0 0c0 9.480164 -7.6851883 17.16536 -17.165352 17.16536l0 0c-9.480164 0 -17.165352 -7.685196 -17.165352 -17.16536z" fill-rule="evenodd"/><path fill="#000000" d="m102.73069 169.18352q0.265625 0 0.40625 0.140625q0.140625 0.140625 0.140625 0.359375q0 0.203125 -0.140625 0.453125l-4.859375 9.15625q-0.1875 0.328125 -0.515625 0.328125q-0.234375 0 -0.421875 -0.15625q-0.1875 -0.171875 -0.1875 -0.40625q0 -0.15625 0.109375 -0.328125l4.578125 -8.546875l-5.0625 0q-0.265625 0 -0.40625 -0.125q-0.140625 -0.125 -0.140625 -0.359375q0 -0.25 0.140625 -0.375q0.140625 -0.140625 0.40625 -0.140625l5.953125 0z" fill-rule="nonzero"/></g><g filter="url(#shadowFilter-p.2)"><use xlink:href="#p.2" transform="matrix(1.0 0.0 0.0 1.0 0.0 2.0)"/></g><defs><filter id="shadowFilter-p.2" filterUnits="userSpaceOnUse"><feGaussianBlur in="SourceAlpha" stdDeviation="2.0" result="blur"/><feComponentTransfer in="blur" color-interpolation-filters="sRGB"><feFuncR type="linear" slope="0" intercept="0.0"/><feFuncG type="linear" slope="0" intercept="0.0"/><feFuncB type="linear" slope="0" intercept="0.0"/><feFuncA type="linear" slope="0.5" intercept="0"/></feComponentTransfer></filter></defs><g id="p.2"><path fill="#f4cccc" d="m76.3097 223.0936l0 0c0 -9.480164 7.685196 -17.16536 17.16536 -17.16536l0 0c4.552536 0 8.91861 1.8084869 12.137733 5.0276184c3.2191315 3.2191315 5.0276184 7.585205 5.0276184 12.137741l0 0c0 9.480164 -7.6851883 17.165344 -17.165352 17.165344l0 0c-9.480164 0 -17.16536 -7.6851807 -17.16536 -17.165344z" fill-rule="evenodd"/><path stroke="#ffffff" stroke-width="1.0" stroke-linejoin="round" stroke-linecap="butt" d="m76.3097 223.0936l0 0c0 -9.480164 7.685196 -17.16536 17.16536 -17.16536l0 0c4.552536 0 8.91861 1.8084869 12.137733 5.0276184c3.2191315 3.2191315 5.0276184 7.585205 5.0276184 12.137741l0 0c0 9.480164 -7.6851883 17.165344 -17.165352 17.165344l0 0c-9.480164 0 -17.16536 -7.6851807 -17.16536 -17.165344z" fill-rule="evenodd"/><path fill="#000000" d="m94.41544 217.72046q1.875 0 2.890625 1.3125q1.015625 1.296875 1.015625 3.71875q0 1.734375 -0.46875 2.984375q-0.46875 1.234375 -1.359375 1.90625q-0.890625 0.65625 -2.125 0.65625q-0.84375 0 -1.671875 -0.328125q-0.828125 -0.328125 -1.40625 -0.875q-0.25 -0.234375 -0.25 -0.5q0 -0.21875 0.109375 -0.359375q0.125 -0.15625 0.28125 -0.15625q0.203125 0 0.4375 0.15625q1.265625 1.046875 2.46875 1.046875q1.3125 0 2.03125 -1.1875q0.734375 -1.1875 0.734375 -3.328125l0 -0.1875q-0.328125 0.8125 -1.09375 1.28125q-0.75 0.46875 -1.703125 0.46875q-0.9375 0 -1.671875 -0.40625q-0.734375 -0.40625 -1.140625 -1.15625q-0.40625 -0.75 -0.40625 -1.71875q0 -0.953125 0.421875 -1.703125q0.421875 -0.765625 1.1875 -1.1875q0.765625 -0.4375 1.71875 -0.4375zm0.0625 5.609375q1.015625 0 1.65625 -0.640625q0.640625 -0.640625 0.640625 -1.65625q0 -1.015625 -0.640625 -1.65625q-0.640625 -0.640625 -1.65625 -0.640625q-1.0 0 -1.609375 0.640625q-0.59375 0.625 -0.59375 1.65625q0 1.046875 0.609375 1.671875q0.609375 0.625 1.59375 0.625z" fill-rule="nonzero"/></g><g filter="url(#shadowFilter-p.3)"><use xlink:href="#p.3" transform="matrix(1.0 0.0 0.0 1.0 0.0 2.0)"/></g><defs><filter id="shadowFilter-p.3" filterUnits="userSpaceOnUse"><feGaussianBlur in="SourceAlpha" stdDeviation="2.0" result="blur"/><feComponentTransfer in="blur" color-interpolation-filters="sRGB"><feFuncR type="linear" slope="0" intercept="0.0"/><feFuncG type="linear" slope="0" intercept="0.0"/><feFuncB type="linear" slope="0" intercept="0.0"/><feFuncA type="linear" slope="0.5" intercept="0"/></feComponentTransfer></filter></defs><g id="p.3"><path fill="#cfe2f3" d="m81.328224 125.767494l0 0c0 -9.480164 7.685196 -17.16536 17.16536 -17.16536l0 0c4.5525284 0 8.91861 1.8084869 12.137733 5.0276184c3.2191315 3.2191315 5.0276184 7.585205 5.0276184 12.137741l0 0c0 9.480156 -7.6851883 17.165352 -17.165352 17.165352l0 0c-9.480164 0 -17.16536 -7.685196 -17.16536 -17.165352z" fill-rule="evenodd"/><path stroke="#ffffff" stroke-width="1.0" stroke-linejoin="round" stroke-linecap="butt" d="m81.328224 125.767494l0 0c0 -9.480164 7.685196 -17.16536 17.16536 -17.16536l0 0c4.5525284 0 8.91861 1.8084869 12.137733 5.0276184c3.2191315 3.2191315 5.0276184 7.585205 5.0276184 12.137741l0 0c0 9.480156 -7.6851883 17.165352 -17.165352 17.165352l0 0c-9.480164 0 -17.16536 -7.685196 -17.16536 -17.165352z" fill-rule="evenodd"/><path fill="#000000" d="m101.13709 125.534996q0.9375 0.265625 1.421875 0.921875q0.484375 0.640625 0.484375 1.5937424q0 1.34375 -0.90625 2.125q-0.90625 0.78125 -2.46875 0.78125q-0.953125 0 -1.828125 -0.328125q-0.875 -0.328125 -1.46875 -0.875q-0.234375 -0.21875 -0.234375 -0.5q0 -0.21875 0.109375 -0.359375q0.125 -0.15625 0.28125 -0.15625q0.203125 0 0.40625 0.15625q0.671875 0.546875 1.3125 0.796875q0.65625 0.25 1.40625 0.25q1.078125 0 1.640625 -0.5q0.5625 -0.5 0.5625 -1.4375q0 -1.8906174 -2.359375 -1.8906174l-0.78125 0q-0.234375 0 -0.375 -0.15625q-0.140625 -0.15625 -0.140625 -0.359375q0 -0.203125 0.140625 -0.34375q0.140625 -0.15625 0.375 -0.15625l0.546875 0q1.140625 0 1.75 -0.5q0.609375 -0.5 0.609375 -1.453125q0 -0.84375 -0.5 -1.28125q-0.484375 -0.453125 -1.390625 -0.453125q-0.703125 0 -1.34375 0.265625q-0.640625 0.25 -1.28125 0.78125q-0.21875 0.15625 -0.421875 0.15625q-0.15625 0 -0.28125 -0.140625q-0.109375 -0.15625 -0.109375 -0.375q0 -0.28125 0.234375 -0.5q0.59375 -0.5625 1.453125 -0.875q0.859375 -0.328125 1.765625 -0.328125q1.40625 0 2.234375 0.71875q0.84375 0.71875 0.828125 1.9375q0 0.875 -0.453125 1.546875q-0.453125 0.65625 -1.21875 0.9375z" fill-rule="nonzero"/></g><g filter="url(#shadowFilter-p.4)"><use xlink:href="#p.4" transform="matrix(1.0 0.0 0.0 1.0 0.0 2.0)"/></g><defs><filter id="shadowFilter-p.4" filterUnits="userSpaceOnUse"><feGaussianBlur in="SourceAlpha" stdDeviation="2.0" result="blur"/><feComponentTransfer in="blur" color-interpolation-filters="sRGB"><feFuncR type="linear" slope="0" intercept="0.0"/><feFuncG type="linear" slope="0" intercept="0.0"/><feFuncB type="linear" slope="0" intercept="0.0"/><feFuncA type="linear" slope="0.5" intercept="0"/></feComponentTransfer></filter></defs><g id="p.4"><path fill="#fff2cc" d="m124.003525 26.979595l0 0c0 -9.480164 7.6851807 -17.165356 17.165344 -17.165356l0 0c4.552536 0 8.91861 1.8084869 12.137741 5.0276155c3.2191315 3.2191277 5.0276184 7.585203 5.0276184 12.137739l0 0c0 9.480164 -7.685196 17.165352 -17.16536 17.165352l0 0c-9.480164 0 -17.165344 -7.6851883 -17.165344 -17.165352z" fill-rule="evenodd"/><path stroke="#ffffff" stroke-width="1.0" stroke-linejoin="round" stroke-linecap="butt" d="m124.003525 26.979595l0 0c0 -9.480164 7.6851807 -17.165356 17.165344 -17.165356l0 0c4.552536 0 8.91861 1.8084869 12.137741 5.0276155c3.2191315 3.2191277 5.0276184 7.585203 5.0276184 12.137739l0 0c0 9.480164 -7.685196 17.165352 -17.16536 17.165352l0 0c-9.480164 0 -17.165344 -7.6851883 -17.165344 -17.165352z" fill-rule="evenodd"/><path fill="#000000" d="m142.42177 32.184597q-1.765625 0 -2.6875 -1.3437519q-0.921875 -1.359375 -0.921875 -3.9375q0 -2.59375 0.921875 -3.9375q0.921875 -1.359375 2.6875 -1.359375q1.78125 0 2.703125 1.34375q0.921875 1.34375 0.921875 3.9375q0 2.59375 -0.921875 3.953125q-0.921875 1.3437519 -2.703125 1.3437519zm0 -1.0156269q1.234375 0 1.8125 -1.03125q0.59375 -1.046875 0.59375 -3.25q0 -2.21875 -0.578125 -3.234375q-0.578125 -1.03125 -1.828125 -1.03125q-1.21875 0 -1.8125 1.03125q-0.578125 1.03125 -0.578125 3.234375q0 2.203125 0.578125 3.25q0.59375 1.03125 1.8125 1.03125z" fill-rule="nonzero"/></g><g filter="url(#shadowFilter-p.5)"><use xlink:href="#p.5" transform="matrix(1.0 0.0 0.0 1.0 0.0 2.0)"/></g><defs><filter id="shadowFilter-p.5" filterUnits="userSpaceOnUse"><feGaussianBlur in="SourceAlpha" stdDeviation="2.0" result="blur"/><feComponentTransfer in="blur" color-interpolation-filters="sRGB"><feFuncR type="linear" slope="0" intercept="0.0"/><feFuncG type="linear" slope="0" intercept="0.0"/><feFuncB type="linear" slope="0" intercept="0.0"/><feFuncA type="linear" slope="0.5" intercept="0"/></feComponentTransfer></filter></defs><g id="p.5"><path fill="#cfe2f3" d="m124.00362 125.7676l0 0c0 -9.480164 7.6851807 -17.165352 17.165344 -17.165352l0 0c4.552536 0 8.91861 1.8084869 12.137741 5.0276184c3.2191315 3.2191238 5.0276184 7.5851974 5.0276184 12.137733l0 0c0 9.480171 -7.685196 17.165352 -17.16536 17.165352l0 0c-9.480164 0 -17.165344 -7.6851807 -17.165344 -17.165352z" fill-rule="evenodd"/><path stroke="#ffffff" stroke-width="1.0" stroke-linejoin="round" stroke-linecap="butt" d="m124.00362 125.7676l0 0c0 -9.480164 7.6851807 -17.165352 17.165344 -17.165352l0 0c4.552536 0 8.91861 1.8084869 12.137741 5.0276184c3.2191315 3.2191238 5.0276184 7.5851974 5.0276184 12.137733l0 0c0 9.480171 -7.685196 17.165352 -17.16536 17.165352l0 0c-9.480164 0 -17.165344 -7.6851807 -17.165344 -17.165352z" fill-rule="evenodd"/><path fill="#000000" d="m145.84373 127.61323q0.265625 0 0.40625 0.140625q0.15625 0.140625 0.15625 0.35938263q0 0.484375 -0.5625 0.484375l-1.09375 0l0 1.703125q0 0.296875 -0.171875 0.46875q-0.171875 0.15625 -0.4375 0.15625q-0.265625 0 -0.421875 -0.15625q-0.15625 -0.171875 -0.15625 -0.46875l0 -1.703125l-4.34375 0q-0.265625 0 -0.421875 -0.140625q-0.140625 -0.140625 -0.140625 -0.359375q0 -0.20313263 0.171875 -0.45313263l4.78125 -6.9375q0.21875 -0.265625 0.53125 -0.265625q0.25 0 0.421875 0.171875q0.1875 0.15625 0.1875 0.4375l0 6.5625l1.09375 0zm-5.8125 0l3.53125 0l0 -5.09375l-3.53125 5.09375z" fill-rule="nonzero"/></g><g filter="url(#shadowFilter-p.6)"><use xlink:href="#p.6" transform="matrix(1.0 0.0 0.0 1.0 0.0 2.0)"/></g><defs><filter id="shadowFilter-p.6" filterUnits="userSpaceOnUse"><feGaussianBlur in="SourceAlpha" stdDeviation="2.0" result="blur"/><feComponentTransfer in="blur" color-interpolation-filters="sRGB"><feFuncR type="linear" slope="0" intercept="0.0"/><feFuncG type="linear" slope="0" intercept="0.0"/><feFuncB type="linear" slope="0" intercept="0.0"/><feFuncA type="linear" slope="0.5" intercept="0"/></feComponentTransfer></filter></defs><g id="p.6"><path fill="#cfe2f3" d="m124.00251 81.109924l0 0c0 -9.480164 7.6851883 -17.165352 17.165352 -17.165352l0 0c4.552536 0 8.91861 1.8084869 12.137741 5.027611c3.2191315 3.2191315 5.0276184 7.585205 5.0276184 12.137741l0 0c0 9.480164 -7.685196 17.165352 -17.16536 17.165352l0 0c-9.480164 0 -17.165352 -7.6851883 -17.165352 -17.165352z" fill-rule="evenodd"/><path stroke="#ffffff" stroke-width="1.0" stroke-linejoin="round" stroke-linecap="butt" d="m124.00251 81.109924l0 0c0 -9.480164 7.6851883 -17.165352 17.165352 -17.165352l0 0c4.552536 0 8.91861 1.8084869 12.137741 5.027611c3.2191315 3.2191315 5.0276184 7.585205 5.0276184 12.137741l0 0c0 9.480164 -7.685196 17.165352 -17.16536 17.165352l0 0c-9.480164 0 -17.165352 -7.6851883 -17.165352 -17.165352z" fill-rule="evenodd"/><path fill="#000000" d="m145.23325 85.1743q0.265625 0 0.40625 0.140625q0.15625 0.125 0.15625 0.359375q0 0.25 -0.140625 0.390625q-0.140625 0.125 -0.421875 0.125l-4.84375 0q-0.28125 0 -0.421875 -0.125q-0.140625 -0.140625 -0.140625 -0.390625q0 -0.234375 0.140625 -0.359375q0.15625 -0.140625 0.421875 -0.140625l1.8125 0l0 -7.84375l-1.59375 1.03125q-0.109375 0.078125 -0.234375 0.078125q-0.203125 0 -0.359375 -0.1875q-0.15625 -0.203125 -0.15625 -0.421875q0 -0.296875 0.234375 -0.4375l2.234375 -1.453125q0.25 -0.15625 0.515625 -0.15625q0.25 0 0.40625 0.171875q0.15625 0.15625 0.15625 0.4375l0 8.78125l1.828125 0z" fill-rule="nonzero"/></g><g filter="url(#shadowFilter-p.7)"><use xlink:href="#p.7" transform="matrix(1.0 0.0 0.0 1.0 0.0 2.0)"/></g><defs><filter id="shadowFilter-p.7" filterUnits="userSpaceOnUse"><feGaussianBlur in="SourceAlpha" stdDeviation="2.0" result="blur"/><feComponentTransfer in="blur" color-interpolation-filters="sRGB"><feFuncR type="linear" slope="0" intercept="0.0"/><feFuncG type="linear" slope="0" intercept="0.0"/><feFuncB type="linear" slope="0" intercept="0.0"/><feFuncA type="linear" slope="0.5" intercept="0"/></feComponentTransfer></filter></defs><g id="p.7"><path fill="#000000" fill-opacity="0.0" d="m141.16887 44.144947l0 19.811024" fill-rule="evenodd"/><path stroke="#ffffff" stroke-width="1.0" stroke-linejoin="round" stroke-linecap="butt" d="m141.16887 44.144947l0 19.811024" fill-rule="evenodd"/></g><g filter="url(#shadowFilter-p.8)"><use xlink:href="#p.8" transform="matrix(1.0 0.0 0.0 1.0 0.0 2.0)"/></g><defs><filter id="shadowFilter-p.8" filterUnits="userSpaceOnUse"><feGaussianBlur in="SourceAlpha" stdDeviation="2.0" result="blur"/><feComponentTransfer in="blur" color-interpolation-filters="sRGB"><feFuncR type="linear" slope="0" intercept="0.0"/><feFuncG type="linear" slope="0" intercept="0.0"/><feFuncB type="linear" slope="0" intercept="0.0"/><feFuncA type="linear" slope="0.5" intercept="0"/></feComponentTransfer></filter></defs><g id="p.8"><path fill="#000000" fill-opacity="0.0" d="m110.63132 113.62975l18.393707 -20.377953" fill-rule="evenodd"/><path stroke="#ffffff" stroke-width="1.0" stroke-linejoin="round" stroke-linecap="butt" d="m110.63132 113.62975l18.393707 -20.377953" fill-rule="evenodd"/></g><g filter="url(#shadowFilter-p.9)"><use xlink:href="#p.9" transform="matrix(1.0 0.0 0.0 1.0 0.0 2.0)"/></g><defs><filter id="shadowFilter-p.9" filterUnits="userSpaceOnUse"><feGaussianBlur in="SourceAlpha" stdDeviation="2.0" result="blur"/><feComponentTransfer in="blur" color-interpolation-filters="sRGB"><feFuncR type="linear" slope="0" intercept="0.0"/><feFuncG type="linear" slope="0" intercept="0.0"/><feFuncB type="linear" slope="0" intercept="0.0"/><feFuncA type="linear" slope="0.5" intercept="0"/></feComponentTransfer></filter></defs><g id="p.9"><path fill="#000000" fill-opacity="0.0" d="m71.282104 186.56877l22.204727 19.370087" fill-rule="evenodd"/><path stroke="#ffffff" stroke-width="1.0" stroke-linejoin="round" stroke-linecap="butt" d="m71.282104 186.56877l22.204727 19.370087" fill-rule="evenodd"/></g><g filter="url(#shadowFilter-p.10)"><use xlink:href="#p.10" transform="matrix(1.0 0.0 0.0 1.0 0.0 2.0)"/></g><defs><filter id="shadowFilter-p.10" filterUnits="userSpaceOnUse"><feGaussianBlur in="SourceAlpha" stdDeviation="2.0" result="blur"/><feComponentTransfer in="blur" color-interpolation-filters="sRGB"><feFuncR type="linear" slope="0" intercept="0.0"/><feFuncG type="linear" slope="0" intercept="0.0"/><feFuncB type="linear" slope="0" intercept="0.0"/><feFuncA type="linear" slope="0.5" intercept="0"/></feComponentTransfer></filter></defs><g id="p.10"><path fill="#cfe2f3" d="m183.96835 81.109924l0 0c0 -9.480164 7.685196 -17.165352 17.16536 -17.165352l0 0c4.5525208 0 8.91861 1.8084869 12.137726 5.027611c3.2191315 3.2191315 5.0276184 7.585205 5.0276184 12.137741l0 0c0 9.480164 -7.6851807 17.165352 -17.165344 17.165352l0 0c-9.480164 0 -17.16536 -7.6851883 -17.16536 -17.165352z" fill-rule="evenodd"/><path stroke="#ffffff" stroke-width="1.0" stroke-linejoin="round" stroke-linecap="butt" d="m183.96835 81.109924l0 0c0 -9.480164 7.685196 -17.165352 17.16536 -17.165352l0 0c4.5525208 0 8.91861 1.8084869 12.137726 5.027611c3.2191315 3.2191315 5.0276184 7.585205 5.0276184 12.137741l0 0c0 9.480164 -7.6851807 17.165352 -17.165344 17.165352l0 0c-9.480164 0 -17.16536 -7.6851883 -17.16536 -17.165352z" fill-rule="evenodd"/><path fill="#000000" d="m205.4491 85.1743q0.25 0 0.390625 0.140625q0.15625 0.125 0.15625 0.359375q0 0.515625 -0.546875 0.515625l-5.75 0q-0.25 0 -0.421875 -0.15625q-0.15625 -0.15625 -0.15625 -0.375q0 -0.28125 0.203125 -0.484375l3.53125 -3.875q0.734375 -0.828125 1.0625 -1.46875q0.34375 -0.65625 0.34375 -1.328125q0 -0.84375 -0.5 -1.296875q-0.484375 -0.453125 -1.390625 -0.453125q-0.703125 0 -1.34375 0.265625q-0.640625 0.25 -1.28125 0.78125q-0.21875 0.171875 -0.421875 0.171875q-0.15625 0 -0.28125 -0.15625q-0.109375 -0.15625 -0.109375 -0.375q0 -0.3125 0.234375 -0.5q0.59375 -0.5625 1.453125 -0.875q0.875 -0.328125 1.78125 -0.328125q1.390625 0 2.21875 0.734375q0.828125 0.734375 0.828125 1.984375q0 0.890625 -0.40625 1.71875q-0.390625 0.8125 -1.3125 1.828125l-2.9375 3.171875l4.65625 0z" fill-rule="nonzero"/></g><g filter="url(#shadowFilter-p.11)"><use xlink:href="#p.11" transform="matrix(1.0 0.0 0.0 1.0 0.0 2.0)"/></g><defs><filter id="shadowFilter-p.11" filterUnits="userSpaceOnUse"><feGaussianBlur in="SourceAlpha" stdDeviation="2.0" result="blur"/><feComponentTransfer in="blur" color-interpolation-filters="sRGB"><feFuncR type="linear" slope="0" intercept="0.0"/><feFuncG type="linear" slope="0" intercept="0.0"/><feFuncB type="linear" slope="0" intercept="0.0"/><feFuncA type="linear" slope="0.5" intercept="0"/></feComponentTransfer></filter></defs><g id="p.11"><path fill="#000000" fill-opacity="0.0" d="m188.99597 68.97218l-35.685043 -29.858265" fill-rule="evenodd"/><path stroke="#ffffff" stroke-width="1.0" stroke-linejoin="round" stroke-linecap="butt" d="m188.99597 68.97218l-35.685043 -29.858265" fill-rule="evenodd"/></g><g filter="url(#shadowFilter-p.12)"><use xlink:href="#p.12" transform="matrix(1.0 0.0 0.0 1.0 0.0 2.0)"/></g><defs><filter id="shadowFilter-p.12" filterUnits="userSpaceOnUse"><feGaussianBlur in="SourceAlpha" stdDeviation="2.0" result="blur"/><feComponentTransfer in="blur" color-interpolation-filters="sRGB"><feFuncR type="linear" slope="0" intercept="0.0"/><feFuncG type="linear" slope="0" intercept="0.0"/><feFuncB type="linear" slope="0" intercept="0.0"/><feFuncA type="linear" slope="0.5" intercept="0"/></feComponentTransfer></filter></defs><g id="p.12"><path fill="#cfe2f3" d="m41.979015 174.43103l0 0c0 -9.480164 7.6851883 -17.165344 17.165352 -17.165344l0 0c4.552536 0 8.918613 1.8084869 12.137737 5.0276184c3.2191315 3.2191162 5.0276184 7.58519 5.0276184 12.137726l0 0c0 9.480164 -7.6851883 17.16536 -17.165356 17.16536l0 0c-9.480164 0 -17.165352 -7.685196 -17.165352 -17.16536z" fill-rule="evenodd"/><path stroke="#ffffff" stroke-width="1.0" stroke-linejoin="round" stroke-linecap="butt" d="m41.979015 174.43103l0 0c0 -9.480164 7.6851883 -17.165344 17.165352 -17.165344l0 0c4.552536 0 8.918613 1.8084869 12.137737 5.0276184c3.2191315 3.2191162 5.0276184 7.58519 5.0276184 12.137726l0 0c0 9.480164 -7.6851883 17.16536 -17.165356 17.16536l0 0c-9.480164 0 -17.165352 -7.685196 -17.165352 -17.16536z" fill-rule="evenodd"/><path fill="#000000" d="m60.834755 173.01103q0.9375 0 1.65625 0.421875q0.734375 0.40625 1.140625 1.15625q0.421875 0.75 0.421875 1.71875q0 0.953125 -0.421875 1.71875q-0.421875 0.75 -1.1875 1.1875q-0.765625 0.421875 -1.71875 0.421875q-1.875 0 -2.890625 -1.296875q-1.015625 -1.3125 -1.015625 -3.734375q0 -1.734375 0.46875 -2.96875q0.46875 -1.25 1.359375 -1.90625q0.890625 -0.671875 2.125 -0.671875q0.828125 0 1.65625 0.328125q0.828125 0.3125 1.421875 0.875q0.25 0.234375 0.25 0.5q0 0.21875 -0.125 0.375q-0.109375 0.140625 -0.28125 0.140625q-0.203125 0 -0.421875 -0.15625q-1.265625 -1.046875 -2.46875 -1.046875q-1.3125 0 -2.046875 1.1875q-0.734375 1.1875 -0.734375 3.328125l0 0.1875q0.34375 -0.828125 1.09375 -1.296875q0.765625 -0.46875 1.71875 -0.46875zm-0.171875 5.609375q1.0 0 1.59375 -0.625q0.609375 -0.640625 0.609375 -1.671875q0 -1.046875 -0.609375 -1.671875q-0.609375 -0.625 -1.609375 -0.625q-1.0 0 -1.640625 0.640625q-0.640625 0.640625 -0.640625 1.65625q0 1.015625 0.640625 1.65625q0.640625 0.640625 1.65625 0.640625z" fill-rule="nonzero"/></g><g filter="url(#shadowFilter-p.13)"><use xlink:href="#p.13" transform="matrix(1.0 0.0 0.0 1.0 0.0 2.0)"/></g><defs><filter id="shadowFilter-p.13" filterUnits="userSpaceOnUse"><feGaussianBlur in="SourceAlpha" stdDeviation="2.0" result="blur"/><feComponentTransfer in="blur" color-interpolation-filters="sRGB"><feFuncR type="linear" slope="0" intercept="0.0"/><feFuncG type="linear" slope="0" intercept="0.0"/><feFuncB type="linear" slope="0" intercept="0.0"/><feFuncA type="linear" slope="0.5" intercept="0"/></feComponentTransfer></filter></defs><g id="p.13"><path fill="#cfe2f3" d="m166.67613 125.76608l0 0c0 -9.480164 7.685196 -17.165352 17.16536 -17.165352l0 0c4.552536 0 8.91861 1.8084869 12.137741 5.027611c3.2191315 3.2191315 5.0276184 7.585205 5.0276184 12.137741l0 0c0 9.480164 -7.685196 17.16536 -17.16536 17.16536l0 0c-9.480164 0 -17.16536 -7.685196 -17.16536 -17.16536z" fill-rule="evenodd"/><path stroke="#ffffff" stroke-width="1.0" stroke-linejoin="round" stroke-linecap="butt" d="m166.67613 125.76608l0 0c0 -9.480164 7.685196 -17.165352 17.16536 -17.165352l0 0c4.552536 0 8.91861 1.8084869 12.137741 5.027611c3.2191315 3.2191315 5.0276184 7.585205 5.0276184 12.137741l0 0c0 9.480164 -7.685196 17.16536 -17.16536 17.16536l0 0c-9.480164 0 -17.16536 -7.685196 -17.16536 -17.16536z" fill-rule="evenodd"/><path fill="#000000" d="m185.50063 124.36171q0.984375 0 1.71875 0.421875q0.734375 0.40625 1.140625 1.15625q0.40625 0.734375 0.40625 1.703125q0 0.953125 -0.4375 1.71875q-0.4375 0.75 -1.234375 1.171875q-0.78125 0.421875 -1.796875 0.421875q-0.921875 0 -1.78125 -0.328125q-0.859375 -0.328125 -1.46875 -0.875q-0.234375 -0.21875 -0.234375 -0.5q0 -0.21875 0.109375 -0.359375q0.125 -0.15625 0.296875 -0.15625q0.203125 0 0.40625 0.15625q0.640625 0.53125 1.28125 0.796875q0.65625 0.25 1.359375 0.25q1.078125 0 1.6875 -0.609375q0.625 -0.625 0.625 -1.671875q0 -1.03125 -0.625 -1.65625q-0.609375 -0.640625 -1.640625 -0.640625q-1.34375 0 -2.171875 1.03125q-0.203125 0.21875 -0.5 0.21875q-0.203125 0 -0.34375 -0.125q-0.140625 -0.125 -0.140625 -0.34375l0 -5.0625q0 -0.25 0.15625 -0.40625q0.15625 -0.15625 0.421875 -0.15625l5.171875 0q0.25 0 0.40625 0.140625q0.15625 0.125 0.15625 0.359375q0 0.234375 -0.15625 0.359375q-0.15625 0.125 -0.40625 0.125l-4.5625 0l0 3.6875q0.40625 -0.390625 0.953125 -0.609375q0.546875 -0.21875 1.203125 -0.21875z" fill-rule="nonzero"/></g><g filter="url(#shadowFilter-p.14)"><use xlink:href="#p.14" transform="matrix(1.0 0.0 0.0 1.0 0.0 2.0)"/></g><defs><filter id="shadowFilter-p.14" filterUnits="userSpaceOnUse"><feGaussianBlur in="SourceAlpha" stdDeviation="2.0" result="blur"/><feComponentTransfer in="blur" color-interpolation-filters="sRGB"><feFuncR type="linear" slope="0" intercept="0.0"/><feFuncG type="linear" slope="0" intercept="0.0"/><feFuncB type="linear" slope="0" intercept="0.0"/><feFuncA type="linear" slope="0.5" intercept="0"/></feComponentTransfer></filter></defs><g id="p.14"><path fill="#000000" fill-opacity="0.0" d="m153.3056 93.247665l30.551178 15.338577" fill-rule="evenodd"/><path stroke="#ffffff" stroke-width="1.0" stroke-linejoin="round" stroke-linecap="butt" d="m153.3056 93.247665l30.551178 15.338577" fill-rule="evenodd"/></g><g filter="url(#shadowFilter-p.15)"><use xlink:href="#p.15" transform="matrix(1.0 0.0 0.0 1.0 0.0 2.0)"/></g><defs><filter id="shadowFilter-p.15" filterUnits="userSpaceOnUse"><feGaussianBlur in="SourceAlpha" stdDeviation="2.0" result="blur"/><feComponentTransfer in="blur" color-interpolation-filters="sRGB"><feFuncR type="linear" slope="0" intercept="0.0"/><feFuncG type="linear" slope="0" intercept="0.0"/><feFuncB type="linear" slope="0" intercept="0.0"/><feFuncA type="linear" slope="0.5" intercept="0"/></feComponentTransfer></filter></defs><g id="p.15"><path fill="#cfe2f3" d="m12.677834 223.09396l0 0c0 -9.480164 7.68519 -17.165344 17.165354 -17.165344l0 0c4.552534 0 8.918612 1.8084869 12.137739 5.0276184c3.2191277 3.2191162 5.0276146 7.585205 5.0276146 12.137726l0 0c0 9.480164 -7.6851883 17.16536 -17.165354 17.16536l0 0c-9.480164 0 -17.165354 -7.685196 -17.165354 -17.16536z" fill-rule="evenodd"/><path stroke="#ffffff" stroke-width="1.0" stroke-linejoin="round" stroke-linecap="butt" d="m12.677834 223.09396l0 0c0 -9.480164 7.68519 -17.165344 17.165354 -17.165344l0 0c4.552534 0 8.918612 1.8084869 12.137739 5.0276184c3.2191277 3.2191162 5.0276146 7.585205 5.0276146 12.137726l0 0c0 9.480164 -7.6851883 17.16536 -17.165354 17.16536l0 0c-9.480164 0 -17.165354 -7.685196 -17.165354 -17.16536z" fill-rule="evenodd"/><path fill="#000000" d="m32.89295 222.86147q0.90625 0.28125 1.40625 0.96875q0.515625 0.671875 0.515625 1.609375q0 1.328125 -0.96875 2.09375q-0.96875 0.75 -2.749998 0.75q-1.765625 0 -2.734375 -0.75q-0.96875 -0.765625 -0.96875 -2.09375q0 -0.953125 0.515625 -1.625q0.515625 -0.6875 1.421875 -0.953125q-0.78125 -0.28125 -1.234375 -0.90625q-0.453125 -0.640625 -0.453125 -1.484375q0 -1.265625 0.90625 -2.0q0.921875 -0.75 2.546875 -0.75q1.6406231 0 2.546873 0.75q0.921875 0.734375 0.921875 2.0q0 0.84375 -0.453125 1.484375q-0.453125 0.640625 -1.21875 0.90625zm-4.062498 -2.3125q0 0.90625 0.578125 1.390625q0.578125 0.484375 1.6875 0.484375q1.1249981 0 1.7031231 -0.484375q0.578125 -0.484375 0.578125 -1.390625q0 -0.859375 -0.578125 -1.34375q-0.578125 -0.484375 -1.7031231 -0.484375q-1.109375 0 -1.6875 0.484375q-0.578125 0.484375 -0.578125 1.34375zm2.265625 6.734375q2.531248 0 2.531248 -1.921875q0 -1.921875 -2.531248 -1.921875q-2.515625 0 -2.515625 1.921875q0 1.921875 2.515625 1.921875z" fill-rule="nonzero"/></g><g filter="url(#shadowFilter-p.16)"><use xlink:href="#p.16" transform="matrix(1.0 0.0 0.0 1.0 0.0 2.0)"/></g><defs><filter id="shadowFilter-p.16" filterUnits="userSpaceOnUse"><feGaussianBlur in="SourceAlpha" stdDeviation="2.0" result="blur"/><feComponentTransfer in="blur" color-interpolation-filters="sRGB"><feFuncR type="linear" slope="0" intercept="0.0"/><feFuncG type="linear" slope="0" intercept="0.0"/><feFuncB type="linear" slope="0" intercept="0.0"/><feFuncA type="linear" slope="0.5" intercept="0"/></feComponentTransfer></filter></defs><g id="p.16"><path fill="#000000" fill-opacity="0.0" d="m141.16786 98.275276l0 10.330711" fill-rule="evenodd"/><path stroke="#ffffff" stroke-width="1.0" stroke-linejoin="round" stroke-linecap="butt" d="m141.16786 98.275276l0 10.330711" fill-rule="evenodd"/></g><path fill="#000000" fill-opacity="0.0" d="m230.50246 139.97653l79.35268 -0.57203674" fill-rule="evenodd"/><path stroke="#ff0000" stroke-width="1.0" stroke-linejoin="round" stroke-linecap="butt" d="m230.50246 139.97653l73.35283 -0.52879333" fill-rule="evenodd"/><path fill="#ff0000" stroke="#ff0000" stroke-width="1.0" stroke-linecap="butt" d="m303.8672 141.09943l4.5260925 -1.6844025l-4.5498962 -1.6189728z" fill-rule="evenodd"/><path fill="#000000" fill-opacity="0.0" d="m223.1615 110.929855l100.13803 -1.4013214l0.4569702 32.542114l-100.13803 1.4013214z" fill-rule="evenodd"/><path fill="#f4cccc" d="m237.00699 126.5364q0.62428284 -0.055618286 0.631958 0.4912033q0.0032958984 0.23435211 -0.13534546 0.37693024q-0.1230011 0.14235687 -0.45088196 0.16257477l-0.4367981 0.052993774q-0.98295593 0.10751343 -1.458725 0.7236023q-0.4601593 0.61587524 -0.44874573 1.428299l0.05001831 3.562149q0.0041656494 0.29684448 -0.14987183 0.45526123q-0.1542511 0.142807 -0.41986084 0.1465149q-0.26559448 0.0037231445 -0.4396515 -0.15011597q-0.17404175 -0.15382385 -0.17799377 -0.43504333l-0.086883545 -6.1868896q-0.0037231445 -0.2656021 0.16593933 -0.4242401q0.18528748 -0.15885925 0.43525696 -0.16235352q0.23435974 -0.0032806396 0.3927765 0.15076447q0.158432 0.1540451 0.16194153 0.40402222l0.011627197 0.8280487q0.30348206 -0.6449356 0.86131287 -0.9809036q0.5576172 -0.3515854 1.2910461 -0.42435455l0.20288086 -0.018463135zm7.105301 5.5261154q0.15623474 -0.0021820068 0.26757812 0.13690186q0.1267395 0.12322998 0.1295929 0.32633972q0.005050659 0.35934448 -0.50613403 0.6790161q-0.5111847 0.3196869 -1.1026917 0.48423767q-0.5758667 0.1643219 -1.1383209 0.17219543q-1.6560822 0.023162842 -2.638565 -0.94755554q-0.96684265 -0.970932 -0.9911957 -2.7051392q-0.015365601 -1.0936432 0.3946228 -1.943222q0.4256134 -0.84978485 1.1845856 -1.3292007q0.7589569 -0.4794159 1.7432404 -0.49318695q1.3904877 -0.019462585 2.2156372 0.87532806q0.8407593 0.8945694 0.8627014 2.4569168q0.0039520264 0.28123474 -0.11906433 0.42358398q-0.10760498 0.12652588 -0.37319946 0.13023376l-4.718292 0.06602478q0.17614746 2.5290375 2.4259338 2.4975586q0.57806396 -0.008087158 0.9820862 -0.17001343q0.40400696 -0.16191101 0.86898804 -0.43406677q0.3875122 -0.22419739 0.51249695 -0.22595215zm-2.6287231 -4.6980515q-0.93740845 0.013122559 -1.4915161 0.61468506q-0.5543213 0.5859299 -0.6485443 1.6654892l4.140213 -0.057937622q-0.030975342 -1.0934296 -0.55467224 -1.6642838q-0.5236969 -0.5708542 -1.4454803 -0.5579529zm7.251953 6.399147q-0.67181396 0.009414673 -1.2833252 -0.13830566q-0.61172485 -0.16333008 -1.0845947 -0.45361328q-0.26802063 -0.1681366 -0.37957764 -0.32284546q-0.11155701 -0.15470886 -0.11462402 -0.37342834q-0.0026397705 -0.18748474 0.10498047 -0.31399536q0.10760498 -0.12652588 0.29508972 -0.12915039q0.17184448 -0.0023956299 0.50302124 0.21173096q0.45680237 0.25926208 0.88082886 0.40959167q0.4396515 0.15011597 1.0802155 0.1411438q0.7967987 -0.011138916 1.2303009 -0.29849243q0.43351746 -0.28733826 0.4260559 -0.8185425q-0.0043945312 -0.31246948 -0.1790924 -0.51316833q-0.15908813 -0.20091248 -0.551651 -0.33605957q-0.39279175 -0.1507721 -1.1607513 -0.31192017q-1.3006897 -0.26306152 -1.8697205 -0.7239075q-0.55340576 -0.4610443 -0.56459045 -1.257843q-0.009002686 -0.64056396 0.32814026 -1.1140747q0.35253906 -0.489357 0.973526 -0.7793274q0.62098694 -0.28996277 1.4177856 -0.30111694q0.56243896 -0.007865906 1.0958405 0.14093018q0.54901123 0.14858246 0.95895386 0.40850067q0.5049896 0.3523407 0.5102539 0.72730255q0.0028533936 0.20310974 -0.12037659 0.3298416q-0.10760498 0.12651825 -0.27946472 0.12892914q-0.17185974 0.0023956299 -0.51908875 -0.24276733q-0.42533875 -0.24407196 -0.7866516 -0.37965393q-0.36154175 -0.15120697 -0.9083557 -0.14355469q-0.68743896 0.0096206665 -1.1048737 0.3279953q-0.41767883 0.30274963 -0.4104309 0.8183212q0.0046081543 0.32809448 0.16369629 0.52900696q0.15885925 0.18530273 0.520401 0.33650208q0.3615265 0.1512146 1.0353088 0.28242493q1.0029755 0.20472717 1.5535278 0.462677q0.55055237 0.25794983 0.79039 0.6452484q0.23962402 0.37168884 0.2477417 0.9497528q0.012939453 0.92178345 -0.7601166 1.510788q-0.7576599 0.5731659 -2.0387726 0.5910797zm9.945908 -7.530525q0.28121948 -0.0039367676 0.43963623 0.15011597q0.15844727 0.1540451 0.16217041 0.41964722l0.08709717 6.202507q0.0035095215 0.24998474 -0.15032959 0.4240265q-0.15402222 0.15841675 -0.4352417 0.16235352q-0.24996948 0.0034942627 -0.40841675 -0.15054321q-0.15841675 -0.15405273 -0.16192627 -0.40402222l-0.010314941 -0.73431396q-0.3347168 0.6453705 -0.939209 0.9976196q-0.6044922 0.35224915 -1.3544159 0.36273193q-1.2811279 0.017929077 -1.9471893 -0.67593384q-0.65065 -0.7097168 -0.6703949 -2.1158295l-0.05595398 -3.983986q-0.0037231445 -0.2656021 0.15031433 -0.42401886q0.16966248 -0.158638 0.45088196 -0.16257477q0.28123474 -0.0039367676 0.4240265 0.15032959q0.158432 0.15405273 0.16217041 0.41964722l0.055725098 3.968361q0.013381958 0.95303345 0.3946991 1.4008636q0.39672852 0.43199158 1.2247925 0.4203949q0.93740845 -0.0131073 1.491272 -0.6302948q0.56951904 -0.6174011 0.55548096 -1.6173096l-0.050445557 -3.5933914q-0.003753662 -0.2656021 0.15029907 -0.42401886q0.16964722 -0.15864563 0.43527222 -0.16236115zm3.5126648 7.310936q-0.26559448 0.0037231445 -0.43963623 -0.15010071q-0.17407227 -0.15383911 -0.17800903 -0.4350586l-0.13052368 -9.295959q-0.003967285 -0.28121948 0.16571045 -0.43985748q0.16964722 -0.15864563 0.4352417 -0.16236115q0.25 -0.0034942627 0.40841675 0.15055084q0.17404175 0.15383148 0.17800903 0.43505096l0.13052368 9.295959q0.003967285 0.28121948 -0.16571045 0.4398651q-0.15405273 0.15841675 -0.40402222 0.16191101zm6.191345 -1.024231q0.5160217 0.024032593 0.52215576 0.46148682q0.0035095215 0.24998474 -0.18222046 0.377594q-0.17010498 0.12739563 -0.5455017 0.10139465l-0.39102173 -0.025787354q-1.1730652 -0.0773468 -1.7440796 -0.67878723q-0.555603 -0.61727905 -0.572937 -1.851532l-0.051757812 -3.6871414l-0.98428345 0.013771057q-0.24996948 0.003501892 -0.39233398 -0.119522095q-0.14239502 -0.12301636 -0.14523315 -0.32611847q-0.0030822754 -0.21873474 0.1357727 -0.34568787q0.13864136 -0.14257812 0.38861084 -0.14607239l0.98428345 -0.0137786865l-0.023254395 -1.6560822q-0.0039367676 -0.2812271 0.15032959 -0.4240265q0.15402222 -0.15841675 0.4352417 -0.16235352q0.26559448 -0.0037155151 0.42404175 0.15032959q0.17382812 0.13820648 0.1777649 0.4194336l0.023254395 1.6560822l1.6248474 -0.022735596q0.234375 -0.0032806396 0.37695312 0.13536072q0.1423645 0.12302399 0.14541626 0.3417511q0.0028686523 0.20310211 -0.13598633 0.33006287q-0.13885498 0.12695312 -0.37319946 0.13023376l-1.6248474 0.022735596l0.0524292 3.7340012q0.011413574 0.8124237 0.34454346 1.1671753q0.33312988 0.3547516 0.98999023 0.3924408l0.39102173 0.025772095zm4.105713 0.9113922q-0.67181396 0.009399414 -1.2833252 -0.13830566q-0.61172485 -0.16333008 -1.0845947 -0.45361328q-0.26800537 -0.16815186 -0.37957764 -0.32284546q-0.11154175 -0.15470886 -0.11462402 -0.3734436q-0.0026245117 -0.18746948 0.10498047 -0.31399536q0.10760498 -0.12651062 0.29510498 -0.12913513q0.17184448 -0.0024108887 0.50302124 0.21173096q0.4567871 0.25926208 0.88082886 0.40959167q0.43963623 0.15010071 1.0802002 0.1411438q0.79681396 -0.011154175 1.2303162 -0.29849243q0.4335022 -0.28733826 0.4260559 -0.8185425q-0.0043945312 -0.31246948 -0.17910767 -0.51316833q-0.15908813 -0.20092773 -0.55163574 -0.33605957q-0.39279175 -0.1507721 -1.1607666 -0.31192017q-1.3006897 -0.26307678 -1.8697205 -0.7239075q-0.55340576 -0.46105957 -0.5645752 -1.257843q-0.009002686 -0.6405716 0.328125 -1.1140823q0.35253906 -0.489357 0.97354126 -0.77931976q0.6209717 -0.2899704 1.4177856 -0.30112457q0.56243896 -0.007865906 1.0958252 0.1409378q0.54901123 0.14858246 0.95895386 0.40849304q0.5050049 0.3523407 0.5102844 0.72730255q0.0028381348 0.20310974 -0.120391846 0.32984924q-0.10760498 0.12651062 -0.27947998 0.12892151q-0.17184448 0.0024032593 -0.5190735 -0.2427597q-0.425354 -0.24407196 -0.7866516 -0.37966156q-0.36154175 -0.15119934 -0.9083557 -0.14354706q-0.68743896 0.0096206665 -1.1048889 0.32798767q-0.41766357 0.30274963 -0.4104309 0.81832886q0.0046081543 0.32809448 0.16369629 0.52900696q0.15887451 0.18530273 0.52041626 0.33650208q0.36151123 0.15119934 1.0353088 0.28240967q1.0029602 0.20474243 1.5535278 0.46269226q0.5505371 0.25794983 0.79037476 0.6452484q0.23962402 0.37168884 0.2477417 0.9497528q0.012939453 0.92178345 -0.7601013 1.510788q-0.7576599 0.57315063 -2.0387878 0.5910797zm9.018158 -0.15745544q-0.26559448 0.0037231445 -0.43963623 -0.15011597q-0.17407227 -0.15382385 -0.17800903 -0.43504333l-0.086883545 -6.1868896q-0.0037231445 -0.2656021 0.16595459 -0.4242401q0.16964722 -0.158638 0.4352417 -0.16235352q0.26559448 -0.0037231445 0.42404175 0.15032959q0.15841675 0.1540451 0.1621399 0.41964722l0.086883545 6.1868896q0.004180908 0.29684448 -0.14987183 0.45526123q-0.15426636 0.142807 -0.41986084 0.1465149zm-0.12503052 -8.905365q-0.34371948 0.0048065186 -0.5653076 -0.1952362q-0.22158813 -0.20004272 -0.22640991 -0.5437622q-0.0043945312 -0.31246948 0.21148682 -0.518631q0.21588135 -0.20616913 0.55960083 -0.21097565q0.35934448 -0.005027771 0.5809021 0.19501495q0.22158813 0.20004272 0.22598267 0.5125122q0.0048217773 0.34371185 -0.21105957 0.549881q-0.21588135 0.20616913 -0.5751953 0.2111969zm6.4052734 1.4261322q2.5622559 -0.035850525 2.6019592 2.7919922l0.055725098 3.9683533q0.003967285 0.28123474 -0.15008545 0.4396515q-0.13839722 0.15820312 -0.41964722 0.1621399q-0.28121948 0.0039367676 -0.45526123 -0.14990234q-0.15841675 -0.15403748 -0.16238403 -0.43527222l-0.054626465 -3.8902283q-0.014038086 -0.99990845 -0.41098022 -1.447525q-0.38131714 -0.4478302 -1.2406311 -0.43580627q-0.98428345 0.013771057 -1.569397 0.63139343q-0.56973267 0.6017914 -0.55548096 1.6173096l0.050231934 3.577774q0.003967285 0.28121948 -0.15008545 0.43963623q-0.13842773 0.15820312 -0.41964722 0.1621399q-0.28121948 0.0039367676 -0.45526123 -0.14988708q-0.15841675 -0.15405273 -0.16238403 -0.43527222l-0.086883545 -6.1868896q-0.0037231445 -0.2656021 0.15032959 -0.4240265q0.16964722 -0.158638 0.4508667 -0.16257477q0.26559448 -0.0037155151 0.40841675 0.15055084q0.15841675 0.15405273 0.16192627 0.40402985l0.010528564 0.7499237q0.35012817 -0.66121674 0.97024536 -1.0136795q0.6357422 -0.3526764 1.4325256 -0.36383057zm5.4280396 7.315399q-0.35934448 0.0050201416 -0.5967407 -0.21043396q-0.2376709 -0.23106384 -0.24291992 -0.6060333q-0.0050354004 -0.35932922 0.22601318 -0.5969696q0.23104858 -0.23762512 0.59039307 -0.24266052q0.32809448 -0.0045928955 0.56573486 0.2264862q0.23764038 0.23106384 0.2427063 0.5904083q0.0052490234 0.37496948 -0.22579956 0.6125946q-0.23129272 0.22201538 -0.5593872 0.22660828zm3.355957 -0.046966553q-0.35931396 0.0050201416 -0.5967407 -0.2104187q-0.23764038 -0.2310791 -0.24291992 -0.6060333q-0.0050354004 -0.35934448 0.22601318 -0.59698486q0.2310791 -0.23762512 0.59039307 -0.24266052q0.32809448 -0.0045776367 0.56573486 0.2264862q0.2376709 0.2310791 0.2427063 0.5904083q0.0052490234 0.37496948 -0.22579956 0.6125946q-0.23129272 0.22201538 -0.5593872 0.22660828zm3.3559875 -0.046966553q-0.35934448 0.0050354004 -0.59677124 -0.2104187q-0.23764038 -0.2310791 -0.24291992 -0.6060333q-0.0050354004 -0.35934448 0.22601318 -0.5969696q0.2310791 -0.23764038 0.5904236 -0.24266052q0.32809448 -0.0045928955 0.56573486 0.22647095q0.23764038 0.2310791 0.24267578 0.5904236q0.005279541 0.37495422 -0.22579956 0.6125946q-0.2312622 0.22200012 -0.5593567 0.22659302z" fill-rule="nonzero"/><g filter="url(#shadowFilter-p.17)"><use xlink:href="#p.17" transform="matrix(1.0 0.0 0.0 1.0 0.0 2.0)"/></g><defs><filter id="shadowFilter-p.17" filterUnits="userSpaceOnUse"><feGaussianBlur in="SourceAlpha" stdDeviation="2.0" result="blur"/><feComponentTransfer in="blur" color-interpolation-filters="sRGB"><feFuncR type="linear" slope="0" intercept="0.0"/><feFuncG type="linear" slope="0" intercept="0.0"/><feFuncB type="linear" slope="0" intercept="0.0"/><feFuncA type="linear" slope="0.5" intercept="0"/></feComponentTransfer></filter></defs><g id="p.17"><path fill="#000000" fill-opacity="0.0" d="m98.49343 157.2663l0 -14.330719" fill-rule="evenodd"/><path stroke="#ffffff" stroke-width="1.0" stroke-linejoin="round" stroke-linecap="butt" d="m98.49343 157.2663l0 -14.330719" fill-rule="evenodd"/></g><g filter="url(#shadowFilter-p.18)"><use xlink:href="#p.18" transform="matrix(1.0 0.0 0.0 1.0 0.0 2.0)"/></g><defs><filter id="shadowFilter-p.18" filterUnits="userSpaceOnUse"><feGaussianBlur in="SourceAlpha" stdDeviation="2.0" result="blur"/><feComponentTransfer in="blur" color-interpolation-filters="sRGB"><feFuncR type="linear" slope="0" intercept="0.0"/><feFuncG type="linear" slope="0" intercept="0.0"/><feFuncB type="linear" slope="0" intercept="0.0"/><feFuncA type="linear" slope="0.5" intercept="0"/></feComponentTransfer></filter></defs><g id="p.18"><path fill="#000000" fill-opacity="0.0" d="m71.282104 162.2933l15.0866165 -24.37796" fill-rule="evenodd"/><path stroke="#ffffff" stroke-width="1.0" stroke-linejoin="round" stroke-linecap="butt" d="m71.282104 162.2933l15.0866165 -24.37796" fill-rule="evenodd"/></g><g filter="url(#shadowFilter-p.19)"><use xlink:href="#p.19" transform="matrix(1.0 0.0 0.0 1.0 0.0 2.0)"/></g><defs><filter id="shadowFilter-p.19" filterUnits="userSpaceOnUse"><feGaussianBlur in="SourceAlpha" stdDeviation="2.0" result="blur"/><feComponentTransfer in="blur" color-interpolation-filters="sRGB"><feFuncR type="linear" slope="0" intercept="0.0"/><feFuncG type="linear" slope="0" intercept="0.0"/><feFuncB type="linear" slope="0" intercept="0.0"/><feFuncA type="linear" slope="0.5" intercept="0"/></feComponentTransfer></filter></defs><g id="p.19"><path fill="#000000" fill-opacity="0.0" d="m47.00663 186.56877l-17.165354 19.370087" fill-rule="evenodd"/><path stroke="#ffffff" stroke-width="1.0" stroke-linejoin="round" stroke-linecap="butt" d="m47.00663 186.56877l-17.165354 19.370087" fill-rule="evenodd"/></g><g filter="url(#shadowFilter-p.20)"><use xlink:href="#p.20" transform="matrix(1.0 0.0 0.0 1.0 0.0 2.0)"/></g><defs><filter id="shadowFilter-p.20" filterUnits="userSpaceOnUse"><feGaussianBlur in="SourceAlpha" stdDeviation="2.0" result="blur"/><feComponentTransfer in="blur" color-interpolation-filters="sRGB"><feFuncR type="linear" slope="0" intercept="0.0"/><feFuncG type="linear" slope="0" intercept="0.0"/><feFuncB type="linear" slope="0" intercept="0.0"/><feFuncA type="linear" slope="0.5" intercept="0"/></feComponentTransfer></filter></defs><g id="p.20"><path fill="#cfe2f3" d="m3.863519 276.15225l0 0c0 -11.906738 9.652318 -21.559067 21.559053 -21.559067l0 0c5.7178173 0 11.201447 2.271408 15.244556 6.314499c4.043106 4.0431213 6.314499 9.526733 6.314499 15.244568l0 0c0 11.906738 -9.652317 21.559052 -21.559055 21.559052l0 0c-11.906736 0 -21.559053 -9.652313 -21.559053 -21.559052z" fill-rule="evenodd"/><path stroke="#ffffff" stroke-width="1.0" stroke-linejoin="round" stroke-linecap="butt" d="m3.863519 276.15225l0 0c0 -11.906738 9.652318 -21.559067 21.559053 -21.559067l0 0c5.7178173 0 11.201447 2.271408 15.244556 6.314499c4.043106 4.0431213 6.314499 9.526733 6.314499 15.244568l0 0c0 11.906738 -9.652317 21.559052 -21.559055 21.559052l0 0c-11.906736 0 -21.559053 -9.652313 -21.559053 -21.559052z" fill-rule="evenodd"/><path fill="#000000" d="m24.560133 278.28537q0.140625 0 0.21875 0.078125q0.078125 0.0625 0.078125 0.1875q0 0.140625 -0.078125 0.21875q-0.0625 0.0625 -0.21875 0.0625l-2.65625 0q-0.140625 0 -0.21875 -0.0625q-0.078125 -0.078125 -0.078125 -0.21875q0 -0.125 0.078125 -0.1875q0.078125 -0.078125 0.21875 -0.078125l1.0 0l0 -4.296875l-0.875 0.578125q-0.0625 0.03125 -0.125 0.03125q-0.109375 0 -0.203125 -0.09375q-0.078125 -0.109375 -0.078125 -0.234375q0 -0.171875 0.125 -0.234375l1.21875 -0.796875q0.140625 -0.09375 0.28125 -0.09375q0.140625 0 0.21875 0.09375q0.09375 0.09375 0.09375 0.25l0 4.796875l1.0 0zm3.268692 0.609375q-0.96875 0 -1.484375 -0.734375q-0.5 -0.734375 -0.5 -2.140625q0 -1.421875 0.5 -2.15625q0.515625 -0.734375 1.484375 -0.734375q0.96875 0 1.46875 0.734375q0.5 0.734375 0.5 2.140625q0 1.421875 -0.5 2.15625q-0.5 0.734375 -1.46875 0.734375zm0 -0.546875q0.671875 0 0.984375 -0.5625q0.328125 -0.578125 0.328125 -1.78125q0 -1.203125 -0.328125 -1.765625q-0.3125 -0.5625 -0.984375 -0.5625q-0.671875 0 -1.0 0.5625q-0.3125 0.5625 -0.3125 1.765625q0 1.203125 0.3125 1.78125q0.328125 0.5625 1.0 0.5625z" fill-rule="nonzero"/></g><g filter="url(#shadowFilter-p.21)"><use xlink:href="#p.21" transform="matrix(1.0 0.0 0.0 1.0 0.0 2.0)"/></g><defs><filter id="shadowFilter-p.21" filterUnits="userSpaceOnUse"><feGaussianBlur in="SourceAlpha" stdDeviation="2.0" result="blur"/><feComponentTransfer in="blur" color-interpolation-filters="sRGB"><feFuncR type="linear" slope="0" intercept="0.0"/><feFuncG type="linear" slope="0" intercept="0.0"/><feFuncB type="linear" slope="0" intercept="0.0"/><feFuncA type="linear" slope="0.5" intercept="0"/></feComponentTransfer></filter></defs><g id="p.21"><path fill="#000000" fill-opacity="0.0" d="m81.33732 235.23132l-5.0393677 19.370087" fill-rule="evenodd"/><path stroke="#ffffff" stroke-width="1.0" stroke-linejoin="round" stroke-linecap="butt" d="m81.33732 235.23132l-5.0393677 19.370087" fill-rule="evenodd"/></g><g filter="url(#shadowFilter-p.22)"><use xlink:href="#p.22" transform="matrix(1.0 0.0 0.0 1.0 0.0 2.0)"/></g><defs><filter id="shadowFilter-p.22" filterUnits="userSpaceOnUse"><feGaussianBlur in="SourceAlpha" stdDeviation="2.0" result="blur"/><feComponentTransfer in="blur" color-interpolation-filters="sRGB"><feFuncR type="linear" slope="0" intercept="0.0"/><feFuncG type="linear" slope="0" intercept="0.0"/><feFuncB type="linear" slope="0" intercept="0.0"/><feFuncA type="linear" slope="0.5" intercept="0"/></feComponentTransfer></filter></defs><g id="p.22"><path fill="#000000" fill-opacity="0.0" d="m29.843187 240.25932l-4.4094486 14.330704" fill-rule="evenodd"/><path stroke="#ffffff" stroke-width="1.0" stroke-linejoin="round" stroke-linecap="butt" d="m29.843187 240.25932l-4.4094486 14.330704" fill-rule="evenodd"/></g><g filter="url(#shadowFilter-p.23)"><use xlink:href="#p.23" transform="matrix(1.0 0.0 0.0 1.0 0.0 2.0)"/></g><defs><filter id="shadowFilter-p.23" filterUnits="userSpaceOnUse"><feGaussianBlur in="SourceAlpha" stdDeviation="2.0" result="blur"/><feComponentTransfer in="blur" color-interpolation-filters="sRGB"><feFuncR type="linear" slope="0" intercept="0.0"/><feFuncG type="linear" slope="0" intercept="0.0"/><feFuncB type="linear" slope="0" intercept="0.0"/><feFuncA type="linear" slope="0.5" intercept="0"/></feComponentTransfer></filter></defs><g id="p.23"><path fill="#000000" fill-opacity="0.0" d="m105.61279 235.23132l21.543312 19.370087" fill-rule="evenodd"/><path stroke="#ffffff" stroke-width="1.0" stroke-linejoin="round" stroke-linecap="butt" d="m105.61279 235.23132l21.543312 19.370087" fill-rule="evenodd"/></g><g filter="url(#shadowFilter-p.24)"><use xlink:href="#p.24" transform="matrix(1.0 0.0 0.0 1.0 0.0 2.0)"/></g><defs><filter id="shadowFilter-p.24" filterUnits="userSpaceOnUse"><feGaussianBlur in="SourceAlpha" stdDeviation="2.0" result="blur"/><feComponentTransfer in="blur" color-interpolation-filters="sRGB"><feFuncR type="linear" slope="0" intercept="0.0"/><feFuncG type="linear" slope="0" intercept="0.0"/><feFuncB type="linear" slope="0" intercept="0.0"/><feFuncA type="linear" slope="0.5" intercept="0"/></feComponentTransfer></filter></defs><g id="p.24"><path fill="#cfe2f3" d="m54.737534 276.15225l0 0c0 -11.906738 9.652321 -21.559067 21.55906 -21.559067l0 0c5.7178116 0 11.201447 2.271408 15.244553 6.314499c4.043106 4.0431213 6.314499 9.526733 6.314499 15.244568l0 0c0 11.906738 -9.652321 21.559052 -21.559052 21.559052l0 0c-11.906738 0 -21.55906 -9.652313 -21.55906 -21.559052z" fill-rule="evenodd"/><path stroke="#ffffff" stroke-width="1.0" stroke-linejoin="round" stroke-linecap="butt" d="m54.737534 276.15225l0 0c0 -11.906738 9.652321 -21.559067 21.55906 -21.559067l0 0c5.7178116 0 11.201447 2.271408 15.244553 6.314499c4.043106 4.0431213 6.314499 9.526733 6.314499 15.244568l0 0c0 11.906738 -9.652321 21.559052 -21.559052 21.559052l0 0c-11.906738 0 -21.55906 -9.652313 -21.55906 -21.559052z" fill-rule="evenodd"/><path fill="#000000" d="m75.43415 278.28537q0.140625 0 0.21875 0.078125q0.078125 0.0625 0.078125 0.1875q0 0.140625 -0.078125 0.21875q-0.0625 0.0625 -0.21875 0.0625l-2.65625 0q-0.140625 0 -0.21875 -0.0625q-0.078125 -0.078125 -0.078125 -0.21875q0 -0.125 0.078125 -0.1875q0.078125 -0.078125 0.21875 -0.078125l1.0 0l0 -4.296875l-0.875 0.578125q-0.0625 0.03125 -0.125 0.03125q-0.109375 0 -0.203125 -0.09375q-0.078125 -0.109375 -0.078125 -0.234375q0 -0.171875 0.125 -0.234375l1.21875 -0.796875q0.140625 -0.09375 0.28125 -0.09375q0.140625 0 0.21875 0.09375q0.09375 0.09375 0.09375 0.25l0 4.796875l1.0 0zm4.799942 0q0.140625 0 0.21875 0.078125q0.078125 0.0625 0.078125 0.1875q0 0.140625 -0.078125 0.21875q-0.0625 0.0625 -0.21875 0.0625l-2.65625 0q-0.140625 0 -0.21875 -0.0625q-0.078125 -0.078125 -0.078125 -0.21875q0 -0.125 0.078125 -0.1875q0.078125 -0.078125 0.21875 -0.078125l1.0 0l0 -4.296875l-0.875 0.578125q-0.0625 0.03125 -0.125 0.03125q-0.109375 0 -0.203125 -0.09375q-0.078125 -0.109375 -0.078125 -0.234375q0 -0.171875 0.125 -0.234375l1.21875 -0.796875q0.140625 -0.09375 0.28125 -0.09375q0.140625 0 0.21875 0.09375q0.09375 0.09375 0.09375 0.25l0 4.796875l1.0 0z" fill-rule="nonzero"/></g><g filter="url(#shadowFilter-p.25)"><use xlink:href="#p.25" transform="matrix(1.0 0.0 0.0 1.0 0.0 2.0)"/></g><defs><filter id="shadowFilter-p.25" filterUnits="userSpaceOnUse"><feGaussianBlur in="SourceAlpha" stdDeviation="2.0" result="blur"/><feComponentTransfer in="blur" color-interpolation-filters="sRGB"><feFuncR type="linear" slope="0" intercept="0.0"/><feFuncG type="linear" slope="0" intercept="0.0"/><feFuncB type="linear" slope="0" intercept="0.0"/><feFuncA type="linear" slope="0.5" intercept="0"/></feComponentTransfer></filter></defs><g id="p.25"><path fill="#cfe2f3" d="m105.61155 276.15225l0 0c0 -11.906738 9.652321 -21.559067 21.55906 -21.559067l0 0c5.717819 0 11.201447 2.271408 15.244553 6.314499c4.043106 4.0431213 6.314499 9.526733 6.314499 15.244568l0 0c0 11.906738 -9.652313 21.559052 -21.559052 21.559052l0 0c-11.906738 0 -21.55906 -9.652313 -21.55906 -21.559052z" fill-rule="evenodd"/><path stroke="#ffffff" stroke-width="1.0" stroke-linejoin="round" stroke-linecap="butt" d="m105.61155 276.15225l0 0c0 -11.906738 9.652321 -21.559067 21.55906 -21.559067l0 0c5.717819 0 11.201447 2.271408 15.244553 6.314499c4.043106 4.0431213 6.314499 9.526733 6.314499 15.244568l0 0c0 11.906738 -9.652313 21.559052 -21.559052 21.559052l0 0c-11.906738 0 -21.55906 -9.652313 -21.55906 -21.559052z" fill-rule="evenodd"/><path fill="#000000" d="m126.30817 278.28537q0.140625 0 0.21875 0.078125q0.078125 0.0625 0.078125 0.1875q0 0.140625 -0.078125 0.21875q-0.0625 0.0625 -0.21875 0.0625l-2.65625 0q-0.140625 0 -0.21875 -0.0625q-0.078125 -0.078125 -0.078125 -0.21875q0 -0.125 0.078125 -0.1875q0.078125 -0.078125 0.21875 -0.078125l1.0 0l0 -4.296875l-0.875 0.578125q-0.0625 0.03125 -0.125 0.03125q-0.109375 0 -0.203125 -0.09375q-0.078125 -0.109375 -0.078125 -0.234375q0 -0.171875 0.125 -0.234375l1.21875 -0.796875q0.140625 -0.09375 0.28125 -0.09375q0.140625 0 0.21875 0.09375q0.09375 0.09375 0.09375 0.25l0 4.796875l1.0 0zm4.924942 0q0.140625 0 0.21875 0.078125q0.09375 0.0625 0.09375 0.1875q0 0.28125 -0.3125 0.28125l-3.140625 0q-0.125 0 -0.21875 -0.078125q-0.09375 -0.09375 -0.09375 -0.203125q0 -0.15625 0.125 -0.265625l1.921875 -2.125q0.40625 -0.453125 0.578125 -0.796875q0.1875 -0.359375 0.1875 -0.71875q0 -0.46875 -0.28125 -0.71875q-0.265625 -0.25 -0.75 -0.25q-0.375 0 -0.734375 0.140625q-0.359375 0.140625 -0.703125 0.4375q-0.125 0.09375 -0.21875 0.09375q-0.09375 0 -0.15625 -0.078125q-0.0625 -0.09375 -0.0625 -0.21875q0 -0.15625 0.125 -0.265625q0.328125 -0.3125 0.796875 -0.484375q0.46875 -0.171875 0.96875 -0.171875q0.765625 0 1.21875 0.40625q0.453125 0.390625 0.453125 1.078125q0 0.484375 -0.234375 0.9375q-0.21875 0.4375 -0.71875 1.0l-1.59375 1.734375l2.53125 0z" fill-rule="nonzero"/></g><path fill="#000000" fill-opacity="0.0" d="m166.67717 4.782152l57.13385 0l0 34.33071l-57.13385 0z" fill-rule="evenodd"/><path fill="#ffffff" d="m180.30217 20.580902q0.625 -0.046875 0.625 0.5q0 0.234375 -0.140625 0.375q-0.125 0.140625 -0.453125 0.15625l-0.4375 0.046875q-0.984375 0.09375 -1.46875 0.703125q-0.46875 0.609375 -0.46875 1.421875l0 3.5625q0 0.296875 -0.15625 0.453125q-0.15625 0.140625 -0.421875 0.140625q-0.265625 0 -0.4375 -0.15625q-0.171875 -0.15625 -0.171875 -0.4375l0 -6.1875q0 -0.265625 0.171875 -0.421875q0.1875 -0.15625 0.4375 -0.15625q0.234375 0 0.390625 0.15625q0.15625 0.15625 0.15625 0.40625l0 0.828125q0.3125 -0.640625 0.875 -0.96875q0.5625 -0.34375 1.296875 -0.40625l0.203125 -0.015625zm4.464508 7.390625q-1.015625 0 -1.78125 -0.453125q-0.765625 -0.46875 -1.1875 -1.296875q-0.421875 -0.84375 -0.421875 -1.96875q0 -1.109375 0.421875 -1.953125q0.421875 -0.84375 1.1875 -1.296875q0.765625 -0.453125 1.78125 -0.453125q1.015625 0 1.78125 0.453125q0.78125 0.453125 1.1875 1.296875q0.421875 0.84375 0.421875 1.953125q0 1.125 -0.421875 1.96875q-0.40625 0.828125 -1.1875 1.296875q-0.765625 0.453125 -1.78125 0.453125zm0 -0.984375q1.046875 0 1.609375 -0.6875q0.578125 -0.703125 0.578125 -2.046875q0 -1.296875 -0.578125 -2.0q-0.578125 -0.71875 -1.609375 -0.71875q-1.046875 0 -1.625 0.71875q-0.5625 0.703125 -0.5625 2.0q0 1.328125 0.5625 2.03125q0.5625 0.703125 1.625 0.703125zm8.134247 0.984375q-1.015625 0 -1.78125 -0.453125q-0.765625 -0.46875 -1.1875 -1.296875q-0.421875 -0.84375 -0.421875 -1.96875q0 -1.109375 0.421875 -1.953125q0.421875 -0.84375 1.1875 -1.296875q0.765625 -0.453125 1.78125 -0.453125q1.015625 0 1.78125 0.453125q0.78125 0.453125 1.1875 1.296875q0.421875 0.84375 0.421875 1.953125q0 1.125 -0.421875 1.96875q-0.40625 0.828125 -1.1875 1.296875q-0.765625 0.453125 -1.78125 0.453125zm0 -0.984375q1.046875 0 1.609375 -0.6875q0.578125 -0.703125 0.578125 -2.046875q0 -1.296875 -0.578125 -2.0q-0.578125 -0.71875 -1.609375 -0.71875q-1.046875 0 -1.625 0.71875q-0.5625 0.703125 -0.5625 2.0q0 1.328125 0.5625 2.03125q0.5625 0.703125 1.625 0.703125zm8.447708 0.015625q0.515625 0.03125 0.515625 0.46875q0 0.25 -0.1875 0.375q-0.171875 0.125 -0.546875 0.09375l-0.390625 -0.03125q-1.171875 -0.09375 -1.734375 -0.703125q-0.546875 -0.625 -0.546875 -1.859375l0 -3.6875l-0.984375 0q-0.25 0 -0.390625 -0.125q-0.140625 -0.125 -0.140625 -0.328125q0 -0.21875 0.140625 -0.34375q0.140625 -0.140625 0.390625 -0.140625l0.984375 0l0 -1.65625q0 -0.28125 0.15625 -0.421875q0.15625 -0.15625 0.4375 -0.15625q0.265625 0 0.421875 0.15625q0.171875 0.140625 0.171875 0.421875l0 1.65625l1.625 0q0.234375 0 0.375 0.140625q0.140625 0.125 0.140625 0.34375q0 0.203125 -0.140625 0.328125q-0.140625 0.125 -0.375 0.125l-1.625 0l0 3.734375q0 0.8125 0.328125 1.171875q0.328125 0.359375 0.984375 0.40625l0.390625 0.03125z" fill-rule="nonzero"/><path fill="#000000" fill-opacity="0.0" d="m112.60105 196.24934l29.322838 0l0 34.330704l-29.322838 0z" fill-rule="evenodd"/><path fill="#ffffff" d="m126.28855 212.01685q0.9375 0 1.65625 0.46875q0.7187424 0.46875 1.1093674 1.3125q0.40625 0.84375 0.40625 1.953125q0 1.109375 -0.40625 1.9375q-0.390625 0.828125 -1.1093674 1.296875q-0.703125 0.453125 -1.65625 0.453125q-0.828125 0 -1.453125 -0.359375q-0.625 -0.375 -0.953125 -1.046875l0 3.4375q0 0.265625 -0.15625 0.421875q-0.140625 0.15625 -0.421875 0.15625q-0.28125 0 -0.453125 -0.171875q-0.15625 -0.15625 -0.15625 -0.40625l0 -8.84375q0 -0.265625 0.15625 -0.421875q0.171875 -0.15625 0.453125 -0.15625q0.28125 0 0.421875 0.15625q0.15625 0.15625 0.15625 0.421875l0 0.796875q0.328125 -0.671875 0.953125 -1.03125q0.625 -0.375 1.453125 -0.375zm-0.234375 6.4375q1.046875 0 1.609375 -0.703125q0.5781174 -0.703125 0.5781174 -2.0q0 -1.28125 -0.5781174 -2.0q-0.5625 -0.734375 -1.609375 -0.734375q-1.03125 0 -1.609375 0.703125q-0.5625 0.703125 -0.5625 2.0q0 1.3125 0.5625 2.03125q0.578125 0.703125 1.609375 0.703125z" fill-rule="nonzero"/><g filter="url(#shadowFilter-p.26)"><use xlink:href="#p.26" transform="matrix(1.0 0.0 0.0 1.0 0.0 2.0)"/></g><defs><filter id="shadowFilter-p.26" filterUnits="userSpaceOnUse"><feGaussianBlur in="SourceAlpha" stdDeviation="2.0" result="blur"/><feComponentTransfer in="blur" color-interpolation-filters="sRGB"><feFuncR type="linear" slope="0" intercept="0.0"/><feFuncG type="linear" slope="0" intercept="0.0"/><feFuncB type="linear" slope="0" intercept="0.0"/><feFuncA type="linear" slope="0.5" intercept="0"/></feComponentTransfer></filter></defs><g id="p.26"><path fill="#cfe2f3" d="m465.94882 160.5117l0 0c0 -9.480164 7.6851807 -17.16536 17.165344 -17.16536l0 0c4.5525208 0 8.91861 1.8084869 12.137726 5.0276184c3.2191467 3.2191315 5.0276184 7.585205 5.0276184 12.137741l0 0c0 9.480164 -7.6851807 17.165344 -17.165344 17.165344l0 0c-9.480164 0 -17.165344 -7.6851807 -17.165344 -17.165344z" fill-rule="evenodd"/><path stroke="#ffffff" stroke-width="1.0" stroke-linejoin="round" stroke-linecap="butt" d="m465.94882 160.5117l0 0c0 -9.480164 7.6851807 -17.16536 17.165344 -17.16536l0 0c4.5525208 0 8.91861 1.8084869 12.137726 5.0276184c3.2191467 3.2191315 5.0276184 7.585205 5.0276184 12.137741l0 0c0 9.480164 -7.6851807 17.165344 -17.165344 17.165344l0 0c-9.480164 0 -17.165344 -7.6851807 -17.165344 -17.165344z" fill-rule="evenodd"/><path fill="#000000" d="m487.35144 155.26358q0.265625 0 0.40625 0.140625q0.140625 0.140625 0.140625 0.359375q0 0.203125 -0.140625 0.453125l-4.859375 9.15625q-0.1875 0.328125 -0.515625 0.328125q-0.234375 0 -0.421875 -0.15625q-0.1875 -0.171875 -0.1875 -0.40625q0 -0.15625 0.109375 -0.328125l4.578125 -8.546875l-5.0625 0q-0.265625 0 -0.40625 -0.125q-0.140625 -0.125 -0.140625 -0.359375q0 -0.25 0.140625 -0.375q0.140625 -0.140625 0.40625 -0.140625l5.953125 0z" fill-rule="nonzero"/></g><g filter="url(#shadowFilter-p.27)"><use xlink:href="#p.27" transform="matrix(1.0 0.0 0.0 1.0 0.0 2.0)"/></g><defs><filter id="shadowFilter-p.27" filterUnits="userSpaceOnUse"><feGaussianBlur in="SourceAlpha" stdDeviation="2.0" result="blur"/><feComponentTransfer in="blur" color-interpolation-filters="sRGB"><feFuncR type="linear" slope="0" intercept="0.0"/><feFuncG type="linear" slope="0" intercept="0.0"/><feFuncB type="linear" slope="0" intercept="0.0"/><feFuncA type="linear" slope="0.5" intercept="0"/></feComponentTransfer></filter></defs><g id="p.27"><path fill="#f4cccc" d="m338.17322 107.45317l0 0c0 -9.480164 7.6851807 -17.165352 17.165344 -17.165352l0 0c4.5525513 0 8.91861 1.8084869 12.137756 5.027611c3.2191162 3.2191315 5.0276184 7.585205 5.0276184 12.137741l0 0c0 9.480164 -7.685211 17.165352 -17.165375 17.165352l0 0c-9.480164 0 -17.165344 -7.6851883 -17.165344 -17.165352z" fill-rule="evenodd"/><path stroke="#ffffff" stroke-width="1.0" stroke-linejoin="round" stroke-linecap="butt" d="m338.17322 107.45317l0 0c0 -9.480164 7.6851807 -17.165352 17.165344 -17.165352l0 0c4.5525513 0 8.91861 1.8084869 12.137756 5.027611c3.2191162 3.2191315 5.0276184 7.585205 5.0276184 12.137741l0 0c0 9.480164 -7.685211 17.165352 -17.165375 17.165352l0 0c-9.480164 0 -17.165344 -7.6851883 -17.165344 -17.165352z" fill-rule="evenodd"/><path fill="#000000" d="m356.27896 102.08005q1.875 0 2.890625 1.3125q1.015625 1.296875 1.015625 3.71875q0 1.734375 -0.46875 2.984375q-0.46875 1.234375 -1.359375 1.90625q-0.890625 0.65625 -2.125 0.65625q-0.84375 0 -1.671875 -0.328125q-0.828125 -0.328125 -1.40625 -0.875q-0.25 -0.234375 -0.25 -0.5q0 -0.21875 0.109375 -0.359375q0.125 -0.15625 0.28125 -0.15625q0.203125 0 0.4375 0.15625q1.265625 1.046875 2.46875 1.046875q1.3125 0 2.03125 -1.1875q0.734375 -1.1875 0.734375 -3.328125l0 -0.1875q-0.328125 0.8125 -1.09375 1.28125q-0.75 0.46875 -1.703125 0.46875q-0.9375 0 -1.671875 -0.40625q-0.734375 -0.40625 -1.140625 -1.15625q-0.40625 -0.75 -0.40625 -1.71875q0 -0.953125 0.421875 -1.703125q0.421875 -0.765625 1.1875 -1.1875q0.765625 -0.4375 1.71875 -0.4375zm0.0625 5.609375q1.015625 0 1.65625 -0.640625q0.640625 -0.640625 0.640625 -1.65625q0 -1.015625 -0.640625 -1.65625q-0.640625 -0.640625 -1.65625 -0.640625q-1.0 0 -1.609375 0.640625q-0.59375 0.625 -0.59375 1.65625q0 1.046875 0.609375 1.671875q0.609375 0.625 1.59375 0.625z" fill-rule="nonzero"/></g><g filter="url(#shadowFilter-p.28)"><use xlink:href="#p.28" transform="matrix(1.0 0.0 0.0 1.0 0.0 2.0)"/></g><defs><filter id="shadowFilter-p.28" filterUnits="userSpaceOnUse"><feGaussianBlur in="SourceAlpha" stdDeviation="2.0" result="blur"/><feComponentTransfer in="blur" color-interpolation-filters="sRGB"><feFuncR type="linear" slope="0" intercept="0.0"/><feFuncG type="linear" slope="0" intercept="0.0"/><feFuncB type="linear" slope="0" intercept="0.0"/><feFuncA type="linear" slope="0.5" intercept="0"/></feComponentTransfer></filter></defs><g id="p.28"><path fill="#cfe2f3" d="m465.94766 104.17563l0 0c0 -9.480164 7.6851807 -17.165352 17.165344 -17.165352l0 0c4.5525208 0 8.91861 1.8084869 12.137726 5.027611c3.2191467 3.2191315 5.0276184 7.585205 5.0276184 12.137741l0 0c0 9.480164 -7.6851807 17.165352 -17.165344 17.165352l0 0c-9.480164 0 -17.165344 -7.6851883 -17.165344 -17.165352z" fill-rule="evenodd"/><path stroke="#ffffff" stroke-width="1.0" stroke-linejoin="round" stroke-linecap="butt" d="m465.94766 104.17563l0 0c0 -9.480164 7.6851807 -17.165352 17.165344 -17.165352l0 0c4.5525208 0 8.91861 1.8084869 12.137726 5.027611c3.2191467 3.2191315 5.0276184 7.585205 5.0276184 12.137741l0 0c0 9.480164 -7.6851807 17.165352 -17.165344 17.165352l0 0c-9.480164 0 -17.165344 -7.6851883 -17.165344 -17.165352z" fill-rule="evenodd"/><path fill="#000000" d="m485.7565 103.94313q0.9375 0.265625 1.421875 0.921875q0.484375 0.640625 0.484375 1.59375q0 1.34375 -0.90625 2.125q-0.90625 0.78125 -2.46875 0.78125q-0.953125 0 -1.828125 -0.328125q-0.875 -0.328125 -1.46875 -0.875q-0.234375 -0.21875 -0.234375 -0.5q0 -0.21875 0.109375 -0.359375q0.125 -0.15625 0.28125 -0.15625q0.203125 0 0.40625 0.15625q0.671875 0.546875 1.3125 0.796875q0.65625 0.25 1.40625 0.25q1.078125 0 1.640625 -0.5q0.5625 -0.5 0.5625 -1.4375q0 -1.890625 -2.359375 -1.890625l-0.78125 0q-0.234375 0 -0.375 -0.15625q-0.140625 -0.15625 -0.140625 -0.359375q0 -0.203125 0.140625 -0.34375q0.140625 -0.15625 0.375 -0.15625l0.546875 0q1.140625 0 1.75 -0.5q0.609375 -0.5 0.609375 -1.453125q0 -0.84375 -0.5 -1.28125q-0.484375 -0.453125 -1.390625 -0.453125q-0.703125 0 -1.34375 0.265625q-0.640625 0.25 -1.28125 0.78125q-0.21875 0.15625 -0.421875 0.15625q-0.15625 0 -0.28125 -0.140625q-0.109375 -0.15625 -0.109375 -0.375q0 -0.28125 0.234375 -0.5q0.59375 -0.5625 1.453125 -0.875q0.859375 -0.328125 1.765625 -0.328125q1.40625 0 2.234375 0.71875q0.84375 0.71875 0.828125 1.9375q0 0.875 -0.453125 1.546875q-0.453125 0.65625 -1.21875 0.9375z" fill-rule="nonzero"/></g><g filter="url(#shadowFilter-p.29)"><use xlink:href="#p.29" transform="matrix(1.0 0.0 0.0 1.0 0.0 2.0)"/></g><defs><filter id="shadowFilter-p.29" filterUnits="userSpaceOnUse"><feGaussianBlur in="SourceAlpha" stdDeviation="2.0" result="blur"/><feComponentTransfer in="blur" color-interpolation-filters="sRGB"><feFuncR type="linear" slope="0" intercept="0.0"/><feFuncG type="linear" slope="0" intercept="0.0"/><feFuncB type="linear" slope="0" intercept="0.0"/><feFuncA type="linear" slope="0.5" intercept="0"/></feComponentTransfer></filter></defs><g id="p.29"><path fill="#fff2cc" d="m477.61246 32.746l0 0c0 -9.480164 7.6851807 -17.165354 17.165344 -17.165354l0 0c4.5525208 0 8.91861 1.8084869 12.137726 5.0276165c3.2191467 3.2191277 5.0276184 7.585203 5.0276184 12.137737l0 0c0 9.480164 -7.6851807 17.165356 -17.165344 17.165356l0 0c-9.480164 0 -17.165344 -7.685192 -17.165344 -17.165356z" fill-rule="evenodd"/><path stroke="#ffffff" stroke-width="1.0" stroke-linejoin="round" stroke-linecap="butt" d="m477.61246 32.746l0 0c0 -9.480164 7.6851807 -17.165354 17.165344 -17.165354l0 0c4.5525208 0 8.91861 1.8084869 12.137726 5.0276165c3.2191467 3.2191277 5.0276184 7.585203 5.0276184 12.137737l0 0c0 9.480164 -7.6851807 17.165356 -17.165344 17.165356l0 0c-9.480164 0 -17.165344 -7.685192 -17.165344 -17.165356z" fill-rule="evenodd"/><path fill="#000000" d="m496.0307 37.951q-1.765625 0 -2.6875 -1.34375q-0.921875 -1.359375 -0.921875 -3.9375q0 -2.59375 0.921875 -3.9375q0.921875 -1.359375 2.6875 -1.359375q1.78125 0 2.703125 1.34375q0.921875 1.34375 0.921875 3.9375q0 2.59375 -0.921875 3.953125q-0.921875 1.34375 -2.703125 1.34375zm0 -1.015625q1.234375 0 1.8125 -1.03125q0.59375 -1.046875 0.59375 -3.25q0 -2.21875 -0.578125 -3.234375q-0.578125 -1.03125 -1.828125 -1.03125q-1.21875 0 -1.8125 1.03125q-0.578125 1.03125 -0.578125 3.234375q0 2.203125 0.578125 3.25q0.59375 1.03125 1.8125 1.03125z" fill-rule="nonzero"/></g><g filter="url(#shadowFilter-p.30)"><use xlink:href="#p.30" transform="matrix(1.0 0.0 0.0 1.0 0.0 2.0)"/></g><defs><filter id="shadowFilter-p.30" filterUnits="userSpaceOnUse"><feGaussianBlur in="SourceAlpha" stdDeviation="2.0" result="blur"/><feComponentTransfer in="blur" color-interpolation-filters="sRGB"><feFuncR type="linear" slope="0" intercept="0.0"/><feFuncG type="linear" slope="0" intercept="0.0"/><feFuncB type="linear" slope="0" intercept="0.0"/><feFuncA type="linear" slope="0.5" intercept="0"/></feComponentTransfer></filter></defs><g id="p.30"><path fill="#cfe2f3" d="m508.564 160.51302l0 0c0 -9.480164 7.68515 -17.16536 17.165314 -17.16536l0 0c4.5525513 0 8.91864 1.8084869 12.137756 5.0276184c3.2191162 3.2191315 5.027649 7.585205 5.027649 12.137741l0 0c0 9.480164 -7.6852417 17.165344 -17.165405 17.165344l0 0c-9.480164 0 -17.165314 -7.6851807 -17.165314 -17.165344z" fill-rule="evenodd"/><path stroke="#ffffff" stroke-width="1.0" stroke-linejoin="round" stroke-linecap="butt" d="m508.564 160.51302l0 0c0 -9.480164 7.68515 -17.16536 17.165314 -17.16536l0 0c4.5525513 0 8.91864 1.8084869 12.137756 5.0276184c3.2191162 3.2191315 5.027649 7.585205 5.027649 12.137741l0 0c0 9.480164 -7.6852417 17.165344 -17.165405 17.165344l0 0c-9.480164 0 -17.165314 -7.6851807 -17.165314 -17.165344z" fill-rule="evenodd"/><path fill="#000000" d="m530.4041 162.35863q0.265625 0 0.40625 0.140625q0.15625 0.140625 0.15625 0.359375q0 0.484375 -0.5625 0.484375l-1.09375 0l0 1.703125q0 0.296875 -0.171875 0.46875q-0.171875 0.15625 -0.4375 0.15625q-0.265625 0 -0.421875 -0.15625q-0.15625 -0.171875 -0.15625 -0.46875l0 -1.703125l-4.34375 0q-0.265625 0 -0.421875 -0.140625q-0.140625 -0.140625 -0.140625 -0.359375q0 -0.203125 0.171875 -0.453125l4.78125 -6.9375q0.21875 -0.265625 0.53125 -0.265625q0.25 0 0.421875 0.171875q0.1875 0.15625 0.1875 0.4375l0 6.5625l1.09375 0zm-5.8125 0l3.53125 0l0 -5.09375l-3.53125 5.09375z" fill-rule="nonzero"/></g><g filter="url(#shadowFilter-p.31)"><use xlink:href="#p.31" transform="matrix(1.0 0.0 0.0 1.0 0.0 2.0)"/></g><defs><filter id="shadowFilter-p.31" filterUnits="userSpaceOnUse"><feGaussianBlur in="SourceAlpha" stdDeviation="2.0" result="blur"/><feComponentTransfer in="blur" color-interpolation-filters="sRGB"><feFuncR type="linear" slope="0" intercept="0.0"/><feFuncG type="linear" slope="0" intercept="0.0"/><feFuncB type="linear" slope="0" intercept="0.0"/><feFuncA type="linear" slope="0.5" intercept="0"/></feComponentTransfer></filter></defs><g id="p.31"><path fill="#cfe2f3" d="m510.0248 104.175545l0 0c0 -9.480164 7.685211 -17.16536 17.165375 -17.16536l0 0c4.55249 0 8.918579 1.8084869 12.137695 5.0276184c3.2191772 3.2191315 5.027649 7.585205 5.027649 12.137741l0 0c0 9.480164 -7.6851807 17.165352 -17.165344 17.165352l0 0c-9.480164 0 -17.165375 -7.6851883 -17.165375 -17.165352z" fill-rule="evenodd"/><path stroke="#ffffff" stroke-width="1.0" stroke-linejoin="round" stroke-linecap="butt" d="m510.0248 104.175545l0 0c0 -9.480164 7.685211 -17.16536 17.165375 -17.16536l0 0c4.55249 0 8.918579 1.8084869 12.137695 5.0276184c3.2191772 3.2191315 5.027649 7.585205 5.027649 12.137741l0 0c0 9.480164 -7.6851807 17.165352 -17.165344 17.165352l0 0c-9.480164 0 -17.165375 -7.6851883 -17.165375 -17.165352z" fill-rule="evenodd"/><path fill="#000000" d="m531.25555 108.239914q0.265625 0 0.40625 0.140625q0.15625 0.125 0.15625 0.359375q0 0.25 -0.140625 0.390625q-0.140625 0.125 -0.421875 0.125l-4.84375 0q-0.28125 0 -0.421875 -0.125q-0.140625 -0.140625 -0.140625 -0.390625q0 -0.234375 0.140625 -0.359375q0.15625 -0.140625 0.421875 -0.140625l1.8125 0l0 -7.84375l-1.59375 1.03125q-0.109375 0.078125 -0.234375 0.078125q-0.203125 0 -0.359375 -0.1875q-0.15625 -0.203125 -0.15625 -0.421875q0 -0.296875 0.234375 -0.4375l2.234375 -1.453125q0.25 -0.15625 0.515625 -0.15625q0.25 0 0.40625 0.171875q0.15625 0.15625 0.15625 0.4375l0 8.78125l1.828125 0z" fill-rule="nonzero"/></g><g filter="url(#shadowFilter-p.32)"><use xlink:href="#p.32" transform="matrix(1.0 0.0 0.0 1.0 0.0 2.0)"/></g><defs><filter id="shadowFilter-p.32" filterUnits="userSpaceOnUse"><feGaussianBlur in="SourceAlpha" stdDeviation="2.0" result="blur"/><feComponentTransfer in="blur" color-interpolation-filters="sRGB"><feFuncR type="linear" slope="0" intercept="0.0"/><feFuncG type="linear" slope="0" intercept="0.0"/><feFuncB type="linear" slope="0" intercept="0.0"/><feFuncA type="linear" slope="0.5" intercept="0"/></feComponentTransfer></filter></defs><g id="p.32"><path fill="#000000" fill-opacity="0.0" d="m494.7778 49.911354l-11.653534 37.102364" fill-rule="evenodd"/><path stroke="#ff0000" stroke-width="1.0" stroke-linejoin="round" stroke-linecap="butt" d="m494.7778 49.911354l-11.653534 37.102364" fill-rule="evenodd"/></g><g filter="url(#shadowFilter-p.33)"><use xlink:href="#p.33" transform="matrix(1.0 0.0 0.0 1.0 0.0 2.0)"/></g><defs><filter id="shadowFilter-p.33" filterUnits="userSpaceOnUse"><feGaussianBlur in="SourceAlpha" stdDeviation="2.0" result="blur"/><feComponentTransfer in="blur" color-interpolation-filters="sRGB"><feFuncR type="linear" slope="0" intercept="0.0"/><feFuncG type="linear" slope="0" intercept="0.0"/><feFuncB type="linear" slope="0" intercept="0.0"/><feFuncA type="linear" slope="0.5" intercept="0"/></feComponentTransfer></filter></defs><g id="p.33"><path fill="#000000" fill-opacity="0.0" d="m477.61246 32.746l-122.26773 57.54331" fill-rule="evenodd"/><path stroke="#ff0000" stroke-width="1.0" stroke-linejoin="round" stroke-linecap="butt" d="m477.61246 32.746l-122.26773 57.54331" fill-rule="evenodd"/></g><g filter="url(#shadowFilter-p.34)"><use xlink:href="#p.34" transform="matrix(1.0 0.0 0.0 1.0 0.0 2.0)"/></g><defs><filter id="shadowFilter-p.34" filterUnits="userSpaceOnUse"><feGaussianBlur in="SourceAlpha" stdDeviation="2.0" result="blur"/><feComponentTransfer in="blur" color-interpolation-filters="sRGB"><feFuncR type="linear" slope="0" intercept="0.0"/><feFuncG type="linear" slope="0" intercept="0.0"/><feFuncB type="linear" slope="0" intercept="0.0"/><feFuncA type="linear" slope="0.5" intercept="0"/></feComponentTransfer></filter></defs><g id="p.34"><path fill="#cfe2f3" d="m561.30695 104.175545l0 0c0 -9.480164 7.6851807 -17.16536 17.165344 -17.16536l0 0c4.5525513 0 8.918579 1.8084869 12.137756 5.0276184c3.2191162 3.2191315 5.027588 7.585205 5.027588 12.137741l0 0c0 9.480164 -7.6851807 17.165352 -17.165344 17.165352l0 0c-9.480164 0 -17.165344 -7.6851883 -17.165344 -17.165352z" fill-rule="evenodd"/><path stroke="#ffffff" stroke-width="1.0" stroke-linejoin="round" stroke-linecap="butt" d="m561.30695 104.175545l0 0c0 -9.480164 7.6851807 -17.16536 17.165344 -17.16536l0 0c4.5525513 0 8.918579 1.8084869 12.137756 5.0276184c3.2191162 3.2191315 5.027588 7.585205 5.027588 12.137741l0 0c0 9.480164 -7.6851807 17.165352 -17.165344 17.165352l0 0c-9.480164 0 -17.165344 -7.6851883 -17.165344 -17.165352z" fill-rule="evenodd"/><path fill="#000000" d="m582.78766 108.239914q0.25 0 0.390625 0.140625q0.15625 0.125 0.15625 0.359375q0 0.515625 -0.546875 0.515625l-5.75 0q-0.25 0 -0.421875 -0.15625q-0.15625 -0.15625 -0.15625 -0.375q0 -0.28125 0.203125 -0.484375l3.53125 -3.875q0.734375 -0.828125 1.0625 -1.46875q0.34375 -0.65625 0.34375 -1.328125q0 -0.84375 -0.5 -1.296875q-0.484375 -0.453125 -1.390625 -0.453125q-0.703125 0 -1.34375 0.265625q-0.640625 0.25 -1.28125 0.78125q-0.21875 0.171875 -0.421875 0.171875q-0.15625 0 -0.28125 -0.15625q-0.109375 -0.15625 -0.109375 -0.375q0 -0.3125 0.234375 -0.5q0.59375 -0.5625 1.453125 -0.875q0.875 -0.328125 1.78125 -0.328125q1.390625 0 2.21875 0.734375q0.828125 0.734375 0.828125 1.984375q0 0.890625 -0.40625 1.71875q-0.390625 0.8125 -1.3125 1.828125l-2.9375 3.171875l4.65625 0z" fill-rule="nonzero"/></g><g filter="url(#shadowFilter-p.35)"><use xlink:href="#p.35" transform="matrix(1.0 0.0 0.0 1.0 0.0 2.0)"/></g><defs><filter id="shadowFilter-p.35" filterUnits="userSpaceOnUse"><feGaussianBlur in="SourceAlpha" stdDeviation="2.0" result="blur"/><feComponentTransfer in="blur" color-interpolation-filters="sRGB"><feFuncR type="linear" slope="0" intercept="0.0"/><feFuncG type="linear" slope="0" intercept="0.0"/><feFuncB type="linear" slope="0" intercept="0.0"/><feFuncA type="linear" slope="0.5" intercept="0"/></feComponentTransfer></filter></defs><g id="p.35"><path fill="#000000" fill-opacity="0.0" d="m568.34674 143.34744l-29.007874 -27.02362" fill-rule="evenodd"/><path stroke="#ffffff" stroke-width="1.0" stroke-linejoin="round" stroke-linecap="butt" d="m568.34674 143.34744l-29.007874 -27.02362" fill-rule="evenodd"/></g><g filter="url(#shadowFilter-p.36)"><use xlink:href="#p.36" transform="matrix(1.0 0.0 0.0 1.0 0.0 2.0)"/></g><defs><filter id="shadowFilter-p.36" filterUnits="userSpaceOnUse"><feGaussianBlur in="SourceAlpha" stdDeviation="2.0" result="blur"/><feComponentTransfer in="blur" color-interpolation-filters="sRGB"><feFuncR type="linear" slope="0" intercept="0.0"/><feFuncG type="linear" slope="0" intercept="0.0"/><feFuncB type="linear" slope="0" intercept="0.0"/><feFuncA type="linear" slope="0.5" intercept="0"/></feComponentTransfer></filter></defs><g id="p.36"><path fill="#cfe2f3" d="m421.8701 105.992714l0 0c0 -9.480164 7.6851807 -17.165352 17.165344 -17.165352l0 0c4.5525513 0 8.91861 1.8084869 12.137756 5.0276184c3.2191162 3.2191238 5.0276184 7.5851974 5.0276184 12.137733l0 0c0 9.480164 -7.685211 17.16536 -17.165375 17.16536l0 0c-9.480164 0 -17.165344 -7.685196 -17.165344 -17.16536z" fill-rule="evenodd"/><path stroke="#ffffff" stroke-width="1.0" stroke-linejoin="round" stroke-linecap="butt" d="m421.8701 105.992714l0 0c0 -9.480164 7.6851807 -17.165352 17.165344 -17.165352l0 0c4.5525513 0 8.91861 1.8084869 12.137756 5.0276184c3.2191162 3.2191238 5.0276184 7.5851974 5.0276184 12.137733l0 0c0 9.480164 -7.685211 17.16536 -17.165375 17.16536l0 0c-9.480164 0 -17.165344 -7.685196 -17.165344 -17.16536z" fill-rule="evenodd"/><path fill="#000000" d="m440.72583 104.572716q0.9375 0 1.65625 0.421875q0.734375 0.40625 1.140625 1.15625q0.421875 0.75 0.421875 1.71875q0 0.953125 -0.421875 1.71875q-0.421875 0.75 -1.1875 1.1875q-0.765625 0.421875 -1.71875 0.421875q-1.875 0 -2.890625 -1.296875q-1.015625 -1.3125 -1.015625 -3.734375q0 -1.734375 0.46875 -2.96875q0.46875 -1.25 1.359375 -1.90625q0.890625 -0.671875 2.125 -0.671875q0.828125 0 1.65625 0.328125q0.828125 0.3125 1.421875 0.875q0.25 0.234375 0.25 0.5q0 0.21875 -0.125 0.375q-0.109375 0.140625 -0.28125 0.140625q-0.203125 0 -0.421875 -0.15625q-1.265625 -1.046875 -2.46875 -1.046875q-1.3125 0 -2.046875 1.1875q-0.734375 1.1875 -0.734375 3.328125l0 0.1875q0.34375 -0.828125 1.09375 -1.296875q0.765625 -0.46875 1.71875 -0.46875zm-0.171875 5.609375q1.0 0 1.59375 -0.625q0.609375 -0.640625 0.609375 -1.671875q0 -1.046875 -0.609375 -1.671875q-0.609375 -0.625 -1.609375 -0.625q-1.0 0 -1.640625 0.640625q-0.640625 0.640625 -0.640625 1.65625q0 1.015625 0.640625 1.65625q0.640625 0.640625 1.65625 0.640625z" fill-rule="nonzero"/></g><g filter="url(#shadowFilter-p.37)"><use xlink:href="#p.37" transform="matrix(1.0 0.0 0.0 1.0 0.0 2.0)"/></g><defs><filter id="shadowFilter-p.37" filterUnits="userSpaceOnUse"><feGaussianBlur in="SourceAlpha" stdDeviation="2.0" result="blur"/><feComponentTransfer in="blur" color-interpolation-filters="sRGB"><feFuncR type="linear" slope="0" intercept="0.0"/><feFuncG type="linear" slope="0" intercept="0.0"/><feFuncB type="linear" slope="0" intercept="0.0"/><feFuncA type="linear" slope="0.5" intercept="0"/></feComponentTransfer></filter></defs><g id="p.37"><path fill="#cfe2f3" d="m551.1814 160.5128l0 0c0 -9.480164 7.6851807 -17.16536 17.165344 -17.16536l0 0c4.5525513 0 8.918579 1.8084869 12.137756 5.0276184c3.2191162 3.2191315 5.027588 7.585205 5.027588 12.137741l0 0c0 9.480164 -7.6851807 17.16536 -17.165344 17.16536l0 0c-9.480164 0 -17.165344 -7.685196 -17.165344 -17.16536z" fill-rule="evenodd"/><path stroke="#ffffff" stroke-width="1.0" stroke-linejoin="round" stroke-linecap="butt" d="m551.1814 160.5128l0 0c0 -9.480164 7.6851807 -17.16536 17.165344 -17.16536l0 0c4.5525513 0 8.918579 1.8084869 12.137756 5.0276184c3.2191162 3.2191315 5.027588 7.585205 5.027588 12.137741l0 0c0 9.480164 -7.6851807 17.16536 -17.165344 17.16536l0 0c-9.480164 0 -17.165344 -7.685196 -17.165344 -17.16536z" fill-rule="evenodd"/><path fill="#000000" d="m570.00586 159.10843q0.984375 0 1.71875 0.421875q0.734375 0.40625 1.140625 1.15625q0.40625 0.734375 0.40625 1.703125q0 0.953125 -0.4375 1.71875q-0.4375 0.75 -1.234375 1.171875q-0.78125 0.421875 -1.796875 0.421875q-0.921875 0 -1.78125 -0.328125q-0.859375 -0.328125 -1.46875 -0.875q-0.234375 -0.21875 -0.234375 -0.5q0 -0.21875 0.109375 -0.359375q0.125 -0.15625 0.296875 -0.15625q0.203125 0 0.40625 0.15625q0.640625 0.53125 1.28125 0.796875q0.65625 0.25 1.359375 0.25q1.078125 0 1.6875 -0.609375q0.625 -0.625 0.625 -1.671875q0 -1.03125 -0.625 -1.65625q-0.609375 -0.640625 -1.640625 -0.640625q-1.34375 0 -2.171875 1.03125q-0.203125 0.21875 -0.5 0.21875q-0.203125 0 -0.34375 -0.125q-0.140625 -0.125 -0.140625 -0.34375l0 -5.0625q0 -0.25 0.15625 -0.40625q0.15625 -0.15625 0.421875 -0.15625l5.171875 0q0.25 0 0.40625 0.140625q0.15625 0.125 0.15625 0.359375q0 0.234375 -0.15625 0.359375q-0.15625 0.125 -0.40625 0.125l-4.5625 0l0 3.6875q0.40625 -0.390625 0.953125 -0.609375q0.546875 -0.21875 1.203125 -0.21875z" fill-rule="nonzero"/></g><g filter="url(#shadowFilter-p.38)"><use xlink:href="#p.38" transform="matrix(1.0 0.0 0.0 1.0 0.0 2.0)"/></g><defs><filter id="shadowFilter-p.38" filterUnits="userSpaceOnUse"><feGaussianBlur in="SourceAlpha" stdDeviation="2.0" result="blur"/><feComponentTransfer in="blur" color-interpolation-filters="sRGB"><feFuncR type="linear" slope="0" intercept="0.0"/><feFuncG type="linear" slope="0" intercept="0.0"/><feFuncB type="linear" slope="0" intercept="0.0"/><feFuncA type="linear" slope="0.5" intercept="0"/></feComponentTransfer></filter></defs><g id="p.38"><path fill="#cfe2f3" d="m421.87076 160.51129l0 0c0 -9.480164 7.6851807 -17.16536 17.165344 -17.16536l0 0c4.5525208 0 8.91861 1.8085022 12.137726 5.0276184c3.2191467 3.2191315 5.0276184 7.585205 5.0276184 12.137741l0 0c0 9.480164 -7.6851807 17.16536 -17.165344 17.16536l0 0c-9.480164 0 -17.165344 -7.685196 -17.165344 -17.16536z" fill-rule="evenodd"/><path stroke="#ffffff" stroke-width="1.0" stroke-linejoin="round" stroke-linecap="butt" d="m421.87076 160.51129l0 0c0 -9.480164 7.6851807 -17.16536 17.165344 -17.16536l0 0c4.5525208 0 8.91861 1.8085022 12.137726 5.0276184c3.2191467 3.2191315 5.0276184 7.585205 5.0276184 12.137741l0 0c0 9.480164 -7.6851807 17.16536 -17.165344 17.16536l0 0c-9.480164 0 -17.165344 -7.685196 -17.165344 -17.16536z" fill-rule="evenodd"/><path fill="#000000" d="m442.08588 160.2788q0.90625 0.28125 1.40625 0.96875q0.515625 0.671875 0.515625 1.609375q0 1.328125 -0.96875 2.09375q-0.96875 0.75 -2.75 0.75q-1.765625 0 -2.734375 -0.75q-0.96875 -0.765625 -0.96875 -2.09375q0 -0.953125 0.515625 -1.625q0.515625 -0.6875 1.421875 -0.953125q-0.78125 -0.28125 -1.234375 -0.90625q-0.453125 -0.640625 -0.453125 -1.484375q0 -1.265625 0.90625 -2.0q0.921875 -0.75 2.546875 -0.75q1.640625 0 2.546875 0.75q0.921875 0.734375 0.921875 2.0q0 0.84375 -0.453125 1.484375q-0.453125 0.640625 -1.21875 0.90625zm-4.0625 -2.3125q0 0.90625 0.578125 1.390625q0.578125 0.484375 1.6875 0.484375q1.125 0 1.703125 -0.484375q0.578125 -0.484375 0.578125 -1.390625q0 -0.859375 -0.578125 -1.34375q-0.578125 -0.484375 -1.703125 -0.484375q-1.109375 0 -1.6875 0.484375q-0.578125 0.484375 -0.578125 1.34375zm2.265625 6.734375q2.53125 0 2.53125 -1.921875q0 -1.921875 -2.53125 -1.921875q-2.515625 0 -2.515625 1.921875q0 1.921875 2.515625 1.921875z" fill-rule="nonzero"/></g><g filter="url(#shadowFilter-p.39)"><use xlink:href="#p.39" transform="matrix(1.0 0.0 0.0 1.0 0.0 2.0)"/></g><defs><filter id="shadowFilter-p.39" filterUnits="userSpaceOnUse"><feGaussianBlur in="SourceAlpha" stdDeviation="2.0" result="blur"/><feComponentTransfer in="blur" color-interpolation-filters="sRGB"><feFuncR type="linear" slope="0" intercept="0.0"/><feFuncG type="linear" slope="0" intercept="0.0"/><feFuncB type="linear" slope="0" intercept="0.0"/><feFuncA type="linear" slope="0.5" intercept="0"/></feComponentTransfer></filter></defs><g id="p.39"><path fill="#000000" fill-opacity="0.0" d="m527.1902 121.3409l-1.4488525 22.015747" fill-rule="evenodd"/><path stroke="#ffffff" stroke-width="1.0" stroke-linejoin="round" stroke-linecap="butt" d="m527.1902 121.3409l-1.4488525 22.015747" fill-rule="evenodd"/></g><g filter="url(#shadowFilter-p.40)"><use xlink:href="#p.40" transform="matrix(1.0 0.0 0.0 1.0 0.0 2.0)"/></g><defs><filter id="shadowFilter-p.40" filterUnits="userSpaceOnUse"><feGaussianBlur in="SourceAlpha" stdDeviation="2.0" result="blur"/><feComponentTransfer in="blur" color-interpolation-filters="sRGB"><feFuncR type="linear" slope="0" intercept="0.0"/><feFuncG type="linear" slope="0" intercept="0.0"/><feFuncB type="linear" slope="0" intercept="0.0"/><feFuncA type="linear" slope="0.5" intercept="0"/></feComponentTransfer></filter></defs><g id="p.40"><path fill="#000000" fill-opacity="0.0" d="m483.11417 143.34634l0 -22.015747" fill-rule="evenodd"/><path stroke="#ffffff" stroke-width="1.0" stroke-linejoin="round" stroke-linecap="butt" d="m483.11417 143.34634l0 -22.015747" fill-rule="evenodd"/></g><g filter="url(#shadowFilter-p.41)"><use xlink:href="#p.41" transform="matrix(1.0 0.0 0.0 1.0 0.0 2.0)"/></g><defs><filter id="shadowFilter-p.41" filterUnits="userSpaceOnUse"><feGaussianBlur in="SourceAlpha" stdDeviation="2.0" result="blur"/><feComponentTransfer in="blur" color-interpolation-filters="sRGB"><feFuncR type="linear" slope="0" intercept="0.0"/><feFuncG type="linear" slope="0" intercept="0.0"/><feFuncB type="linear" slope="0" intercept="0.0"/><feFuncA type="linear" slope="0.5" intercept="0"/></feComponentTransfer></filter></defs><g id="p.41"><path fill="#000000" fill-opacity="0.0" d="m451.1732 93.85498l31.46457 -48.97638" fill-rule="evenodd"/><path stroke="#ff0000" stroke-width="1.0" stroke-linejoin="round" stroke-linecap="butt" d="m451.1732 93.85498l31.46457 -48.97638" fill-rule="evenodd"/></g><g filter="url(#shadowFilter-p.42)"><use xlink:href="#p.42" transform="matrix(1.0 0.0 0.0 1.0 0.0 2.0)"/></g><defs><filter id="shadowFilter-p.42" filterUnits="userSpaceOnUse"><feGaussianBlur in="SourceAlpha" stdDeviation="2.0" result="blur"/><feComponentTransfer in="blur" color-interpolation-filters="sRGB"><feFuncR type="linear" slope="0" intercept="0.0"/><feFuncG type="linear" slope="0" intercept="0.0"/><feFuncB type="linear" slope="0" intercept="0.0"/><feFuncA type="linear" slope="0.5" intercept="0"/></feComponentTransfer></filter></defs><g id="p.42"><path fill="#000000" fill-opacity="0.0" d="m439.03543 123.15807l0 20.188972" fill-rule="evenodd"/><path stroke="#ffffff" stroke-width="1.0" stroke-linejoin="round" stroke-linecap="butt" d="m439.03543 123.15807l0 20.188972" fill-rule="evenodd"/></g><g filter="url(#shadowFilter-p.43)"><use xlink:href="#p.43" transform="matrix(1.0 0.0 0.0 1.0 0.0 2.0)"/></g><defs><filter id="shadowFilter-p.43" filterUnits="userSpaceOnUse"><feGaussianBlur in="SourceAlpha" stdDeviation="2.0" result="blur"/><feComponentTransfer in="blur" color-interpolation-filters="sRGB"><feFuncR type="linear" slope="0" intercept="0.0"/><feFuncG type="linear" slope="0" intercept="0.0"/><feFuncB type="linear" slope="0" intercept="0.0"/><feFuncA type="linear" slope="0.5" intercept="0"/></feComponentTransfer></filter></defs><g id="p.43"><path fill="#cfe2f3" d="m417.47638 219.42522l0 0c0 -11.906738 9.652313 -21.559067 21.559052 -21.559067l0 0c5.7178345 0 11.201447 2.2713928 15.244568 6.314499c4.043091 4.0431213 6.3144836 9.526749 6.3144836 15.244568l0 0c0 11.906738 -9.652313 21.559052 -21.559052 21.559052l0 0c-11.906738 0 -21.559052 -9.652313 -21.559052 -21.559052z" fill-rule="evenodd"/><path stroke="#ffffff" stroke-width="1.0" stroke-linejoin="round" stroke-linecap="butt" d="m417.47638 219.42522l0 0c0 -11.906738 9.652313 -21.559067 21.559052 -21.559067l0 0c5.7178345 0 11.201447 2.2713928 15.244568 6.314499c4.043091 4.0431213 6.3144836 9.526749 6.3144836 15.244568l0 0c0 11.906738 -9.652313 21.559052 -21.559052 21.559052l0 0c-11.906738 0 -21.559052 -9.652313 -21.559052 -21.559052z" fill-rule="evenodd"/><path fill="#000000" d="m438.173 221.55833q0.140625 0 0.21875 0.078125q0.078125 0.0625 0.078125 0.1875q0 0.140625 -0.078125 0.21875q-0.0625 0.0625 -0.21875 0.0625l-2.65625 0q-0.140625 0 -0.21875 -0.0625q-0.078125 -0.078125 -0.078125 -0.21875q0 -0.125 0.078125 -0.1875q0.078125 -0.078125 0.21875 -0.078125l1.0 0l0 -4.296875l-0.875 0.578125q-0.0625 0.03125 -0.125 0.03125q-0.109375 0 -0.203125 -0.09375q-0.078125 -0.109375 -0.078125 -0.234375q0 -0.171875 0.125 -0.234375l1.21875 -0.796875q0.140625 -0.09375 0.28125 -0.09375q0.140625 0 0.21875 0.09375q0.09375 0.09375 0.09375 0.25l0 4.796875l1.0 0zm3.2686768 0.609375q-0.96875 0 -1.484375 -0.734375q-0.5 -0.734375 -0.5 -2.140625q0 -1.421875 0.5 -2.15625q0.515625 -0.734375 1.484375 -0.734375q0.96875 0 1.46875 0.734375q0.5 0.734375 0.5 2.140625q0 1.421875 -0.5 2.15625q-0.5 0.734375 -1.46875 0.734375zm0 -0.546875q0.671875 0 0.984375 -0.5625q0.328125 -0.578125 0.328125 -1.78125q0 -1.203125 -0.328125 -1.765625q-0.3125 -0.5625 -0.984375 -0.5625q-0.671875 0 -1.0 0.5625q-0.3125 0.5625 -0.3125 1.765625q0 1.203125 0.3125 1.78125q0.328125 0.5625 1.0 0.5625z" fill-rule="nonzero"/></g><g filter="url(#shadowFilter-p.44)"><use xlink:href="#p.44" transform="matrix(1.0 0.0 0.0 1.0 0.0 2.0)"/></g><defs><filter id="shadowFilter-p.44" filterUnits="userSpaceOnUse"><feGaussianBlur in="SourceAlpha" stdDeviation="2.0" result="blur"/><feComponentTransfer in="blur" color-interpolation-filters="sRGB"><feFuncR type="linear" slope="0" intercept="0.0"/><feFuncG type="linear" slope="0" intercept="0.0"/><feFuncB type="linear" slope="0" intercept="0.0"/><feFuncA type="linear" slope="0.5" intercept="0"/></feComponentTransfer></filter></defs><g id="p.44"><path fill="#000000" fill-opacity="0.0" d="m343.20084 119.59091l-5.0393677 19.370071" fill-rule="evenodd"/><path stroke="#ffffff" stroke-width="1.0" stroke-linejoin="round" stroke-linecap="butt" d="m343.20084 119.59091l-5.0393677 19.370071" fill-rule="evenodd"/></g><g filter="url(#shadowFilter-p.45)"><use xlink:href="#p.45" transform="matrix(1.0 0.0 0.0 1.0 0.0 2.0)"/></g><defs><filter id="shadowFilter-p.45" filterUnits="userSpaceOnUse"><feGaussianBlur in="SourceAlpha" stdDeviation="2.0" result="blur"/><feComponentTransfer in="blur" color-interpolation-filters="sRGB"><feFuncR type="linear" slope="0" intercept="0.0"/><feFuncG type="linear" slope="0" intercept="0.0"/><feFuncB type="linear" slope="0" intercept="0.0"/><feFuncA type="linear" slope="0.5" intercept="0"/></feComponentTransfer></filter></defs><g id="p.45"><path fill="#000000" fill-opacity="0.0" d="m439.0361 177.67665l0 20.18898" fill-rule="evenodd"/><path stroke="#ffffff" stroke-width="1.0" stroke-linejoin="round" stroke-linecap="butt" d="m439.0361 177.67665l0 20.18898" fill-rule="evenodd"/></g><g filter="url(#shadowFilter-p.46)"><use xlink:href="#p.46" transform="matrix(1.0 0.0 0.0 1.0 0.0 2.0)"/></g><defs><filter id="shadowFilter-p.46" filterUnits="userSpaceOnUse"><feGaussianBlur in="SourceAlpha" stdDeviation="2.0" result="blur"/><feComponentTransfer in="blur" color-interpolation-filters="sRGB"><feFuncR type="linear" slope="0" intercept="0.0"/><feFuncG type="linear" slope="0" intercept="0.0"/><feFuncB type="linear" slope="0" intercept="0.0"/><feFuncA type="linear" slope="0.5" intercept="0"/></feComponentTransfer></filter></defs><g id="p.46"><path fill="#000000" fill-opacity="0.0" d="m367.47632 119.59091l21.543304 19.370071" fill-rule="evenodd"/><path stroke="#ffffff" stroke-width="1.0" stroke-linejoin="round" stroke-linecap="butt" d="m367.47632 119.59091l21.543304 19.370071" fill-rule="evenodd"/></g><g filter="url(#shadowFilter-p.47)"><use xlink:href="#p.47" transform="matrix(1.0 0.0 0.0 1.0 0.0 2.0)"/></g><defs><filter id="shadowFilter-p.47" filterUnits="userSpaceOnUse"><feGaussianBlur in="SourceAlpha" stdDeviation="2.0" result="blur"/><feComponentTransfer in="blur" color-interpolation-filters="sRGB"><feFuncR type="linear" slope="0" intercept="0.0"/><feFuncG type="linear" slope="0" intercept="0.0"/><feFuncB type="linear" slope="0" intercept="0.0"/><feFuncA type="linear" slope="0.5" intercept="0"/></feComponentTransfer></filter></defs><g id="p.47"><path fill="#cfe2f3" d="m316.60104 160.51183l0 0c0 -11.906738 9.652313 -21.559052 21.559052 -21.559052l0 0c5.7178345 0 11.201447 2.2713928 15.244568 6.314499c4.043091 4.043106 6.3144836 9.526733 6.3144836 15.244553l0 0c0 11.906738 -9.652313 21.559052 -21.559052 21.559052l0 0c-11.906738 0 -21.559052 -9.652313 -21.559052 -21.559052z" fill-rule="evenodd"/><path stroke="#ffffff" stroke-width="1.0" stroke-linejoin="round" stroke-linecap="butt" d="m316.60104 160.51183l0 0c0 -11.906738 9.652313 -21.559052 21.559052 -21.559052l0 0c5.7178345 0 11.201447 2.2713928 15.244568 6.314499c4.043091 4.043106 6.3144836 9.526733 6.3144836 15.244553l0 0c0 11.906738 -9.652313 21.559052 -21.559052 21.559052l0 0c-11.906738 0 -21.559052 -9.652313 -21.559052 -21.559052z" fill-rule="evenodd"/><path fill="#000000" d="m337.29767 162.64494q0.140625 0 0.21875 0.078125q0.078125 0.0625 0.078125 0.1875q0 0.140625 -0.078125 0.21875q-0.0625 0.0625 -0.21875 0.0625l-2.65625 0q-0.140625 0 -0.21875 -0.0625q-0.078125 -0.078125 -0.078125 -0.21875q0 -0.125 0.078125 -0.1875q0.078125 -0.078125 0.21875 -0.078125l1.0 0l0 -4.296875l-0.875 0.578125q-0.0625 0.03125 -0.125 0.03125q-0.109375 0 -0.203125 -0.09375q-0.078125 -0.109375 -0.078125 -0.234375q0 -0.171875 0.125 -0.234375l1.21875 -0.796875q0.140625 -0.09375 0.28125 -0.09375q0.140625 0 0.21875 0.09375q0.09375 0.09375 0.09375 0.25l0 4.796875l1.0 0zm4.7999268 0q0.140625 0 0.21875 0.078125q0.078125 0.0625 0.078125 0.1875q0 0.140625 -0.078125 0.21875q-0.0625 0.0625 -0.21875 0.0625l-2.65625 0q-0.140625 0 -0.21875 -0.0625q-0.078125 -0.078125 -0.078125 -0.21875q0 -0.125 0.078125 -0.1875q0.078125 -0.078125 0.21875 -0.078125l1.0 0l0 -4.296875l-0.875 0.578125q-0.0625 0.03125 -0.125 0.03125q-0.109375 0 -0.203125 -0.09375q-0.078125 -0.109375 -0.078125 -0.234375q0 -0.171875 0.125 -0.234375l1.21875 -0.796875q0.140625 -0.09375 0.28125 -0.09375q0.140625 0 0.21875 0.09375q0.09375 0.09375 0.09375 0.25l0 4.796875l1.0 0z" fill-rule="nonzero"/></g><g filter="url(#shadowFilter-p.48)"><use xlink:href="#p.48" transform="matrix(1.0 0.0 0.0 1.0 0.0 2.0)"/></g><defs><filter id="shadowFilter-p.48" filterUnits="userSpaceOnUse"><feGaussianBlur in="SourceAlpha" stdDeviation="2.0" result="blur"/><feComponentTransfer in="blur" color-interpolation-filters="sRGB"><feFuncR type="linear" slope="0" intercept="0.0"/><feFuncG type="linear" slope="0" intercept="0.0"/><feFuncB type="linear" slope="0" intercept="0.0"/><feFuncA type="linear" slope="0.5" intercept="0"/></feComponentTransfer></filter></defs><g id="p.48"><path fill="#cfe2f3" d="m367.47507 160.51183l0 0c0 -11.906738 9.652313 -21.559052 21.559052 -21.559052l0 0c5.7178345 0 11.201447 2.2713928 15.244568 6.314499c4.043091 4.043106 6.3144836 9.526733 6.3144836 15.244553l0 0c0 11.906738 -9.652313 21.559052 -21.559052 21.559052l0 0c-11.906738 0 -21.559052 -9.652313 -21.559052 -21.559052z" fill-rule="evenodd"/><path stroke="#ffffff" stroke-width="1.0" stroke-linejoin="round" stroke-linecap="butt" d="m367.47507 160.51183l0 0c0 -11.906738 9.652313 -21.559052 21.559052 -21.559052l0 0c5.7178345 0 11.201447 2.2713928 15.244568 6.314499c4.043091 4.043106 6.3144836 9.526733 6.3144836 15.244553l0 0c0 11.906738 -9.652313 21.559052 -21.559052 21.559052l0 0c-11.906738 0 -21.559052 -9.652313 -21.559052 -21.559052z" fill-rule="evenodd"/><path fill="#000000" d="m388.1717 162.64494q0.140625 0 0.21875 0.078125q0.078125 0.0625 0.078125 0.1875q0 0.140625 -0.078125 0.21875q-0.0625 0.0625 -0.21875 0.0625l-2.65625 0q-0.140625 0 -0.21875 -0.0625q-0.078125 -0.078125 -0.078125 -0.21875q0 -0.125 0.078125 -0.1875q0.078125 -0.078125 0.21875 -0.078125l1.0 0l0 -4.296875l-0.875 0.578125q-0.0625 0.03125 -0.125 0.03125q-0.109375 0 -0.203125 -0.09375q-0.078125 -0.109375 -0.078125 -0.234375q0 -0.171875 0.125 -0.234375l1.21875 -0.796875q0.140625 -0.09375 0.28125 -0.09375q0.140625 0 0.21875 0.09375q0.09375 0.09375 0.09375 0.25l0 4.796875l1.0 0zm4.9249268 0q0.140625 0 0.21875 0.078125q0.09375 0.0625 0.09375 0.1875q0 0.28125 -0.3125 0.28125l-3.140625 0q-0.125 0 -0.21875 -0.078125q-0.09375 -0.09375 -0.09375 -0.203125q0 -0.15625 0.125 -0.265625l1.921875 -2.125q0.40625 -0.453125 0.578125 -0.796875q0.1875 -0.359375 0.1875 -0.71875q0 -0.46875 -0.28125 -0.71875q-0.265625 -0.25 -0.75 -0.25q-0.375 0 -0.734375 0.140625q-0.359375 0.140625 -0.703125 0.4375q-0.125 0.09375 -0.21875 0.09375q-0.09375 0 -0.15625 -0.078125q-0.0625 -0.09375 -0.0625 -0.21875q0 -0.15625 0.125 -0.265625q0.328125 -0.3125 0.796875 -0.484375q0.46875 -0.171875 0.96875 -0.171875q0.765625 0 1.21875 0.40625q0.453125 0.390625 0.453125 1.078125q0 0.484375 -0.234375 0.9375q-0.21875 0.4375 -0.71875 1.0l-1.59375 1.734375l2.53125 0z" fill-rule="nonzero"/></g><path fill="#000000" fill-opacity="0.0" d="m520.2861 10.548556l57.13385 0l0 34.330708l-57.13385 0z" fill-rule="evenodd"/><path fill="#ffffff" d="m533.9111 26.347307q0.625 -0.046875 0.625 0.5q0 0.234375 -0.140625 0.375q-0.125 0.140625 -0.453125 0.15625l-0.4375 0.046875q-0.984375 0.09375 -1.46875 0.703125q-0.46875 0.609375 -0.46875 1.421875l0 3.562498q0 0.296875 -0.15625 0.453125q-0.15625 0.140625 -0.421875 0.140625q-0.265625 0 -0.4375 -0.15625q-0.171875 -0.15625 -0.171875 -0.4375l0 -6.187498q0 -0.265625 0.171875 -0.421875q0.1875 -0.15625 0.4375 -0.15625q0.234375 0 0.390625 0.15625q0.15625 0.15625 0.15625 0.40625l0 0.828125q0.3125 -0.640625 0.875 -0.96875q0.5625 -0.34375 1.296875 -0.40625l0.203125 -0.015625zm4.4645386 7.390623q-1.015625 0 -1.78125 -0.453125q-0.765625 -0.46875 -1.1875 -1.2968731q-0.421875 -0.84375 -0.421875 -1.96875q0 -1.109375 0.421875 -1.953125q0.421875 -0.84375 1.1875 -1.296875q0.765625 -0.453125 1.78125 -0.453125q1.015625 0 1.78125 0.453125q0.78125 0.453125 1.1875 1.296875q0.421875 0.84375 0.421875 1.953125q0 1.125 -0.421875 1.96875q-0.40625 0.8281231 -1.1875 1.2968731q-0.765625 0.453125 -1.78125 0.453125zm0 -0.984375q1.046875 0 1.609375 -0.6875q0.578125 -0.7031231 0.578125 -2.046873q0 -1.296875 -0.578125 -2.0q-0.578125 -0.71875 -1.609375 -0.71875q-1.046875 0 -1.625 0.71875q-0.5625 0.703125 -0.5625 2.0q0 1.328125 0.5625 2.031248q0.5625 0.703125 1.625 0.703125zm8.134216 0.984375q-1.015625 0 -1.78125 -0.453125q-0.765625 -0.46875 -1.1875 -1.2968731q-0.421875 -0.84375 -0.421875 -1.96875q0 -1.109375 0.421875 -1.953125q0.421875 -0.84375 1.1875 -1.296875q0.765625 -0.453125 1.78125 -0.453125q1.015625 0 1.78125 0.453125q0.78125 0.453125 1.1875 1.296875q0.421875 0.84375 0.421875 1.953125q0 1.125 -0.421875 1.96875q-0.40625 0.8281231 -1.1875 1.2968731q-0.765625 0.453125 -1.78125 0.453125zm0 -0.984375q1.046875 0 1.609375 -0.6875q0.578125 -0.7031231 0.578125 -2.046873q0 -1.296875 -0.578125 -2.0q-0.578125 -0.71875 -1.609375 -0.71875q-1.046875 0 -1.625 0.71875q-0.5625 0.703125 -0.5625 2.0q0 1.328125 0.5625 2.031248q0.5625 0.703125 1.625 0.703125zm8.447754 0.015625q0.515625 0.03125 0.515625 0.46875q0 0.25 -0.1875 0.375q-0.171875 0.125 -0.546875 0.09375l-0.390625 -0.03125q-1.171875 -0.09375 -1.734375 -0.703125q-0.546875 -0.625 -0.546875 -1.8593731l0 -3.6875l-0.984375 0q-0.25 0 -0.390625 -0.125q-0.140625 -0.125 -0.140625 -0.328125q0 -0.21875 0.140625 -0.34375q0.140625 -0.140625 0.390625 -0.140625l0.984375 0l0 -1.65625q0 -0.28125 0.15625 -0.421875q0.15625 -0.15625 0.4375 -0.15625q0.265625 0 0.421875 0.15625q0.171875 0.140625 0.171875 0.421875l0 1.65625l1.625 0q0.234375 0 0.375 0.140625q0.140625 0.125 0.140625 0.34375q0 0.203125 -0.140625 0.328125q-0.140625 0.125 -0.375 0.125l-1.625 0l0 3.734375q0 0.8125 0.328125 1.1718731q0.328125 0.359375 0.984375 0.40625l0.390625 0.03125z" fill-rule="nonzero"/><path fill="#000000" fill-opacity="0.0" d="m337.5656 57.648293l29.322845 0l0 34.33071l-29.322845 0z" fill-rule="evenodd"/><path fill="#ffffff" d="m351.2531 73.415794q0.9375 0 1.65625 0.46875q0.71875 0.46875 1.109375 1.3125q0.40625 0.84375 0.40625 1.953125q0 1.109375 -0.40625 1.9375q-0.390625 0.828125 -1.109375 1.296875q-0.703125 0.453125 -1.65625 0.453125q-0.828125 0 -1.453125 -0.359375q-0.625 -0.375 -0.953125 -1.046875l0 3.4375q0 0.265625 -0.15625 0.421875q-0.140625 0.15625 -0.421875 0.15625q-0.28125 0 -0.453125 -0.171875q-0.15625 -0.15625 -0.15625 -0.40625l0 -8.84375q0 -0.265625 0.15625 -0.421875q0.171875 -0.15625 0.453125 -0.15625q0.28125 0 0.421875 0.15625q0.15625 0.15625 0.15625 0.421875l0 0.796875q0.328125 -0.671875 0.953125 -1.03125q0.625 -0.375 1.453125 -0.375zm-0.234375 6.4375q1.046875 0 1.609375 -0.703125q0.578125 -0.703125 0.578125 -2.0q0 -1.28125 -0.578125 -2.0q-0.5625 -0.734375 -1.609375 -0.734375q-1.03125 0 -1.609375 0.703125q-0.5625 0.703125 -0.5625 2.0q0 1.3125 0.5625 2.03125q0.578125 0.703125 1.609375 0.703125z" fill-rule="nonzero"/><g filter="url(#shadowFilter-p.49)"><use xlink:href="#p.49" transform="matrix(1.0 0.0 0.0 1.0 0.0 2.0)"/></g><defs><filter id="shadowFilter-p.49" filterUnits="userSpaceOnUse"><feGaussianBlur in="SourceAlpha" stdDeviation="2.0" result="blur"/><feComponentTransfer in="blur" color-interpolation-filters="sRGB"><feFuncR type="linear" slope="0" intercept="0.0"/><feFuncG type="linear" slope="0" intercept="0.0"/><feFuncB type="linear" slope="0" intercept="0.0"/><feFuncA type="linear" slope="0.5" intercept="0"/></feComponentTransfer></filter></defs><g id="p.49"><path fill="#000000" fill-opacity="0.0" d="m527.1902 87.010185l-20.283478 -42.14173" fill-rule="evenodd"/><path stroke="#ffffff" stroke-width="1.0" stroke-linejoin="round" stroke-linecap="butt" d="m527.1902 87.010185l-20.283478 -42.14173" fill-rule="evenodd"/></g><g filter="url(#shadowFilter-p.50)"><use xlink:href="#p.50" transform="matrix(1.0 0.0 0.0 1.0 0.0 2.0)"/></g><defs><filter id="shadowFilter-p.50" filterUnits="userSpaceOnUse"><feGaussianBlur in="SourceAlpha" stdDeviation="2.0" result="blur"/><feComponentTransfer in="blur" color-interpolation-filters="sRGB"><feFuncR type="linear" slope="0" intercept="0.0"/><feFuncG type="linear" slope="0" intercept="0.0"/><feFuncB type="linear" slope="0" intercept="0.0"/><feFuncA type="linear" slope="0.5" intercept="0"/></feComponentTransfer></filter></defs><g id="p.50"><path fill="#000000" fill-opacity="0.0" d="m566.33453 92.0378l-54.393677 -59.307087" fill-rule="evenodd"/><path stroke="#ffffff" stroke-width="1.0" stroke-linejoin="round" stroke-linecap="butt" d="m566.33453 92.0378l-54.393677 -59.307087" fill-rule="evenodd"/></g></g></svg>