<?xml version="1.0" encoding="utf-8"?>
<svg viewBox="217.367 139.904 66.85 74.579" xmlns="http://www.w3.org/2000/svg">
  <path d="M 217.367 196.173 C 217.367 200.491 218.997 204.962 221.989 208.608 C 224.912 212.168 228.86 214.483 232.742 214.483 C 235.95 214.483 239.355 212.422 240.909 209.326 L 238.253 207.788 C 235.763 212.275 230.636 212.244 228.606 209.153 C 226.765 206.343 227.139 201.427 229.639 195.668 C 232.022 190.169 228.852 186.002 224.702 186.002 C 221.02 186 217.367 189.335 217.367 196.173 Z M 220.665 193.557 C 221.101 191.375 222.39 189.041 224.702 189.041 C 226.687 189.041 228.343 191.008 226.848 194.452 C 224.766 199.255 224.012 203.562 224.605 206.99 C 221.425 203.296 219.727 198.248 220.665 193.557 Z M 246.13 162.707 C 245.102 164.875 245.576 167.874 245.765 177.139 C 245.803 178.978 245.415 180.799 244.626 182.46 L 236.734 198.895 C 236.235 201.166 238.234 204.344 241.506 205.898 C 244.652 207.392 248.08 206.886 249.575 204.993 L 257.469 188.556 C 258.255 186.895 259.352 185.41 260.8 184.275 C 268.054 178.674 270.759 177.125 271.818 174.898 L 274.225 169.814 L 248.542 157.625 L 246.13 162.707 Z M 264.33 175.604 C 262.901 176.703 260.923 178.189 257.876 180.541 C 255.919 182.074 254.339 184.088 253.183 186.521 L 245.756 201.981 C 245.332 202.071 244.507 202.076 243.531 201.612 C 242.425 201.086 241.79 200.311 241.527 199.84 L 248.902 184.488 C 250.001 182.174 250.553 179.599 250.501 177.035 C 250.421 173.221 250.343 170.721 250.297 168.942 L 264.33 175.604 Z M 267.916 172.062 L 266.898 174.202 L 249.774 166.075 L 250.793 163.934 L 267.916 172.062 Z M 250.828 190.058 C 250.406 190.944 249.343 191.323 248.461 190.901 C 247.573 190.48 247.196 189.421 247.618 188.532 C 248.04 187.644 249.096 187.267 249.985 187.689 C 250.869 188.113 251.247 189.174 250.828 190.058 Z" style="fill: rgb(254, 254, 254);"/>
  <line style="stroke-width: 2px; fill: rgb(255, 236, 65); stroke: rgb(255, 236, 65);" x1="254.571" y1="154.583" x2="254.571" y2="139.899" transform="matrix(0.999391, -0.0349, 0.0349, 0.999391, -4.983628, 8.974225)"/>
  <line style="stroke-width: 2px; fill: rgb(255, 236, 65); stroke: rgb(255, 236, 65);" x1="263.221" y1="156.942" x2="263.221" y2="142.258" transform="matrix(0.920505, 0.390731, -0.390731, 0.920505, 79.378128, -90.956139)"/>
  <line style="stroke-width: 2px; fill: rgb(255, 236, 65); stroke: rgb(255, 236, 65);" x1="278.593" y1="165.304" x2="278.593" y2="150.62" transform="matrix(0.642788, 0.766044, -0.766044, 0.642788, 220.522568, -156.988586)"/>
  <line style="stroke-width: 2px; fill: rgb(255, 236, 65); stroke: rgb(255, 236, 65);" x1="271.287" y1="160.545" x2="271.287" y2="145.861" transform="matrix(0.906308, 0.422618, -0.422618, 0.906308, 90.163795, -100.29686)"/>
</svg>